/* XPM */
static char * C:\Users\mathi\OneDrive\Documents\gaper_xpm[] = {
"64 64 8 1",
" 	c None",
".	c #080000",
"+	c #CF9C9B",
"@	c #E3C6C5",
"#	c #FFFFFF",
"$	c #B97371",
"%	c #830000",
"&	c #B30000",
"                                                                ",
"                                                                ",
"                                                                ",
"                                                                ",
"                                                                ",
"                                                                ",
"                                                                ",
"                                                                ",
"                        ................                        ",
"                        ................                        ",
"                    ........................                    ",
"                    ........................                    ",
"                ........++++++++++++++++........                ",
"                ........++++++++++++++++........                ",
"              ......++@@@@@@@@@@@@@@@@@@@@++......              ",
"              ......++@@@@@@@@@@@@@@@@@@@@++......              ",
"            ....++@@@@@@@@@@@@@@@@@@@@@@@@@@@@++....            ",
"            ....++@@@@@@@@@@@@@@@@@@@@@@@@@@@@++....            ",
"          ....++@@@@@@@@@@@@@@@@@@@@@@@@@@@@@@@@++....          ",
"          ....++@@@@@@@@@@@@@@@@@@@@@@@@@@@@@@@@++....          ",
"        ....++@@@@@@@@@@@@@@@@@@@@@@@@@@@@@@@@@@@@++....        ",
"        ....++@@@@@@@@@@@@@@@@@@@@@@@@@@@@@@@@@@@@++....        ",
"        ....@@@@@@@@@@@@@@@@@@@@@@@@@@@@@@@@@@@@@@@@....        ",
"        ....@@@@@@@@@@@@@@@@@@@@@@@@@@@@@@@@@@@@@@@@....        ",
"      ....++@@@@@@@@@@@@@@@@@@@@@@@@@@@@@@@@@@@@@@@@++....      ",
"      ....++@@@@@@@@@@@@@@@@@@@@@@@@@@@@@@@@@@@@@@@@++....      ",
"      ....@@@@@@@@@@@@@@@@@@@@@@@@@@@@@@@@@@@@@@@@@@@@....      ",
"      ....@@@@@@@@@@@@@@@@@@@@@@@@@@@@@@@@@@@@@@@@@@@@....      ",
"    ....++@@@@@@@@@@@@@@@@@@@@@@@@@@@@@@@@@@@@@@@@@@@@++....    ",
"    ....++@@@@@@@@@@@@@@@@@@@@@@@@@@@@@@@@@@@@@@@@@@@@++....    ",
"    ....++@@@@........@@@@@@@@@@@@@@@@@@@@........@@@@++....    ",
"    ....++@@@@........@@@@@@@@@@@@@@@@@@@@........@@@@++....    ",
"    ....++@@..####......@@@@@@@@@@@@@@@@..####......@@++....    ",
"    ....++@@..####......@@@@@@@@@@@@@@@@..####......@@++....    ",
"    ....++++..####......@@@@@@@@@@@@@@@@..####......++++....    ",
"    ....++++..####......@@@@@@@@@@@@@@@@..####......++++....    ",
"    ....$$++............@@............@@............++$$....    ",
"    ....$$++............@@............@@............++$$....    ",
"      ....++............@@..########..@@............++....      ",
"      ....++............@@..########..@@............++....      ",
"      ....$$++........%%@@............@@%%........++$$....      ",
"      ....$$++........%%@@............@@%%........++$$....      ",
"        ....++%%%%%%%%&&@@++........++@@&&++%%%%%%++....        ",
"        ....++%%%%%%%%&&@@++........++@@&&++%%%%%%++....        ",
"        ....$$&&&&&&&&@@@@@@@@@@@@@@@@@@&&@@&&&&&&$$....        ",
"        ....$$&&&&&&&&@@@@@@@@@@@@@@@@@@&&@@&&&&&&$$....        ",
"          ....%%&&&&@@@@@@@@@@@@@@@@@@@@@@@@&&&&%%....          ",
"          ....%%&&&&@@@@@@@@@@@@@@@@@@@@@@@@&&&&%%....          ",
"            ....%%&&++@@@@@@@@@@@@@@@@@@@@++&&%%....            ",
"            ....%%&&++@@@@@@@@@@@@@@@@@@@@++&&%%....            ",
"              ......%%++@@@@@@@@@@@@@@@@++%%......              ",
"              ......%%++@@@@@@@@@@@@@@@@++%%......              ",
"                ........$$++++++++++++$$........                ",
"                ........$$++++++++++++$$........                ",
"                    ........................                    ",
"                    ........................                    ",
"                        ................                        ",
"                        ................                        ",
"                                                                ",
"                                                                ",
"                                                                ",
"                                                                ",
"                                                                ",
"                                                                "};
