/* XPM */
static char * \\wsl_localhost\Ubuntu\home\luxojr\project\sol_bonus_main\sprite\health\empty_xpm[] = {
"45 45 11 1",
" 	c None",
".	c #080000",
"+	c #0A0001",
"@	c #1F1F1F",
"#	c #070101",
"$	c #090100",
"%	c #060100",
"&	c #090001",
"*	c #090003",
"=	c #070000",
"-	c #090000",
"                                             ",
"                                             ",
"                                             ",
"                                             ",
"          ......         ......              ",
"          ......         ......              ",
"          ......         ......              ",
"       +++@@@@@@###   ###@@@@@@$$$           ",
"       +++@@@@@@###   ###@@@@@@$$$           ",
"       +++@@@@@@###   ###@@@@@@$$$           ",
"    ...@@@%%%%%%@@@&&&@@@%%%%%%@@@+++        ",
"    ...@@@%%%%%%@@@&&&@@@%%%%%%@@@+++        ",
"    ...@@@%%%%%%@@@&&&@@@%%%%%%@@@+++        ",
" ...@@@%%%%%%%%%%%%@@@%%%%%%%%%%%%@@@...     ",
" ...@@@%%%%%%%%%%%%@@@%%%%%%%%%%%%@@@...     ",
" ...@@@%%%%%%%%%%%%@@@%%%%%%%%%%%%@@@...     ",
" ...@@@%%%%%%%%%%%%%%%%%%%%%%%%%%%@@@...     ",
" ...@@@%%%%%%%%%%%%%%%%%%%%%%%%%%%@@@...     ",
" ...@@@%%%%%%%%%%%%%%%%%%%%%%%%%%%@@@...     ",
" ...@@@%%%%%%%%%%%%%%%%%%%%%%%%%%%@@@###     ",
" ...@@@%%%%%%%%%%%%%%%%%%%%%%%%%%%@@@###     ",
" ...@@@%%%%%%%%%%%%%%%%%%%%%%%%%%%@@@###     ",
"    ...@@@%%%%%%%%%%%%%%%%%%%%%@@@***        ",
"    ...@@@%%%%%%%%%%%%%%%%%%%%%@@@***        ",
"    ...@@@%%%%%%%%%%%%%%%%%%%%%@@@***        ",
"       $$$@@@%%%%%%%%%%%%%%%@@@===           ",
"       $$$@@@%%%%%%%%%%%%%%%@@@===           ",
"       $$$@@@%%%%%%%%%%%%%%%@@@===           ",
"          ---@@@%%%%%%%%%@@@...              ",
"          ---@@@%%%%%%%%%@@@...              ",
"          ---@@@%%%%%%%%%@@@...              ",
"             ...@@@%%%@@@...                 ",
"             ...@@@%%%@@@...                 ",
"             ...@@@%%%@@@...                 ",
"                ###@@@###                    ",
"                ###@@@###                    ",
"                ###@@@###                    ",
"                   &&&                       ",
"                   &&&                       ",
"                   &&&                       ",
"                                             ",
"                                             ",
"                                             ",
"                                             ",
"                                             "};
