/* XPM */
static char * \\wsl_localhost\Ubuntu\home\luxojr\project\sol_bonus_main\sprite\health\full_xpm[] = {
"45 45 22 1",
" 	c None",
".	c #080000",
"+	c #0A0001",
"@	c #1F1F1F",
"#	c #070101",
"$	c #090100",
"%	c #E80002",
"&	c #090001",
"*	c #FFFFFF",
"=	c #F69679",
"-	c #E50102",
";	c #E80000",
">	c #E60100",
",	c #E40000",
"'	c #790000",
")	c #E90101",
"!	c #E60003",
"~	c #E60000",
"{	c #E60002",
"]	c #090003",
"^	c #070000",
"/	c #090000",
"                                             ",
"                                             ",
"                                             ",
"          ......         ......              ",
"          ......         ......              ",
"          ......         ......              ",
"       +++@@@@@@###   ###@@@@@@$$$           ",
"       +++@@@@@@###   ###@@@@@@$$$           ",
"       +++@@@@@@###   ###@@@@@@$$$           ",
"    ...@@@%%%%%%@@@&&&@@@%%%%%%@@@+++        ",
"    ...@@@%%%%%%@@@&&&@@@%%%%%%@@@+++        ",
"    ...@@@%%%%%%@@@&&&@@@%%%%%%@@@+++        ",
" ...@@@%%%***===%%%@@@%%%===---%%%@@@...     ",
" ...@@@%%%***===%%%@@@%%%===---%%%@@@...     ",
" ...@@@%%%***===%%%@@@%%%===---%%%@@@...     ",
" ...@@@;;;===>>>,,,%%%---;;;%%%;;;@@@...     ",
" ...@@@;;;===>>>,,,%%%---;;;%%%;;;@@@...     ",
" ...@@@;;;===>>>,,,%%%---;;;%%%;;;@@@...     ",
" ...@@@''';;;)))>>>!!!~~~;;;;;;'''@@@###     ",
" ...@@@''';;;)))>>>!!!~~~;;;;;;'''@@@###     ",
" ...@@@''';;;)))>>>!!!~~~;;;;;;'''@@@###     ",
"    ...@@@''';;;~~~;;;{{{;;;'''@@@]]]        ",
"    ...@@@''';;;~~~;;;{{{;;;'''@@@]]]        ",
"    ...@@@''';;;~~~;;;{{{;;;'''@@@]]]        ",
"       $$$@@@''';;;~~~;;;'''@@@^^^           ",
"       $$$@@@''';;;~~~;;;'''@@@^^^           ",
"       $$$@@@''';;;~~~;;;'''@@@^^^           ",
"          ///@@@''';;;'''@@@...              ",
"          ///@@@''';;;'''@@@...              ",
"          ///@@@''';;;'''@@@...              ",
"             ...@@@'''@@@...                 ",
"             ...@@@'''@@@...                 ",
"             ...@@@'''@@@...                 ",
"                ###@@@###                    ",
"                ###@@@###                    ",
"                ###@@@###                    ",
"                   &&&                       ",
"                   &&&                       ",
"                   &&&                       ",
"                                             ",
"                                             ",
"                                             ",
"                                             ",
"                                             ",
"                                             "};
