/* XPM */
static char *result[] = {
/* columns rows colors chars-per-pixel */
"64 64 89 1 ",
"  c #060607",
". c #070708",
"X c #141516",
"o c #17191A",
"O c #151718",
"+ c #1B1B1C",
"@ c #0F0F10",
"# c #1E1F20",
"$ c #0B0C0D",
"% c #2F3030",
"& c #373838",
"* c #3A3B3B",
"= c #353535",
"- c #4C4C4C",
"; c #474848",
": c #4F5050",
"> c #2A2B2B",
", c #363738",
"< c #444444",
"1 c #1F2021",
"2 c #272829",
"3 c gray32",
"4 c #2E2F30",
"5 c #5C5B5A",
"6 c #7D7C7C",
"7 c #747372",
"8 c #818181",
"9 c #7B7773",
"0 c #5E5954",
"q c #3F4040",
"w c #6E6761",
"e c #646363",
"r c #6B635D",
"t c #64615E",
"y c #41403F",
"u c #222323",
"i c #716A63",
"p c #221D1D",
"a c #35211E",
"s c #3A211E",
"d c #3B2421",
"f c #241719",
"g c #241917",
"h c #2B1618",
"j c #442C26",
"k c #331B1A",
"l c #352522",
"z c #2A1D1B",
"x c #492927",
"c c #522E2C",
"v c #54312E",
"b c #4E2D2B",
"n c #361619",
"m c #3A191B",
"M c #6C4138",
"N c #70443A",
"B c #5A3931",
"V c #171817",
"C c #4D302B",
"Z c #633C35",
"A c #5D3631",
"S c #38171A",
"D c #694037",
"F c #5A332F",
"G c #472C29",
"H c #26211F",
"J c #674137",
"K c #693F37",
"L c #563630",
"P c #736F6A",
"I c #494644",
"U c #432222",
"Y c gray42",
"T c #625B55",
"R c #7C7874",
"E c #4A2726",
"W c #292524",
"Q c #58534E",
"! c #4A4846",
"~ c #362925",
"^ c #2B201C",
"/ c #625E5B",
"( c #3A2E2D",
") c #403D3C",
"_ c #73716F",
"` c #39302D",
"' c #514E4B",
"] c #79746F",
"[ c #3F2B25",
/* pixels */
" .XoooXXooooooooOoooooooooooooooooooooooooooooooooooooooXXoooO..",
"  X+oo@.ooo#ooo#o+oo+ooooo++oooo+oooo++oO++oooooooo#oooo$$o+oO  ",
".$%&*=X@%*--**;:>o%*::*,-:::<,,,>>=,***=>>>>+1,=2=::3-#o$X=,&4$.",
"o+;3:;21<5665:77=#<5665:78690:::q*-3:::-&*&&#2-;,-666w1oO2-:3;+o",
"o+&qqq11<3ww<;er>1*;tw335555;qqq**qyqqqq&**,#u*q*qeiw0#oO2*q<&oo",
"oo=&*,1#<333**--2+=*:333q******&**&&*****,*,#1,&*q333-#oo1,&&=+o",
"@@122u+#&<<<**<quou>&*&&>2u222u22u2222212222o1=***<q;<+oo+2221@@",
"..XoXOo+=**&**&=pX+X++++OoooOOooOOOOOOOoOOOOOu,*****&&+oooOOXX  ",
"..Xou>>=>>2>>2>2asdaffsdassssaghjjsssddkffdlfz>>>2>>>>++2>,4oX..",
"..X+=&-->O+oO++pxcvbnmccvvvvvbnmMNBvvvvbmmccmk+VO+O+OOou,<3;1X..",
"..Xp&<;<2+ldlsCvBZBAsSccBAAAvbnmDNZFBFvcxGccmmdddddldl+H,<:;1X..",
" .X+;3<=1+ccvvDNNNNJdmbcMNNJvxnmMNNNMJvvvvccmdcccvvccc+u,q3;1X..",
" .X1;3<=upbvBJMNNNNMsnccKNNDvbnmDNNNMZBBBBccmmbLBBBBBL+u,<3<1X..",
" .X1;3<=u+bvDNNNNNNJdnccDNNDvbnmMNNNFFNNMDFcmdbAMNNMND1u,<3;1X..",
" .X2eP3I2+bvDNNNNNNJUnccDNNDvxnmMNNNMMNNNMLcmmvBNNNNND#u,*q*1X..",
"  X2Y9T->+cvMNNNNNNMsnccDNNJvbnmKNNNNNNNNMccSdcANNMNNDp1,&*%oX..",
" .X2YR0->+ccKNNNNNNDdSbvDNNDvbnmKNNNNNNNNKccmsbANNNNNMHu,q;*1X..",
" .X2YR0:>+ccKNNNNNNDUSbcDNNDFxnmKNKNNNNNNKvcmabANNNNND+u=<3;1X. ",
"  Xu5e-<2+cvNNNNNNZAmnccDNNJvxnmKNNNNNNNNNvcmmbANNNNND+u,<3;1X. ",
" .X#<3<=u+bvKNNNNKLESnccDNNJvbSmNNNNNNNNNKvvmabZNNNNNDHu=<3;uX. ",
"..XuTw-*W+bvKNNNNJvbnSLZMNNNJBsmKNNNNNNNNKFcSscANNNNNMp1=<3<1X. ",
"..XuY9T-2pccMNNNNDvbnmKMNNNNNMdmKNNNNNNNNNvcmsbANNNNMMpu=<3;1X. ",
"..XHQr3!2+cFMNNNNDvbSSKNNNNNNJsmKKNNNNNNQKvcmsbANNNNNMuu=<3;1X. ",
"..Xu<3;=u+bcMNNNNDvbnmKNNNNNNJskcFKNNNNNNKvcmsbZNNNNNM+u=<3;uX. ",
" .X1;3<=1+cvMNNNNJvbnSDNNNNNNDsmccKNNNNNNKFcmUZKNNNNNDu1=*q&1X..",
" .X1;3<=u+ccMNNNNDvbnSKNNNNNNDsmccKNNNNNNNvcmUKNNNNNNDpu&&&%oX. ",
"..X+&<*,u+bvMNNNNJvCnSKNNNNNNDsSccKNNNNNNKvcSUKNNNNNNDp1&&*=oX. ",
"..Xo%**,u+ccKNNNNJvbnSKNNNNNNMsSccKNNNNNNKvcmUKNNNNNMMp1&&*%oX. ",
"..Oo%**&u+ccMNNNNJvbnmKNNNNNNJsmcFKNNNNNNMFcmUMNNNNNNMuu=q;*+X..",
"..X+=&&,upccMNNNNJvbnmKNNNNNNKsScFKNNNNNNMvcmUDNNNMNNMp1=<3;uX..",
" .X+&;*=u+ccMNNNNJLbnmJNNNNNNJsSccKNNNNNNMLcmUDNNNNNNDpu,<3;1X..",
" .X1;3<,u+ccMNNNNMvCnmKNNNNNNJsmccKNNNNNNKccmUDNNNNNNM+1=<3;1X..",
" .X#;3<,u+cFMNNNNDxsjxMNNNNNNDxjUEJNMNNNNNccSUKNNNNNNDuu=<3;#X..",
" .Xu<:<=u+bcMNNNNDUmcvMNNNNNNDvcSmJNNNNNNMvcmUKNNNNNNMpu=<3<#X..",
" .X#;3<=u+ccKNNNNMUmcvMNNNNMZv~^hkvZNNNNNMccSUKNNNNNNDpu=<3;1X. ",
" .Xu<3<,1pccNNNNNDUmcvMNNNNDvxHoVgxvJNNNNMFcmUKNNNNNMDpu,<3;1X. ",
" .X1;3<=u+ccKNNNNKUmcvMNNNZvl~0ee0~aLZNNNNKZmUMNNNNNNK+u=<:;uX..",
" .XuI3<=1pccMNNNNDUmcvMNNMFCz296692zbFMNNNNMmUKNNNNNNMpu=<3<#X. ",
"..X1<3<,u+ccKNNNNKUmcvMNZL~^+u5ee/2+^lLZNNNMUUKNNNNNNMp1=<3;1X. ",
" .X1;3<=u+cvNNNNNKUSvvMMvCW1+u-::-uooHGvMNNNmUKNNNNNNDpu=<3;uX. ",
" .X#*;<y2+ccKNNNNMUmccZFl(T5>#*-;q#u&)~lBZNMUdAKNNNNMDpu=<3;#X  ",
" .Oo%*;:>+ccNNNNMKUmcccCW=7_%#&=,,#2--2pbvMDmmbANNNNMKpu=<:<uX. ",
" .Xo4*;:>+cvKNNNZvdmccl`/rT'2+u2u2o1&*<*~~vvmscANNNMBc+u,**=+X. ",
" .Xo%*;->+cvKNNNAbsmcc+>P]I=1oooooo1=y:!uobvmsCANNNKLC+u=&*=+X. ",
" .X#<:<*u+ccMNNNBbsmcb+20T=Wzzzz^zz^W4*&#+bcmsbANNNMMBp1=*;<#X..",
" .X#<3<=u+ccMNNNAcsmcb+u-;u+knnnnnng+#=%opbcmmcBNNNNNDpu,<3;1X..",
" .X#,y>#++ccMNNNZbsmKZp+,*<yuzxEnngWyq&=o+vcmdvANNNMAv+u=<3;1X..",
" .Xo4=#o++cvMNMNAbsmMDpo=&-->WccSn+>--&=opbcSsbANNNMcc+u=<3;1X..",
" .Xo%,#oo+cvKNNNZbkUMMkhH>*!t5`^fp);<*2HhkccmsbANNNMvc#1,<3;1X..",
" .X+%,u+opccKNNNACsmMMUkg#=y__=u+2-:*=1+mmccmdCANNNMcc+u,y:;1X..",
" .X#);&4#+cvKNNNFbsmMMCxkzH2IQYe&=<*2HzkBZvcmmbANNNMcc+u,*<*#X..",
" .Xu;3<&u+bvKNNNZbsmMDFvsk+#%<R7*,&=++kUDKccmdbANNNMcc+u,&&%VX..",
" .X#;3<=u+ccNNNNAbsmvvMJCja^H>**2uu2zkjGLLccmsbANNNKvc+H,**4VO  ",
" .Xu<:q=1#bvKNMNBbsmvvDMFxknV+OO++V+kmbLccvcSsbANNNKvc+u,**4VO  ",
" .X+=*%2opccFvFvvbsmccvvvcbbx[[jGjjbbcvcvcccmscvvvFvcb#u=**4VO. ",
" .Xo%=1VO#bccccvcbsmccvcvvccvvvcccccccccccccSsbcvccccb+u=*,4#X. ",
"..Xo##+oVVzzzfzzzz+pzzzzzzzzzzzzzppzpzzzzzzpf+zzzzzzzp#O####OX  ",
" .Xo+#oo1211u2u1u++OoXooO+H++ooo#+##1#u+##oo##ooooOOOXX#OOX###  ",
"XX>4*q12/e';eY-<;y%%4%4%4%*<=>%%<;<<<;<<<q%4q<=444444442##2=<*X@",
"oo=*--uWi9/376533-&===,=,&;;&=,&:33333333:q*::*,=,,,**=4##=q3;O#",
"oo=*yqu#=)<<0/-<<q21u111#u22u1uu<<<<<<;<<<**<*u####2<<u#o#=q;*#o",
"XX%,,=#OOo=&--*===1oooooooooooo+=,,,=,==,&,,,4#O#OO#--##O#=,,4XX",
"..#uuu#oV+uu>42uuuoooooo+ooooooo1uuuuuuWuuuuuu#OO#o#>>#Xo#uuu#  ",
"..XoooOoooooXooVoooooooooooooooooooooooOoooooOooOoOOoXX#oOOX#O  "
};
