/* XPM */
static char *_d22c9fd27aa4f87ea20de6dde6509032xcFQLxHh5Pl8Ewu[] = {
/* columns rows colors chars-per-pixel */
"148 125 12 1 ",
"  c None",
". c #080000",
"X c #B97371",
"o c #67979B",
"O c #67979C",
"+ c #68989C",
"@ c #CF9C9B",
"# c #9CC8CC",
"$ c #9CC8CD",
"% c #9DC9CD",
"& c #E3C6C5",
"* c white",
/* pixels */
"                                                                                                                                                    ",
"                                                                                                                                                    ",
"                                                                                                                                                    ",
"                                                                                                                                                    ",
"                                                                                                                                                    ",
"                                                                                                                                                    ",
"                                                                                                                                                    ",
"                                                                                                                                                    ",
"                                                                                                                                                    ",
"                                                                                                                                                    ",
"                                                                                                                                                    ",
"                                                                                                                                                    ",
"                                                                                                                                                    ",
"                                                                                                                                                    ",
"                                                                                                                                                    ",
"                                                                                                                                                    ",
"                                                                                                                                                    ",
"                                                                                                                                                    ",
"                                                                                                                                                    ",
"                                                                                                                                                    ",
"                                                                                                                                                    ",
"                                                                                                                                                    ",
"                                                                                                                                                    ",
"                                                                                                                                                    ",
"                                                                                                                                                    ",
"                                                                                                                                                    ",
"                                                                                                                                                    ",
"                                                                                                                                                    ",
"                                                                                                                                                    ",
"                                                                                                                                                    ",
"                                                                                                                                                    ",
"                                                                                                                                                    ",
"                                                                                                                                                    ",
"                                                                                                                                                    ",
"                                                                                                                                                    ",
"                                                                                                                                                    ",
"                                                                                                                                                    ",
"                                                                  ................                                                                  ",
"                                                                  ................                                                                  ",
"                                                              ........................                                                              ",
"                                                              ........................                                                              ",
"                                                          ........@@@@@@@@@@@@@@@@........                                                          ",
"                                                          ........@@@@@@@@@@@@@@@@........                                                          ",
"                                                        ......@@&&&&&&&&&&&&&&&&&&&&@@......                                                        ",
"                                                        ......@@&&&&&&&&&&&&&&&&&&&&@@......                                                        ",
"                                                      ....@@&&&&&&&&&&&&&&&&&&&&&&&&&&&&@@....                                                      ",
"                                                      ....@@&&&&&&&&&&&&&&&&&&&&&&&&&&&&@@....                                                      ",
"                                                    ....@@&&&&&&&&&&&&&&&&&&&&&&&&&&&&&&&&@@....                                                    ",
"                                                    ....@@&&&&&&&&&&&&&&&&&&&&&&&&&&&&&&&&@@....                                                    ",
"                                                  ....@@&&&&&&&&&&&&&&&&&&&&&&&&&&&&&&&&&&&&@@....                                                  ",
"                                                  ....@@&&&&&&&&&&&&&&&&&&&&&&&&&&&&&&&&&&&&@@....                                                  ",
"                                                  ....&&&&&&&&&&&&&&&&&&&&&&&&&&&&&&&&&&&&&&&&....                                                  ",
"                                                  ....&&&&&&&&&&&&&&&&&&&&&&&&&&&&&&&&&&&&&&&&....                                                  ",
"                                                ....@@&&&&&&&&&&&&&&&&&&&&&&&&&&&&&&&&&&&&&&&&@@....                                                ",
"                                                ....@@&&&&&&&&&&&&&&&&&&&&&&&&&&&&&&&&&&&&&&&&@@....                                                ",
"                                                ....&&&&&&&&&&&&&&&&&&&&&&&&&&&&&&&&&&&&&&&&&&&&....                                                ",
"                                                ....&&&&&&&&&&&&&&&&&&&&&&&&&&&&&&&&&&&&&&&&&&&&....                                                ",
"                                              ....@@&&&&&&&&&&&&&&&&&&&&&&&&&&&&&&&&&&&&&&&&&&&&@@....                                              ",
"                                              ....@@&&&&&&&&&&&&&&&&&&&&&&&&&&&&&&&&&&&&&&&&&&&&@@....                                              ",
"                                              ....@@&&@@........@@&&&&&&&&&&&&&&&&@@........@@&&@@....                                              ",
"                                              ....@@&&@@........@@&&&&&&&&&&&&&&&&@@........@@&&@@....                                              ",
"                                              ....@@&&..****......&&&&&&&&&&&&&&&&..****......&&@@....                                              ",
"                                              ....@@&&..****......&&&&&&&&&&&&&&&&..****......&&@@....                                              ",
"                                              ....@@@@..****......&&&&&&&&&&&&&&&&..****......@@@@....                                              ",
"                                              ....@@@@..****......&&&&&&&&&&&&&&&&..****......@@@@....                                              ",
"                                              ....XX@@............&&&&........&&&&............@@XX....                                              ",
"                                              ....XX@@............&&&&........&&&&............@@XX....                                              ",
"                                                ....@@............&&............&&............@@....                                                ",
"                                                ....@@............&&............&&............@@....                                                ",
"                                                ....XX@@........@@&&..********..&&@@........@@XX....                                                ",
"                                                ....XX@@........@@&&..********..&&@@........@@XX....                                                ",
"                                                  ....@@$##$#$@@&&&&............&&&&@@##$#$#@@....                                                  ",
"                                                  ....@@######@@&&&&............&&&&@@#####$@@....                                                  ",
"                                                  ....XX$$$$$$&&&&&&&&&&&&&&&&&&&&&&&&$$$$$$XX....                                                  ",
"                                                  ....XX$$$$$$&&&&&&&&&&&&&&&&&&&&&&&&$$$$$$XX....                                                  ",
"                                                    ....++##$$&&&&&&&&&&&&&&&&&&&&&&&&$#$$OO....                                                    ",
"                                                    ....++$$$$&&&&&&&&&&&&&&&&&&&&&&&&##$$oO....                                                    ",
"                                                      ....oO#$@@&&&&&&&&&&&&&&&&&&&&@@##oo....                                                      ",
"                                                      ....++##@@&&&&&&&&&&&&&&&&&&&&@@$#oo....                                                      ",
"                                                        ......oo@@&&&&&&&&&&&&&&&&@@Oo......                                                        ",
"                                                        ......oo@@&&&&&&&&&&&&&&&&@@OO......                                                        ",
"                                                          ........XX@@@@@@@@@@@@XX........                                                          ",
"                                                          ........XX@@@@@@@@@@@@XX........                                                          ",
"                                                            ............................                                                            ",
"                                                            ............................                                                            ",
"                                                          ....@@&&................&&@@....                                                          ",
"                                                          ....@@&&................&&@@....                                                          ",
"                                                        ....@@&&&&@@@@@@@@@@@@@@@@&&&&@@....                                                        ",
"                                                        ....@@&&&&@@@@@@@@@@@@@@@@&&&&@@....                                                        ",
"                                                        ....@@&&..@@&&&&&&&&&&&&@@..&&@@....                                                        ",
"                                                        ....@@&&..@@&&&&&&&&&&&&@@..&&@@....                                                        ",
"                                                        ....@@&&..&&&&&&&&&&&&&&&&..&&@@....                                                        ",
"                                                        ....@@&&..&&&&&&&&&&&&&&&&..&&@@....                                                        ",
"                                                          ........&&&&@@....@@&&&&........                                                          ",
"                                                          ........&&&&@@....@@&&&&........                                                          ",
"                                                            ......&&&&&&....@@&&&&......                                                            ",
"                                                            ......&&&&&&....@@&&&&......                                                            ",
"                                                              ......&&&&....@@&&......                                                              ",
"                                                              ......&&&&....@@&&......                                                              ",
"                                                                ....................                                                                ",
"                                                                ....................                                                                ",
"                                                                  ......    ......                                                                  ",
"                                                                  ......    ......                                                                  ",
"                                                                                                                                                    ",
"                                                                                                                                                    ",
"                                                                                                                                                    ",
"                                                                                                                                                    ",
"                                                                                                                                                    ",
"                                                                                                                                                    ",
"                                                                                                                                                    ",
"                                                                                                                                                    ",
"                                                                                                                                                    ",
"                                                                                                                                                    ",
"                                                                                                                                                    ",
"                                                                                                                                                    ",
"                                                                                                                                                    ",
"                                                                                                                                                    ",
"                                                                                                                                                    ",
"                                                                                                                                                    ",
"                                                                                                                                                    ",
"                                                                                                                                                    ",
"                                                                                                                                                    ",
"                                                                                                                                                    ",
"                                                                                                                                                    ",
"                                                                                                                                                    "
};
