/* XPM */
static char *result[] = {
/* columns rows colors chars-per-pixel */
"64 64 40 1 ",
"  c #734136",
". c #734135",
"X c #724136",
"o c #724035",
"O c #66392F",
"+ c #5B342B",
"@ c #5C342B",
"# c #64392F",
"$ c #703F35",
"% c #60362D",
"& c #63382E",
"* c #734036",
"= c #704034",
"- c #714035",
"; c #704035",
": c #734035",
"> c #724135",
", c #6F4035",
"< c #714135",
"1 c #6D4034",
"2 c #693F33",
"3 c #6A3F34",
"4 c #6D3F34",
"5 c #6B3F34",
"6 c #724036",
"7 c #6F4034",
"8 c #6E4034",
"9 c #6A3F33",
"0 c #6B3F33",
"q c #6C3F34",
"w c #653E32",
"e c #603D31",
"r c #633E32",
"t c #734336",
"y c #734335",
"u c #734236",
"i c #734436",
"p c #734536",
"a c #704135",
"s c white",
/* pixels */
"         .      .. .    X    X  oO+@+#$%+@@+&o   o*      X .    ",
"               .     X   X       o==--X-;;;--                   ",
"       :                   .  X..     .                         ",
"            X           .      >>                   XX X :    X ",
"            X              X                 .       X          ",
"..             . .       ...       XXX  >         .. X   .      ",
"                .         .        X .                     .    ",
"X        .         .                             .         .    ",
"            X           .    .         .  *                     ",
" XX        XX         X.  X   X                        .        ",
"   X X  .    X    .         X X    X  X -,,,,,,,,>;,,< X,,;.X  X",
"   >            *:                   .  122222223<422; >325>   .",
"  .      .  .X  .. .  .X   .      .  .  -;;;;;;;-><;;> X;;->  .X",
"XX XXX                XX                               X      XX",
"> X> >  . >. X *  > 6. X X .>..  > >. X X  > >>   X  > .  ..>  X",
">  X  X > X  X . .> X>   .  > >.>> >       X >> > 6  >   .. >  X",
"X.  .X     .    :X.    X..  ..XX>   .    .>       X  ..X X   .  ",
" X  .X  .. >  ..X X.   X     .    . >    . >>    .    .    .    ",
"         .    .     .       .      X     *      >.   X.  .      ",
"                       X                 .   X  X               ",
">7-  >   . X,888888<.        . ....         .        X  .  .   X",
";9;  X     X5222222;  XXX     >  .           X                X ",
"X-o         -------6XX025X            X X    X           X      ",
" .. :   .:  .   :. :*X818X:  .    . .o  .. *: >o * .* :.   o .: ",
".            .              X         X    X     *:    .       .",
"X                                                               ",
"                       ..              .      X*                ",
"                                    X X                      X X",
"  XX X              X       X       X X                X  X XXXX",
".    X.      .            .   X      ..X     X.    .   X  X     ",
"                .         .                        .            ",
"        . :  * .       ..       . .     >...      *  *          ",
"> .> .  . >. :  . > .> :   .>    . .. > .  :*..   .  .... > .> o",
">       >              6         o      XX      X  .      .     ",
" .  .   ..       . .   .*    .X .. X      *        .  .    .    ",
"    .           >      6         ..       . .         .       . ",
"X>X   X     .   .  X. .              .                        . ",
".    X              X     X          XX      Xq35> .    X       ",
"    .>     ....  :    .             .        <wer- .  ...  .  . ",
" X       X         6   X     X      X       XX;;;6    X    * XXX",
"                   *         *                   *              ",
"X                X       X       X      X    X      X       *   ",
"     ..                 .      X X                     X .      ",
"     X                                                          ",
"   X X    X               X X         X      X X        X    XXX",
"   X X.    .       .       .    .     X     .       .   .       ",
"                 X          X         X                X        ",
"    .  X       X   X X  X   X>    X  .      XX      X .       . ",
"     X              X       X      X  .      XX .    . .        ",
">       . ..   .. >      >. . X  > >    X  >   ..  X      .  >  ",
" .         .      *  X   ..         .      6   *>  >         .  ",
"     > X:*            **      X *      .        > X       ..   -",
"      ...    X                                  X ..      ..  >7",
"        X    X  .          .          X        ..             .<",
"        X .                .          X.     .            X     ",
"   XXX     XXX    .X      X .XX  XXX XX  X  X>     XX  XX XX   X",
"    X      X              X   X   X  X      X       X           ",
"               .    .                  tyt ut                 . ",
"   X  .                                ipi tt                   ",
"       .     X   *            X                        X X      ",
"       *                .    .  .          X     ..      ..     ",
"                 >-;a-X                                      X  ",
"     X    X      o8811-X    X      X              X  X X  X X  X",
".      .  .   .  .--=18;  ..   .    .      ..  .  .      .  .  X"
};
