/* XPM */
static char *result[] = {
/* columns rows colors chars-per-pixel */
"64 64 46 1 ",
"  c #251F1F",
". c #26201F",
"X c #272120",
"o c #2C2322",
"O c #322624",
"+ c #3A2723",
"@ c #362926",
"# c #3A2926",
"$ c #362A28",
"% c #3B2D2A",
"& c #3F302D",
"* c #422A25",
"= c #4D2D26",
"- c #412D29",
"; c #482F29",
": c #522F27",
"> c #552F28",
", c #43322E",
"< c #4E322C",
"1 c #553027",
"2 c #553129",
"3 c #5B362D",
"4 c #5F382F",
"5 c #463430",
"6 c #4A3632",
"7 c #4E3934",
"8 c #513B36",
"9 c #5F3830",
"0 c #563E39",
"q c #583F3A",
"w c #61372D",
"e c #64392F",
"r c #653A31",
"t c #6A3D32",
"y c #703F34",
"u c #57403A",
"i c #59403B",
"p c #6B4034",
"a c #60453F",
"s c #734136",
"d c #614640",
"f c #654943",
"g c #6A4D46",
"h c #6D4F48",
"j c #6F5049",
"k c #70514A",
/* pixels */
"ssssssssssssssssssssssssssssssssssssssssssssssssssssssssssssssss",
"ssssssssssssssssssssssssssssssssssssssssssssssssssssssssssssssss",
"ssssssssssssssssssssssssssssssssssssssssssssssssssssssssssssssss",
"sssssssssssssy2%*--%%--**-----,-,&upssp=**%---*--*--*%<pssssssss",
"ssssssssssssst* X XXXXXXXXXXX XX..;ssss+..............Opsssspsss",
"ssssssssst7236#o$%$%$%$$%%5%OoooO.&<31<@.@&&%%%%%%%&$o@29tssssss",
"sysssssss3XXXXO$5iuiiiiiifkd$$O@##O....@@6iiuuiiuiiu7@O.o3ssssss",
"ssssssstt;oXOO#%7iiiiiqiidhd5%$$@@OO...#-7iiiiiiuiiu7&$.o3ssssss",
"ssssssy;oo@#8qqqqqiqiiiiiiqahf%$@@@@@@@uuuuuiiiiiiiuiu8oo9ssysss",
"ssssyyt-XO%-qiqqiiiiiiiqqiqdhf5##@@@@@%uuuuuiuiiiiiuiu8oo9ssssss",
"sssst;$OO%78iqqiiiiqqiqiiiiidada,@@@@@%ahauuiahaiiiiii8oo8ysssss",
"sssst#XO@5qqiiiiqiiiiiiiqiiqiihhu@@@@@%gkauuiajjdiuuuu8oo9ssssss",
"sssst#X%67iqiiiiiiqiqiqiiiqiqidd&O@@@@%akhhaiiaaiiiqifiOo4ssssss",
"sssst#X5qiiqqiiqiqiiiiiiiiiiiiiq&@@%@@%gjjkaiiiiiiiidjf$orssssss",
"sssst#X5iiddiiiiiiiiiiiiiqqiiidd&@.@O@%ajhaaiiiiiidddi8oo4ssssss",
"sssst#X5qdhhiiuqiiqiqiqiiiii0ihh&....@%akaaiiiiiqqfhd#$Xo3ssssss",
"sssst$X5qdggiiiqiiiiiiiiiiqiidff&XXXo@@fkauqiqiiiadf0@@Xo9ssssss",
"sssst%X5iiiiiiqiiiqiiiqiiqiahf5%@@@@ooofkfiiiiuihh8%#@OXo3ssssss",
"sssst#X5qiiiiqiiqiiqiiiiiqqajf5O@@@@@Xofkaqiiqquhj7$@@@Xo9ssssss",
"sssst$X5iiiiiiiiiqqiqiqiiqqajf&$@@@@@@@$%0gfqagg65%O@@@Xo9ssssss",
"sssst#X5qiqiiiiiiqqiiiiiiqiahf&@@@@@@@@.X8jfqijh&@@@@@OXo3ssssss",
"sssst$X5iiqiqiiiiiiiiiiqqafaq7%@@@@@@@@oO&775688%$@@@@@Xo3ssssss",
"sssst+X5iiiiiiqqqiiiiiqiifha$@@@@@@@@$@@@oXo@@@@@@@@@@@Xo9ssssss",
"sssyt+X5qiiiiiiiiiiqiiiqidja%@@@@@$@@@@@$ooooO@$@@@@@@@Xo9ssssss",
"sssst$X5qqqiiiiiiiiiiiqiqdkd%@@@@@@@$@@@@@@O oO$@@+O@@@oo9ssssss",
"sssst#X5qqqiqiiiqiqiiqiiiafq#$@@@@@@@$@@@@@OXoO@@@@@@@@Xo8ssssss",
"sssst#X5iiqiiiiiiiiiiiiiq7&&@@@@@@@@@@$@@@@@@OooO$@@@@OXo3ssssss",
"sssst+ 5qiiiiiiqqiqiiiqiq6O@@@@@@@$@@@@+@@@@@OXXO@@@@@O O3ssssss",
"ssssy%X5iiiiiqiiiiiqiiiqi6@@@@@@@@O$@@@@@@@@@@OOXoO@OXO*;rssssss",
"sssst#X5iiiiqqqiqiiiqiiiq6@$@@@@@+$@@@@@@@@@@@$@oXo@@ O=>tssssss",
"sssst$X5iiqiiqiiiqiqiiqdd7O$@@@@@@@$@@@@@@@@@@@@OoOoo o=2tssssss",
"sssst#X5iiqiiqiiiiiiiiigk0@O@@@@@@@@@@@@@@@@@@@@$$oX  O=>tssssss",
"sspr9,$7iiiiaiiiiiiiiuugjuO@@@@@$@@@@+@@@@@@@@@@@@O...@*=essssss",
"ssrOoijfiiqakjauiiiuiiuhju@@@@@@@@@@O$@@@@@@@@@@@@@@@@@..4ssssss",
"ss9oOigiqiiiggaquiiuiiufguO@@@@@@@@+@@@@@+$@@@@@@@@@@@@.O2ppssss",
"ss9oX%,7iiuiaiiiiiiiiuu5%@@+@@@@@@$@@@@@$@@@@@@@@@@@@@$O@@@2ssss",
"ss9o.O$7qiquiuiiiuiiiii&@@@@@@@@$@@@@$@@@@@@+@@@@@@+$@@@@oX<ssss",
"ss9O.@$<iiiuiiqiiiiiifg,O@@@@@@$@@@@@O@@@@@@@$@@@@@@@@@@@oX2ssss",
"ss9o.O$7iiiiiqiiiiuiijj5@@@@@@+@@@@@@@@@@@@@@@$@@@@@@@@@OXX<ssss",
"ss9O.O$6qiqiiiqiuiiiihk5@@@@@@$$#@@@@@@@@,,-$$,,%@&,,@@@$oX<ssss",
"ys9oXO@6uiiiiiiuiiiqijk,@@@@@@@@@@@@@@@@%6u7@&80%O6u7@@$@XX<ssss",
"ssroX@@7aiiiuiqqqiiaaaa,@@@@@@@$@@@$@@@%&,8,%<0u<,,86-%$@oX<ssss",
"ssrOXO@ikfuuiqqqiiahf,%%+@$@@@@@@@@@@@%70,%,00i008,%,08$@oX2ssss",
"ss9oX@@0gfquqqqq00agf%@@@@@@$@@@@@%@@@@80,%,0iiiii,@,08%OXX6ssss",
"sseOX@@%%-%%%%%%%%%,%oo@@@@@@@$$6u,#@$@%%<00uuiiii086%%@$oX2ssss",
"ss4.XO@@@+@@@@+$@@@@OX.O@@@@@@@+7u5+@@@O$6iiqiqiiiii7@@@OoX<ysss",
"ssr;+OoO$$$$6,#$,,,@@OOooO@@@%,7,,%@@@%,70uiiiqiii7,565$$XX<psss",
"sst1:OXoO+$%uq,$6i7$O@@o.o@@O%8u,@@@@@#uuuuuuiiiuu,@,i8$$oX<ssss",
"sst2=o O+@@%66,,,76,,@@..OOO@%,7%@@@$@@670iuiiu0875-,8,#@oX<ssss",
"sst1:o.O@@@@@$8u,@,u8%%.....@$$@@@@@@@@@$6iqiuuu%@6i6@$$OoX2psss",
"sstw>+.+OO@@@%,0,O,77%@oo.ooOO@@@@@@$@@@+5888888,%686%%@@X.<ssss",
"ysyyt>:+.O@@@+$%%@@%$+@O@O..o..oO@@@+@@@$$%#%%%%705#,08$@oX2ssss",
"ssssy3:+.O$+@$+@%@@$@@$+@O......o@@@@@@@@@@@@@@@705O%u8%$oX<ysss",
"ssssy3:==*....o...o+@@@@@o......ooo@@@@@+@@@@@@@%%#@#,%$OoX<ssss",
"ssssy1>:1*........o@$@+%@O..O.....o@#$@@@@@@@@@$$@@@$@@@@XX<psss",
"ssssyte31=*+******+oO...o@%+***+**OOooo@@@@@+@oo@@@@@@@@$oX2ssss",
"sssssss31=:1:11=::*      +1:::::1:+....@$+@@@O .O@@@+$$+OoX<ssss",
"ssssssse311:===:=:*++++++*1133ww1>*++++OO+OOOOO+OOO@OOOOOO+2ysss",
"ssssssstp41=======::::::::13yysy3>>:::=. .. .O==o.......X*>wssss",
"sssssssspe11======:1:::::11wyyssw11::>:Oooo XO=:Ooooo.o.O*>essss",
"sssssssyysyypspsyyy1::1::wyyssssyyw:::1::::::::::=:=::=:::>esssp",
"sssssssssssssssssst111111wsysssssse:111:11::>11>11>>::::>>>rssss",
"sssssssssssyssssysyyttytyysyssssssytttttttttttttttttttttttttysss",
"sssssssssssssyssyyyyyysyyssysssssssyyssssyyyyysyyssyssyssyssssss"
};
