/* XPM */
static char * \\wsl_localhost\Ubuntu\home\luxojr\project\so_long\sprite\number\black\2_xpm[] = {
"26 35 2 1",
" 	c None",
".	c #362F2D",
"                          ",
"         ............     ",
"         ............     ",
"     ..................   ",
"     ..................   ",
"   ....................   ",
"   ....................   ",
" ..........      ......   ",
" ..........      ......   ",
" ........      ........   ",
" ........      ........   ",
" ......        ........   ",
" ......        ........   ",
" ....        ........     ",
" ....        ........     ",
"           ........       ",
"           ........       ",
"         ..........       ",
"         ..........       ",
"       ..........         ",
"       ..........         ",
"       ........           ",
"       ........           ",
"     ........             ",
"     ........             ",
"     ................     ",
"     ................     ",
"   ....................   ",
"   ....................   ",
"   ...................... ",
"   ...................... ",
"     ......        ....   ",
"     ......        ....   ",
"                          ",
"                          "};
