/* XPM */
static char * C:\Users\mathi\OneDrive\Desktop\hit_xpm[] = {
"65 70 10 1",
" 	c None",
".	c #080000",
"+	c #CF9C9B",
"@	c #E3C6C5",
"#	c #B97371",
"$	c #9CC8CC",
"%	c #FFFFFF",
"&	c #9CC8CD",
"*	c #030000",
"=	c #000000",
"                                                                 ",
"                                                                 ",
"                                                                 ",
"                       ................                          ",
"                       ................                          ",
"                   ........................                      ",
"                   ........................                      ",
"               ........++++++++++++++++........                  ",
"               ........++++++++++++++++........                  ",
"             ......++@@@@@@@@@@@@@@@@@@@@++......                ",
"             ......++@@@@@@@@@@@@@@@@@@@@++......                ",
"           ....++@@@@@@@@@@@@@@@@@@@@@@@@@@@@++....              ",
"           ....++@@@@@@@@@@@@@@@@@@@@@@@@@@@@++....              ",
"         ....++@@@@@@@@@@@@@@@@@@@@@@@@@@@@@@@@++....            ",
"         ....++@@@@@@@@@@@@@@@@@@@@@@@@@@@@@@@@++....            ",
"       ....++@@@@@@@@@@@@@@@@@@@@@@@@@@@@@@@@@@@@++....          ",
"       ....++@@@@@@@@@@@@@@@@@@@@@@@@@@@@@@@@@@@@++....          ",
"       ....@@@@@@@@@@@@@@@@++@@@@++@@@@@@@@@@@@@@@@....          ",
"       ....@@@@@@@@@@@@@@@@++@@@@++@@@@@@@@@@@@@@@@....          ",
"     ....++@@@@@@@@@@@@@@@@++@@@@++@@@@@@@@@@@@@@@@++....        ",
"     ....++@@@@@@@@@@@@@@@@++@@@@++@@@@@@@@@@@@@@@@++....        ",
"     ....@@@@@@@@@@@@@@@@@@++@@@@++@@@@@@@@@@@@@@@@@@....        ",
"     ....@@@@@@@@@@@@@@@@@@++@@@@++@@@@@@@@@@@@@@@@@@....        ",
"   ....++@@@@@@@@@@@@@@@@++@@@@@@@@++@@@@@@@@@@@@@@@@++....      ",
"   ....++@@@@@@@@@@@@@@@@++@@@@@@@@++@@@@@@@@@@@@@@@@++....      ",
"   ....++@@@@@@@@@@@@@@@@@@@@@@@@@@@@@@@@@@@@@@@@@@@@++....      ",
"   ....++@@@@@@@@@@@@@@@@@@@@@@@@@@@@@@@@@@@@@@@@@@@@++....      ",
"   ....++@@@@@@@@@@@@@@++@@@@@@@@@@@@++@@@@@@@@@@@@@@++....      ",
"   ....++@@@@@@@@@@@@@@++@@@@@@@@@@@@++@@@@@@@@@@@@@@++....      ",
"   ....++++@@@@@@@@@@@@##@@@@@@@@@@@@##@@@@@@@@@@@@++++....      ",
"   ....++++@@@@@@@@@@@@##@@@@@@@@@@@@##@@@@@@@@@@@@++++....      ",
"   ....##++@@@@@@@@@@++##@@@@@@@@@@@@##++@@@@@@@@@@++##....      ",
"   ....##++@@@@@@@@@@++##@@@@@@@@@@@@##++@@@@@@@@@@++##....      ",
"     ....++..++++++++##..@@@@@@@@@@@@..##++++++++..++....        ",
"     ....++..++++++++##..@@@@@@@@@@@@..##++++++++..++....        ",
"     ....####..........++@@........@@++..........++##....        ",
"     ....####..........++@@........@@++..........++##....        ",
"       ................##............@@@@++$$$$$$++....          ",
"       ................##............@@@@++$$$$$$++....          ",
"       ........++@@++......%%%%%%%%..@@........&&##....          ",
"       ........++@@++......%%%%%%%%..@@........&&##....          ",
"         ....++@@@@@@++..............................            ",
"         ....++@@@@@@++..............................            ",
"         ....##++++++##..++++++++##....++@@++........            ",
"         ....##++++++##..++++++++##....++@@++........            ",
"           ....##++##....++++++++....++@@@@@@++....              ",
"           ....##++##....++++++++....++@@@@@@++....              ",
"           ............##########....++@@@@++##....              ",
"           ............##########....++@@@@++##....              ",
"             ..........................++++##....                ",
"             ..........................++++##....                ",
"           ......######........................                  ",
"           ......######........................                  ",
"           ....++@@@@##############..........                    ",
"           ....++@@@@##############..........                    ",
"         ....++@@@@@@++##++++++##......                          ",
"         ....++@@@@@@++##++++++##......                          ",
"         ....++@@@@@@####++++##......                            ",
"         ....++@@@@@@####++++##......                            ",
"         ......++++++....####......                              ",
"         ......++++++....####......                              ",
"           ..........######......                                ",
"           ..........######......                                ",
"             ........**====....                                  ",
"             ........**====....                                  ",
"                   ..........                                    ",
"                   ..........                                    ",
"                                                                 ",
"                                                                 ",
"                                                                 "};
