/* XPM */
static char * C:\Users\mathi\OneDrive\Desktop\rock_xpm[] = {
"64 64 5 1",
" 	c None",
".	c #272120",
"+	c #362926",
"@	c #59403B",
"#	c #70514A",
"                                                                ",
"                                                                ",
"                                                                ",
"                                                                ",
"                                    ..........                  ",
"                                    ..........                  ",
"                              ......++@@@@++++..                ",
"                              ......++@@@@++++..                ",
"                        ......++@@@@@@@@@@@@++++..              ",
"                        ......++@@@@@@@@@@@@++++..              ",
"                    ....++@@@@@@@@@@@@@@@@##++++..              ",
"                    ....++@@@@@@@@@@@@@@@@##++++..              ",
"                  ..++@@@@@@@@@@@@@@@@####++++++++..            ",
"                  ..++@@@@@@@@@@@@@@@@####++++++++..            ",
"                  ..@@@@@@@@@@@@@@####++++++++++++..            ",
"                  ..@@@@@@@@@@@@@@####++++++++++++..            ",
"                  ..++##@@@@@@####++++++++++++++++++..          ",
"                  ..++##@@@@@@####++++++++++++++++++..          ",
"            ......++@@++######++++@@@@++++++++++++++..          ",
"            ......++@@++######++++@@@@++++++++++++++..          ",
"          ..++@@@@@@@@##++++++@@@@@@@@@@++++++++++++..          ",
"          ..++@@@@@@@@##++++++@@@@@@@@@@++++++++++++..          ",
"        ..++@@@@@@@@@@@@++++++@@@@@@@@@@++++++++++++++..        ",
"        ..++@@@@@@@@@@@@++++++@@@@@@@@@@++++++++++++++..        ",
"        ..@@@@@@@@@@@@@@##++@@@@@@@@@@##++++++++++++++..        ",
"        ..@@@@@@@@@@@@@@##++@@@@@@@@@@##++++++++++++++..        ",
"      ..++@@@@@@@@@@@@@@@@++@@@@@@@@@@++++++++++++++++..        ",
"      ..++@@@@@@@@@@@@@@@@++@@@@@@@@@@++++++++++++++++..        ",
"      ..@@@@@@@@@@@@@@@@@@++@@@@@@@@##++++++++++++@@++..        ",
"      ..@@@@@@@@@@@@@@@@@@++@@@@@@@@##++++++++++++@@++..        ",
"    ..++@@@@@@@@@@@@@@@@##++@@@@@@##++++++++++++@@++++..        ",
"    ..++@@@@@@@@@@@@@@@@##++@@@@@@##++++++++++++@@++++..        ",
"    ..@@@@@@@@@@@@@@@@@@@@++++####++++++++++++++++@@++++..      ",
"    ..@@@@@@@@@@@@@@@@@@@@++++####++++++++++++++++@@++++..      ",
"    ..@@@@@@@@@@@@@@@@@@##++++++++++++++++++++++++++++++..      ",
"    ..@@@@@@@@@@@@@@@@@@##++++++++++++++++++++++++++++++..      ",
"    ..@@@@@@@@@@@@@@@@@@##++++++++++++++++++++++++++++++..      ",
"    ..@@@@@@@@@@@@@@@@@@##++++++++++++++++++++++++++++++..      ",
"    ..@@@@@@@@@@@@@@@@@@##++++++++++++++++++++++++++++++..      ",
"    ..@@@@@@@@@@@@@@@@@@##++++++++++++++++++++++++++++++..      ",
"    ..@@##@@@@@@@@@@@@@@++++++++++++++++++++++++++++++++..      ",
"    ..@@##@@@@@@@@@@@@@@++++++++++++++++++++++++++++++++..      ",
"    ..@@@@@@@@@@@@@@@@##++++++++++++++++++++++++++++++++..      ",
"    ..@@@@@@@@@@@@@@@@##++++++++++++++++++++++++++++++++..      ",
"    ..@@@@@@##@@@@@@##++@@++++++++++++++++++++++++++++++..      ",
"    ..@@@@@@##@@@@@@##++@@++++++++++++++++++++++++++++++..      ",
"      ..##@@@@@@@@##++++++++++++++++++++++++++++++++++++..      ",
"      ..##@@@@@@@@##++++++++++++++++++++++++++++++++++++..      ",
"      ..++##@@##++++@@++++++++++++++++++++++++++++++++..        ",
"      ..++##@@##++++@@++++++++++++++++++++++++++++++++..        ",
"        ..++++++++@@++@@++++++++++++++++++++++++++....          ",
"        ..++++++++@@++@@++++++++++++++++++++++++++....          ",
"          ....++++++++++++++++++++++++++++........              ",
"          ....++++++++++++++++++++++++++++........              ",
"              ............................                      ",
"              ............................                      ",
"                                                                ",
"                                                                ",
"                                                                ",
"                                                                ",
"                                                                ",
"                                                                ",
"                                                                ",
"                                                                "};
