/* XPM */
static char *result[] = {
/* columns rows colors chars-per-pixel */
"64 64 9 1 ",
"  c #020000",
". c #BA7472",
"X c #67989D",
"o c #D09D9C",
"O c #9DC9CD",
"+ c #9DC9CE",
"@ c #E4C7C6",
"# c white",
"$ c None",
/* pixels */
"$$$$$$$$$$$$$$$$$$$$$$$$$$$$$$$$$$$$$$$$$$$$$$$$$$$$$$$$$$$$$$$$",
"$$$$$$$$$$$$$$$$$$$$$$$$$$$$$$$$$$$$$$$$$$$$$$$$$$$$$$$$$$$$$$$$",
"$$$$$$$$$$$$$$$$$$$$$$$$$$$$$$$$$$$$$$$$$$$$$$$$$$$$$$$$$$$$$$$$",
"$$$$$$$$$$$$$$$$$$$$$$$$$$$$$$$$$$$$$$$$$$$$$$$$$$$$$$$$$$$$$$$$",
"$$$$$$$$$$$$$$$$$$$$$$$$                $$$$$$$$$$$$$$$$$$$$$$$$",
"$$$$$$$$$$$$$$$$$$$$$$$$                $$$$$$$$$$$$$$$$$$$$$$$$",
"$$$$$$$$$$$$$$$$$$$$                        $$$$$$$$$$$$$$$$$$$$",
"$$$$$$$$$$$$$$$$$$$$                        $$$$$$$$$$$$$$$$$$$$",
"$$$$$$$$$$$$$$$$        oooooooooooooooo        $$$$$$$$$$$$$$$$",
"$$$$$$$$$$$$$$$$        oooooooooooooooo        $$$$$$$$$$$$$$$$",
"$$$$$$$$$$$$$$      oo@@@@@@@@@@@@@@@@@@@@oo      $$$$$$$$$$$$$$",
"$$$$$$$$$$$$$$      oo@@@@@@@@@@@@@@@@@@@@oo      $$$$$$$$$$$$$$",
"$$$$$$$$$$$$    oo@@@@@@@@@@@@@@@@@@@@@@@@@@@@oo    $$$$$$$$$$$$",
"$$$$$$$$$$$$    oo@@@@@@@@@@@@@@@@@@@@@@@@@@@@oo    $$$$$$$$$$$$",
"$$$$$$$$$$    oo@@@@@@@@@@@@@@@@@@@@@@@@@@@@@@@@oo    $$$$$$$$$$",
"$$$$$$$$$$    oo@@@@@@@@@@@@@@@@@@@@@@@@@@@@@@@@oo    $$$$$$$$$$",
"$$$$$$$$    oo@@@@@@@@@@@@@@@@@@@@@@@@@@@@@@@@@@@@oo    $$$$$$$$",
"$$$$$$$$    oo@@@@@@@@@@@@@@@@@@@@@@@@@@@@@@@@@@@@oo    $$$$$$$$",
"$$$$$$$$    @@@@@@@@@@@@@@@@@@@@@@@@@@@@@@@@@@@@@@@@    $$$$$$$$",
"$$$$$$$$    @@@@@@@@@@@@@@@@@@@@@@@@@@@@@@@@@@@@@@@@    $$$$$$$$",
"$$$$$$    oo@@@@@@@@@@@@@@@@@@@@@@@@@@@@@@@@@@@@@@@@oo    $$$$$$",
"$$$$$$    oo@@@@@@@@@@@@@@@@@@@@@@@@@@@@@@@@@@@@@@@@oo    $$$$$$",
"$$$$$$    @@@@@@@@@@@@@@@@@@@@@@@@@@@@@@@@@@@@@@@@@@@@    $$$$$$",
"$$$$$$    @@@@@@@@@@@@@@@@@@@@@@@@@@@@@@@@@@@@@@@@@@@@    $$$$$$",
"$$$$    oo@@@@@@@@@@oo        oo@@@@@@@@@@@@@@@@@@@@@@oo    $$$$",
"$$$$    oo@@@@@@@@@@oo        oo@@@@@@@@@@@@@@@@@@@@@@oo    $$$$",
"$$$$    oo@@@@@@@@@@      ####  @@@@@@@@@@@@@@@@@@@@@@oo    $$$$",
"$$$$    oo@@@@@@@@@@      ####  @@@@@@@@@@@@@@@@@@@@@@oo    $$$$",
"$$$$    oo@@@@@@@@@@      ####  @@@@@@@@@@@@@@@@@@@@@@oo    $$$$",
"$$$$    oo@@@@@@@@@@      ####  @@@@@@@@@@@@@@@@@@@@@@oo    $$$$",
"$$$$        oo@@@@@@            @@@@@@@@@@@@@@@@@@@@@@oo    $$$$",
"$$$$        oo@@@@@@            @@@@@@@@@@@@@@@@@@@@@@oo    $$$$",
"$$$$          oo@@@@            @@@@@@@@@@@@@@@@@@@@oo..    $$$$",
"$$$$    ######  @@@@oo        oo@@@@@@@@@@@@@@@@@@@@oo    $$$$$$",
"$$$$    ######  @@@@oo        oo@@@@@@@@@@@@@@@@@@@@oo    $$$$$$",
"$$$$            @@@@@@OOOOOOOO@@@@@@@@@@@@@@@@@@@@oo..    $$$$$$",
"$$$$            @@@@@@OOOOOOOO@@@@@@@@@@@@@@@@@@@@oo..    $$$$$$",
"$$$$$$    oooooo@@@@@@++++++OO@@@@@@@@@@@@@@@@@@@@oo    $$$$$$$$",
"$$$$$$    oooooo@@@@@@++++++OO@@@@@@@@@@@@@@@@@@@@oo    $$$$$$$$",
"$$$$$$    ..oo@@@@@@@@++++OOOO@@@@@@@@@@@@@@@@@@oo..    $$$$$$$$",
"$$$$$$    ..oo@@@@@@@@++++OOOO@@@@@@@@@@@@@@@@@@oo..    $$$$$$$$",
"$$$$$$$$    ..oo@@@@@@++++++OO@@@@@@@@@@@@@@@@oo..    $$$$$$$$$$",
"$$$$$$$$    ..oo@@@@@@++++++OO@@@@@@@@@@@@@@@@oo..    $$$$$$$$$$",
"$$$$$$$$$$    ..oo@@@@++++++++@@@@@@@@@@@@oooo..    $$$$$$$$$$$$",
"$$$$$$$$$$    ..oo@@@@++++++++@@@@@@@@@@@@oooo..    $$$$$$$$$$$$",
"$$$$$$$$$$$$      ..ooXX++++++@@@@@@@@@@oo..      $$$$$$$$$$$$$$",
"$$$$$$$$$$$$      ..ooXX++++++@@@@@@@@@@oo..      $$$$$$$$$$$$$$",
"$$$$$$$$$$$$$$          XXXXXXoooooooo..        $$$$$$$$$$$$$$$$",
"$$$$$$$$$$$$$$          XXXXXXoooooooo..        $$$$$$$$$$$$$$$$",
"$$$$$$$$$$$$$$$$$$                          $$$$$$$$$$$$$$$$$$$$",
"$$$$$$$$$$$$$$$$$$                          $$$$$$$$$$$$$$$$$$$$",
"$$$$$$$$$$$$$$$$$$$$$$$$                $$$$$$$$$$$$$$$$$$$$$$$$",
"$$$$$$$$$$$$$$$$$$$$$$$$                $$$$$$$$$$$$$$$$$$$$$$$$",
"$$$$$$$$$$$$$$$$$$$$$$$$$$$$$$$$$$$$$$$$$$$$$$$$$$$$$$$$$$$$$$$$",
"$$$$$$$$$$$$$$$$$$$$$$$$$$$$$$$$$$$$$$$$$$$$$$$$$$$$$$$$$$$$$$$$",
"$$$$$$$$$$$$$$$$$$$$$$$$$$$$$$$$$$$$$$$$$$$$$$$$$$$$$$$$$$$$$$$$",
"$$$$$$$$$$$$$$$$$$$$$$$$$$$$$$$$$$$$$$$$$$$$$$$$$$$$$$$$$$$$$$$$",
"$$$$$$$$$$$$$$$$$$$$$$$$$$$$$$$$$$$$$$$$$$$$$$$$$$$$$$$$$$$$$$$$",
"$$$$$$$$$$$$$$$$$$$$$$$$$$$$$$$$$$$$$$$$$$$$$$$$$$$$$$$$$$$$$$$$",
"$$$$$$$$$$$$$$$$$$$$$$$$$$$$$$$$$$$$$$$$$$$$$$$$$$$$$$$$$$$$$$$$",
"$$$$$$$$$$$$$$$$$$$$$$$$$$$$$$$$$$$$$$$$$$$$$$$$$$$$$$$$$$$$$$$$",
"$$$$$$$$$$$$$$$$$$$$$$$$$$$$$$$$$$$$$$$$$$$$$$$$$$$$$$$$$$$$$$$$",
"$$$$$$$$$$$$$$$$$$$$$$$$$$$$$$$$$$$$$$$$$$$$$$$$$$$$$$$$$$$$$$$$",
"$$$$$$$$$$$$$$$$$$$$$$$$$$$$$$$$$$$$$$$$$$$$$$$$$$$$$$$$$$$$$$$$"
};
