/* XPM */
static char *result[] = {
/* columns rows colors chars-per-pixel */
"64 64 5 1 ",
"  c #080000",
". c #B97371",
"X c #CF9C9B",
"o c #E3C6C5",
"O c None",
/* pixels */
"OOOOOOOOOOOOOOOOOOOOOOOOOOOOOOOOOOOOOOOOOOOOOOOOOOOOOOOOOOOOOOOO",
"OOOOOOOOOOOOOOOOOOOOOOOOOOOOOOOOOOOOOOOOOOOOOOOOOOOOOOOOOOOOOOOO",
"OOOOOOOOOOOOOOOOOOOOOOOOOOOOOOOOOOOOOOOOOOOOOOOOOOOOOOOOOOOOOOOO",
"OOOOOOOOOOOOOOOOOOOOOOOOOOOOOOOOOOOOOOOOOOOOOOOOOOOOOOOOOOOOOOOO",
"OOOOOOOOOOOOOOOOOOOOOOOO                OOOOOOOOOOOOOOOOOOOOOOOO",
"OOOOOOOOOOOOOOOOOOOOOOOO                OOOOOOOOOOOOOOOOOOOOOOOO",
"OOOOOOOOOOOOOOOOOOOO                        OOOOOOOOOOOOOOOOOOOO",
"OOOOOOOOOOOOOOOOOOOO                        OOOOOOOOOOOOOOOOOOOO",
"OOOOOOOOOOOOOOOO        XXXXXXXXXXXXXXXX        OOOOOOOOOOOOOOOO",
"OOOOOOOOOOOOOOOO        XXXXXXXXXXXXXXXX        OOOOOOOOOOOOOOOO",
"OOOOOOOOOOOOOO      XXooooooooooooooooooooXX      OOOOOOOOOOOOOO",
"OOOOOOOOOOOOOO      XXooooooooooooooooooooXX      OOOOOOOOOOOOOO",
"OOOOOOOOOOOO    XXooooooooooooooooooooooooooooXX    OOOOOOOOOOOO",
"OOOOOOOOOOOO    XXooooooooooooooooooooooooooooXX    OOOOOOOOOOOO",
"OOOOOOOOOO    XXooooooooooooooooooooooooooooooooXX    OOOOOOOOOO",
"OOOOOOOOOO    XXooooooooooooooooooooooooooooooooXX    OOOOOOOOOO",
"OOOOOOOO    XXooooooooooooooooooooooooooooooooooooXX    OOOOOOOO",
"OOOOOOOO    XXooooooooooooooooooooooooooooooooooooXX    OOOOOOOO",
"OOOOOOOO    oooooooooooooooooooooooooooooooooooooooo    OOOOOOOO",
"OOOOOOOO    oooooooooooooooooooooooooooooooooooooooo    OOOOOOOO",
"OOOOOO    XXooooooooooooooooooooooooooooooooooooooooXX    OOOOOO",
"OOOOOO    XXooooooooooooooooooooooooooooooooooooooooXX    OOOOOO",
"OOOOOO    oooooooooooooooooooooooooooooooooooooooooooo    OOOOOO",
"OOOOOO    oooooooooooooooooooooooooooooooooooooooooooo    OOOOOO",
"OOOO    XXooooooooooooooooooooooooooooooooooooooooooooXX    OOOO",
"OOOO    XXooooooooooooooooooooooooooooooooooooooooooooXX    OOOO",
"OOOO    XXooooooooooooooooooooooooooooooooooooooooooooXX    OOOO",
"OOOO    XXooooooooooooooooooooooooooooooooooooooooooooXX    OOOO",
"OOOO    XXooooooooooooooooooooooooooooooooooooooooooooXX    OOOO",
"OOOO    XXooooooooooooooooooooooooooooooooooooooooooooXX    OOOO",
"OOOO    XXooooooooooooooooooooooooooooooooooooooooooooXX    OOOO",
"OOOO    XXooooooooooooooooooooooooooooooooooooooooooooXX    OOOO",
"OOOO    ..XXooooooooooooooooooooooooooooooooooooooooXX..    OOOO",
"OOOOOO    XXooooooooooooooooooooooooooooooooooooooooXX    OOOOOO",
"OOOOOO    XXooooooooooooooooooooooooooooooooooooooooXX    OOOOOO",
"OOOOOO    ..XXooooooooooooooooooooooooooooooooooooXX..    OOOOOO",
"OOOOOO    ..XXooooooooooooooooooooooooooooooooooooXX..    OOOOOO",
"OOOOOOOO    XXooooooooooooooooooooooooooooooooooooXX    OOOOOOOO",
"OOOOOOOO    XXooooooooooooooooooooooooooooooooooooXX    OOOOOOOO",
"OOOOOOOO    ..XXooooooooooooooooooooooooooooooooXX..    OOOOOOOO",
"OOOOOOOO    ..XXooooooooooooooooooooooooooooooooXX..    OOOOOOOO",
"OOOOOOOOOO    ..XXooooooooooooooooooooooooooooXX..    OOOOOOOOOO",
"OOOOOOOOOO    ..XXooooooooooooooooooooooooooooXX..    OOOOOOOOOO",
"OOOOOOOOOOOO    ..XXXXooooooooooooooooooooXXXX..    OOOOOOOOOOOO",
"OOOOOOOOOOOO    ..XXXXooooooooooooooooooooXXXX..    OOOOOOOOOOOO",
"OOOOOOOOOOOOOO      ..XXXXooooooooooooXXXX..      OOOOOOOOOOOOOO",
"OOOOOOOOOOOOOO      ..XXXXooooooooooooXXXX..      OOOOOOOOOOOOOO",
"OOOOOOOOOOOOOOOO        ..XXXXXXXXXXXX..        OOOOOOOOOOOOOOOO",
"OOOOOOOOOOOOOOOO        ..XXXXXXXXXXXX..        OOOOOOOOOOOOOOOO",
"OOOOOOOOOOOOOOOOOOOO                        OOOOOOOOOOOOOOOOOOOO",
"OOOOOOOOOOOOOOOOOOOO                        OOOOOOOOOOOOOOOOOOOO",
"OOOOOOOOOOOOOOOOOOOOOOOO                OOOOOOOOOOOOOOOOOOOOOOOO",
"OOOOOOOOOOOOOOOOOOOOOOOO                OOOOOOOOOOOOOOOOOOOOOOOO",
"OOOOOOOOOOOOOOOOOOOOOOOOOOOOOOOOOOOOOOOOOOOOOOOOOOOOOOOOOOOOOOOO",
"OOOOOOOOOOOOOOOOOOOOOOOOOOOOOOOOOOOOOOOOOOOOOOOOOOOOOOOOOOOOOOOO",
"OOOOOOOOOOOOOOOOOOOOOOOOOOOOOOOOOOOOOOOOOOOOOOOOOOOOOOOOOOOOOOOO",
"OOOOOOOOOOOOOOOOOOOOOOOOOOOOOOOOOOOOOOOOOOOOOOOOOOOOOOOOOOOOOOOO",
"OOOOOOOOOOOOOOOOOOOOOOOOOOOOOOOOOOOOOOOOOOOOOOOOOOOOOOOOOOOOOOOO",
"OOOOOOOOOOOOOOOOOOOOOOOOOOOOOOOOOOOOOOOOOOOOOOOOOOOOOOOOOOOOOOOO",
"OOOOOOOOOOOOOOOOOOOOOOOOOOOOOOOOOOOOOOOOOOOOOOOOOOOOOOOOOOOOOOOO",
"OOOOOOOOOOOOOOOOOOOOOOOOOOOOOOOOOOOOOOOOOOOOOOOOOOOOOOOOOOOOOOOO",
"OOOOOOOOOOOOOOOOOOOOOOOOOOOOOOOOOOOOOOOOOOOOOOOOOOOOOOOOOOOOOOOO",
"OOOOOOOOOOOOOOOOOOOOOOOOOOOOOOOOOOOOOOOOOOOOOOOOOOOOOOOOOOOOOOOO",
"OOOOOOOOOOOOOOOOOOOOOOOOOOOOOOOOOOOOOOOOOOOOOOOOOOOOOOOOOOOOOOOO"
};
