/* XPM */
static char *c54dc4da911344728a69107441284b88azMqtykP0bJscom6[] = {
/* columns rows colors chars-per-pixel */
"64 64 9 1 ",
"  c None",
". c #3F1700",
"X c #351518",
"o c #002631",
"O c #353F3F",
"+ c #532F2D",
"@ c #70443A",
"# c #544E4E",
"$ c #817B7B",
/* pixels */
"                                                                ",
"                                                                ",
"                                                                ",
"                                                                ",
"                                                                ",
"                                                                ",
"                                                                ",
"                                                                ",
"                                                                ",
"                                                                ",
"                                                                ",
"                                                                ",
"                                                                ",
"                                                                ",
"                                                                ",
"                                                                ",
"                .oo.oooooooooooooooooooooooo.oo.                ",
"                o##o#$#$o#$#$$##O###OOo#O$$oo##o                ",
"                oOOo##O#oO##OOOOOOOOOOoOO##ooOOo                ",
"                 oooOOOOoooooooooooooooOOOOoooo                 ",
"                 oO#oooo++X++++X@+++X+XoooooO#o                 ",
"                 o#Oo++@@@X+@@+X@@@+++X++++oO#o                 ",
"                 o#Oo+@@@@X+@@+X@@+@@+X+@@@oO#o                 ",
"                 o$#o+@@@@X+@@+X@@@@@+X+@@@oOOo                 ",
"                 o$#o+@@@@X+@@+X@@@@@+X+@@@oO#o                 ",
"                 o#Oo+@@@+X+@@+X@@@@@+X+@@@oO#o                 ",
"                 o$#o+@@@+X@@@@X@@@@@+X+@@@oO#o                 ",
"                 o#Oo+@@@+X@@@@X+@@@@+X+@@@oO#o                 ",
"                 o#Oo+@@@+X@@@@X+@@@@+X@@@@oOOo                 ",
"                 oOOo+@@@+X@@@@X+@@@@+X@@@@oOOo                 ",
"                 oOOo+@@@+X@@@@X+@@@@+X@@@@oO#o                 ",
"                 o#Oo+@@@+X@@@@X+@@@@+X@@@@oO#o                 ",
"                 o#Oo+@@@X+@@@@+X@@@@+X@@@@oO#o                 ",
"                 o#Oo+@@@X+@@@+oo+@@@+X@@@@oO#o                 ",
"                 o#Oo+@@@X+@@+o$$o+@@@X@@@@oO#o                 ",
"                 o#Oo+@@@X+@+oo##oo+@@X@@@@oO#o                 ",
"                 oO#o+@@@X++o$oOOo#o+@X+@@@oO#o                 ",
"                 oO#o+@@+X+o$OooooO#o+X+@@+oOOo                 ",
"                 o#Oo+@@+X+o#oXXXXoOo+X+@@@oO#o                 ",
"                 oOoo+@@+X@oO#o+Xo#Oo+X+@@+oO#o                 ",
"                 oOoo+@@+X@XoO$oo#OoX+X+@@+oO#o                 ",
"                 o#Oo+@@+X@+XoO$OOoX@+X+@@+oOOo                 ",
"                 o#Oo+@@+X+@+XooooX+++X+@@+oOOo                 ",
"                 oOoo++++X++++++++++++X++++oOOo                 ",
"                 oooooooooooooooooooooooooooooo                 ",
"                oO#o$#$##OOOO#OO#####O#OOOOOoO#o                ",
"                oOOooO#OOoooooooOOOOOOOooo#ooOOo                ",
"                .oooooooooooooooooooooooooooooo.                ",
"                                                                ",
"                                                                ",
"                                                                ",
"                                                                ",
"                                                                ",
"                                                                ",
"                                                                ",
"                                                                ",
"                                                                ",
"                                                                ",
"                                                                ",
"                                                                ",
"                                                                ",
"                                                                ",
"                                                                ",
"                                                                "
};
