/* XPM */
static char *a7bfa50851ad4aade727e2d990024124a6CjnVnqx2Q6ry7G[] = {
/* columns rows colors chars-per-pixel */
"64 64 9 1 ",
"  c None",
". c #3F1700",
"X c #351518",
"o c #002631",
"O c #353F3F",
"+ c #532F2D",
"@ c #70443A",
"# c #544E4E",
"$ c #817B7B",
/* pixels */
"                                                                ",
"                                                                ",
"                                                                ",
"                                                                ",
"                                                                ",
"                                                                ",
"                                                                ",
"                                                                ",
"                                                                ",
"                                                                ",
"                                                                ",
"                                                                ",
"                                                                ",
"                   .o.ooooooooooooooooooo.oo.                   ",
"                   o#o#$$o#$$$##O##OO#O$$o##o                   ",
"                   oOo###oO#OOOOOOOOOOO##oOOo                   ",
"                    ooOOOooooooooooooOOOOooo                    ",
"                    oOooo++X+++X@++X+ooooO#o                    ",
"                    o#Oo@@@X@@+X@@+++X++oO#o                    ",
"                    o#Oo@@@X@@+X@@+++X++oO#o                    ",
"                    o#Oo@@@X@@+X@+@@+X++oO#o                    ",
"                    o$#o@@@X@@+X@@@@+X++oOOo                    ",
"                    o$#o@@@X@@+X@@@@+X++oO#o                    ",
"                    o#Oo@@+X@@+X@@@@+X++oO#o                    ",
"                    o$#o@@+X@@@X@@@@+X++oO#o                    ",
"                    o$#o@@+X@@@X@@@@+X@+oO#o                    ",
"                    o#Oo@@+X@@@X+@@@+X@+oO#o                    ",
"                    o#Oo@@+X@@@X+@@@+X@+oOOo                    ",
"                    oOOo@@+X@@@X+@@@+X@+oOOo                    ",
"                    oOOo@@+X@@@X+@@@+X@@oO#o                    ",
"                    o#Oo@@+X@@@X+@@@+X@@oO#o                    ",
"                    o#Oo@@+X@@@X+@@@+X@+oO#o                    ",
"                    o#Oo@@X+@@@+X@@@+X@@oO#o                    ",
"                    o#Oo@@X+@@+o+@@@+X@@oO#o                    ",
"                    o#Oo@@X+@+o$o+@@@X@@oO#o                    ",
"                    o#Oo@@X++oo#oo+@@X@@oO#o                    ",
"                    oO#o@@X+o$oOo#o+@X+@oO#o                    ",
"                    oO#o@+Xo$OoooO#o+X+@oOOo                    ",
"                    oO#o@+Xo$OoXoO#o+X+@oOOo                    ",
"                    o#Oo@+Xo#oXXXoOo+X+@oO#o                    ",
"                    oOoo@+XoO#o+o#Oo+X+@oO#o                    ",
"                    oOoo@+X@oO$oOOoX+X+@oO#o                    ",
"                    o#Oo@+X@XoO$OoX@+X++oOOo                    ",
"                    o#Oo@+X++XoooX+++X++oOOo                    ",
"                    o#Oo@+X++++++++++X+@oOOo                    ",
"                    oOoo++X++++++++++X++oOOo                    ",
"                   ooooooooooooooooooooooooo                    ",
"                   o#o$###OOO#OO####OOOOOoO#o                   ",
"                   oOooOOOooooooOOOOOooo#oOOo                   ",
"                   .oooooooooooooooooooooooo.                   ",
"                                                                ",
"                                                                ",
"                                                                ",
"                                                                ",
"                                                                ",
"                                                                ",
"                                                                ",
"                                                                ",
"                                                                ",
"                                                                ",
"                                                                ",
"                                                                ",
"                                                                ",
"                                                                "
};
