/* XPM */
static char *_9d8b4cdd41645cadfb9f957c48091dfpxgiT9A1c33jXWqr[] = {
/* columns rows colors chars-per-pixel */
"64 64 9 1 ",
"  c None",
". c #3F1700",
"X c #351518",
"o c #002631",
"O c #353F3F",
"+ c #532F2D",
"@ c #70443A",
"# c #544E4E",
"$ c #817B7B",
/* pixels */
"                                                                ",
"                                                                ",
"                                                                ",
"                                                                ",
"                                                                ",
"                                                                ",
"                                                                ",
"                                                                ",
"                                                                ",
"                                                                ",
"                                                                ",
"                                                                ",
"                                                                ",
"                                                                ",
"                                                                ",
"                                                                ",
"                                                                ",
"                                                                ",
"                                                                ",
"              ooooooooooooooooooooooooooooooooooo               ",
"             o##o#$$#$o#$$#$$###O###OOOo#O$$$oo##o              ",
"             oOOo###O#oO###OOOOOOOOOOOOoOO###ooOOo              ",
"              oooOOOOOooooooooooooooooooOOOOOoooo               ",
"              oO#ooooo+++X+++++X@+++X++XooooooO#o               ",
"              o#Oo++@@@@@X+@@++X@@+@@++X+++++oO#o               ",
"              o$#o+@@@@@@X+@@@+X@@@@@++X+@@@+oOOo               ",
"              o$#o+@@@@@@X+@@@+X@@@@@@+X+@@@+oO#o               ",
"              o#Oo+@@@@@+X+@@@+X@@@@@@+X+@@@@oO#o               ",
"              o#Oo+@@@@@+X@@@@@X+@@@@@+X+@@@@oO#o               ",
"              o#Oo+@@@@@+X@@@@@X+@@@@@+X@@@@@oOOo               ",
"              oOOo+@@@@+X+@@@@@X+@@@@@+X@@@@@oOOo               ",
"              oOOo+@@@@+X+@@@@@X+@@@@@+X@@@@@oO#o               ",
"              o#Oo+@@@@+X+@@@+ooo+@@@@+X@@@@@oO#o               ",
"              o#Oo+@@@@X+@@@+o$$$o+@@@+X@@@@@oO#o               ",
"              o#Oo+@@@@X+@@+oo###oo+@@@X@@@@@oO#o               ",
"              o#Oo+@@@@X+@+o$oOOOo#o+@@X@@@@@oO#o               ",
"              oO#o+@@@@X++o#oXoooXoOo@@X+@@@@oO#o               ",
"              o#Oo+@@@+X++oO#o++Xo#Oo@+X+@@@@oO#o               ",
"              oOoo+@@@+X+@XoO$ooo#OoX@+X+@@@+oO#o               ",
"              oOoo+@@@+X@@+XoO$$OOoX@++X+@@@+oO#o               ",
"              o#Oo+@@@+X@@++XoooooX++++X+@@++oOOo               ",
"              oOoo+++++X+++++++++++++++X+++++oOOo               ",
"              ooooooooooooooooooooooooooooooooooo               ",
"             oO#o$##$##OOOOO#OOO#####OO#OOOOOOoO#o              ",
"             oOOooOO#OOoooooooooOOOOOOOOooo##ooOOo              ",
"             .ooooooooooooooooooooooooooooooooooo.              ",
"                                                                ",
"                                                                ",
"                                                                ",
"                                                                ",
"                                                                ",
"                                                                ",
"                                                                ",
"                                                                ",
"                                                                ",
"                                                                ",
"                                                                ",
"                                                                ",
"                                                                ",
"                                                                ",
"                                                                ",
"                                                                ",
"                                                                ",
"                                                                "
};
