/* XPM */
static char *_a7b833f8ef143b6c93158597e7c671fPeb06IYOgTut8Adp[] = {
/* columns rows colors chars-per-pixel */
"64 64 11 1 ",
"  c None",
". c #00000D",
"X c #1E0F15",
"o c #3F1700",
"O c #351518",
"+ c #002631",
"@ c #353F3F",
"# c #532F2D",
"$ c #70443A",
"% c #544E4E",
"& c #817B7B",
/* pixels */
"                                                                ",
"                                                                ",
"                                                                ",
"                                                                ",
"                                                                ",
"                                                                ",
"                                                                ",
"                                                                ",
"                                                                ",
"                                                                ",
"                                                                ",
"                                                                ",
"                                                                ",
"                                                                ",
"                                                                ",
"                                                                ",
"                o++o++++++++++++++++++++++++o++o                ",
"                +%%+%&%&+%&%&&%%@%%%@@+%@&&++%%+                ",
"                +@@+%%@%+@%%@@@@@@@@@@+@@%%++@@+                ",
"                 +++@@@@+++++++++++++++@@@@++++                 ",
"                 +@%++++##$$####$###O#O+++++@%+                 ",
"                 +%@+#$$$$$$$$$$$$$##$$$$$#+@%+                 ",
"                 +%@+$$$$$$$$$$$$$#$$$$$$$$+@%+                 ",
"                 +&%+OOOOO#OO##OOOOOOO#OOOO+@@+                 ",
"                 +&%+##O####O####O####O####+@%+                 ",
"                 +%@+###O###O####O###O#####+@%+                 ",
"                 +&%+.OOXOOOOXOOOXOOOXOOOO.+@%+                 ",
"                 +%@+..OOXOOOXOOOXOOXOOOO..+@%+                 ",
"                 +%@+...XX.XX.XX.XX.XXX....+@@+                 ",
"                 +@@+....XX.X.XX.X.XX......+@@+                 ",
"                 +@@+......................+@%+                 ",
"                 +%@+......................+@%+                 ",
"                 +%@+......................+@%+                 ",
"                 +%@+......................+@%+                 ",
"                 +%@+......................+@%+                 ",
"                 +%@+......................+@%+                 ",
"                 +@%+......................+@%+                 ",
"                 +@%+......................+@@+                 ",
"                 +%@+......................+@%+                 ",
"                 +@++......................+@%+                 ",
"                 +@++......................+@%+                 ",
"                 +%@+......................+@@+                 ",
"                 +%@+......................+@@+                 ",
"                 +@++......................+@@+                 ",
"                 ++++++++++++++++++++++++++++++                 ",
"                +@%+&%&%%@@@@%@@%%%%%@%@@@@@+@%+                ",
"                +@@++@%@@+++++++@@@@@@@+++%++@@+                ",
"                o++++++++++++++++++++++++++++++o                ",
"                                                                ",
"                                                                ",
"                                                                ",
"                                                                ",
"                                                                ",
"                                                                ",
"                                                                ",
"                                                                ",
"                                                                ",
"                                                                ",
"                                                                ",
"                                                                ",
"                                                                ",
"                                                                ",
"                                                                ",
"                                                                "
};
