/* XPM */
static char *_9bd0984bd164760e5372cfc3e35fac6puL6zVwJq2RsgEUm[] = {
/* columns rows colors chars-per-pixel */
"64 64 11 1 ",
"  c None",
". c #00000D",
"X c #1E0F15",
"o c #3F1700",
"O c #351518",
"+ c #002631",
"@ c #353F3F",
"# c #532F2D",
"$ c #70443A",
"% c #544E4E",
"& c #817B7B",
/* pixels */
"                                                                ",
"                                                                ",
"                                                                ",
"                                                                ",
"                                                                ",
"                                                                ",
"                                                                ",
"                                                                ",
"                                                                ",
"                                                                ",
"                                                                ",
"                                                                ",
"                                                                ",
"                                                                ",
"                                                                ",
"                                                                ",
"                                                                ",
"                                                                ",
"                                                                ",
"              ++ ++++++++++++++++++++++++++++  ++               ",
"             +%%+%&&%&+%&&%&&%%%@%%%@@@+%@&&&++%%+              ",
"             +@@+%%%@%+@%%%@@@@@@@@@@@@+@@%%%++@@+              ",
"              +++@@@@@++++++++++++++++++@@@@@++++               ",
"              +@%+++++##$$$#####$###O##O++++++@%+               ",
"              +%@+$$$$$$$$$$$$$$$$#$$$$$$$$$$+@%+               ",
"              +&%+OOOOOO##OO##OOOOOOOOO#OOOOO+@@+               ",
"              +&%+O##O#####O#####O#####O####O+@%+               ",
"              +%@+.O##O####O#####O###OO####O.+@%+               ",
"              +%@+...OOXOOOOXOOOOXOOXOOOOO...+@%+               ",
"              +%@+....XX..XX.XXX.XX.XXXX.....+@@+               ",
"              +@@+.....XXX.X.XXX.X.XX........+@@+               ",
"              +@@+...........................+@%+               ",
"              +%@+...........................+@%+               ",
"              +%@+...........................+@%+               ",
"              +%@+...........................+@%+               ",
"              +%@+...........................+@%+               ",
"              +@%+...........................+@%+               ",
"              +%@+...........................+@%+               ",
"              +@++...........................+@%+               ",
"              +@++...........................+@%+               ",
"              +%@+...........................+@@+               ",
"              +@++...........................+@@+               ",
"              +++++++++++++++++++++++++++++++++++               ",
"             +@%+&%%&%%@@@@@%@@@%%%%%@@%@@@@@@+@%+              ",
"             +@@++@@%@@+++++++++@@@@@@@@+++%%++@@+              ",
"             o+++++++++++++++++++++++++++++++++++o              ",
"                                                                ",
"                                                                ",
"                                                                ",
"                                                                ",
"                                                                ",
"                                                                ",
"                                                                ",
"                                                                ",
"                                                                ",
"                                                                ",
"                                                                ",
"                                                                ",
"                                                                ",
"                                                                ",
"                                                                ",
"                                                                ",
"                                                                ",
"                                                                "
};
