/* XPM */
static char *_4228c57ea004034d147825b5aacd01abWTcUjR1UyGcfclJ[] = {
/* columns rows colors chars-per-pixel */
"64 64 11 1 ",
"  c None",
". c #00000D",
"X c #1E0F15",
"o c #3F1700",
"O c #351518",
"+ c #002631",
"@ c #353F3F",
"# c #532F2D",
"$ c #70443A",
"% c #544E4E",
"& c #817B7B",
/* pixels */
"                                                                ",
"                                                                ",
"                                                                ",
"                                                                ",
"                                                                ",
"                                                                ",
"                                                                ",
"                                                                ",
"                                                                ",
"                                                                ",
"                                                                ",
"                                                                ",
"                                                                ",
"                   o+o+++++++++++++++++++++o                    ",
"                   +%+%%&+%%&&%@%%@@+@&&+%%+                    ",
"                   +@+%@%+@%@@@@@@@@+@%%+@@+                    ",
"                    ++@@@++++++++++++@@@+++                     ",
"                    +%+++##$###$##O#O++++%+                     ",
"                    +%@+$$$$$$$$$$#$$$$#+%+                     ",
"                    +%@+$$$$$$$$$$#$$$$#+%+                     ",
"                    +%@+$$$$$$$$$#$$$$$$+%+                     ",
"                    +&%+OOOOO#OOOOOO#OOO+@+                     ",
"                    +&%+O###O###O###O###+%+                     ",
"                    +%@+#O##O###O##O####+%+                     ",
"                    +&%+OXOOOXOOXOOXOOO.+%+                     ",
"                    +&%+OXOOOXOOXOOXOOO.+%+                     ",
"                    +%@+OOXOOXOOXOXOOO..+%+                     ",
"                    +%@+.XXXX.X.XXXXX...+@+                     ",
"                    +@@+..X.X.X.X.X.....+@+                     ",
"                    +@@+................+%+                     ",
"                    +%@+................+%+                     ",
"                    +%@+................+%+                     ",
"                    +%@+................+%+                     ",
"                    +%@+................+%+                     ",
"                    +%@+................+%+                     ",
"                    +%@+................+%+                     ",
"                    +@%+................+%+                     ",
"                    +@%+................+@+                     ",
"                    +@%+................+@+                     ",
"                    +%@+................+%+                     ",
"                    +@++................+%+                     ",
"                    +@++................+%+                     ",
"                    +%@+................+@+                     ",
"                    +%@+................+@+                     ",
"                    +%@+................+@+                     ",
"                    +@++................+@+                     ",
"                    +++++++++++++++++++++++                     ",
"                   +%+&&%%@@@%@%%%%@%@@@@@%+                    ",
"                   +@++%@@+++++@@@@@@++%+@@+                    ",
"                   o+++++++++++++++++++++++o                    ",
"                                                                ",
"                                                                ",
"                                                                ",
"                                                                ",
"                                                                ",
"                                                                ",
"                                                                ",
"                                                                ",
"                                                                ",
"                                                                ",
"                                                                ",
"                                                                ",
"                                                                ",
"                                                                "
};
