/* XPM */
static char *result[] = {
/* columns rows colors chars-per-pixel */
"100 60 3 1 ",
"  c #362F2D",
". c #9E9897",
"X c None",
/* pixels */
"XXXXXXXXXXXXXXXXXXXXXXXXXXXXXXXXXXXXXXXXXXXXXXXXXXXXXXXXXXXXXXXXXXXXXXXXXXXXXXXXXXXXXXXXXXXXXXXXXXXX",
"XXXXXXXXXXXXXXXXXXXXXXXXXXXXXXXXXXXXXXXXXXXXXXXXXXXXXXXXXXXXXXXXXXXXXXXXXXXXXXXXXXXXXXXXXXXXXXXXXXXX",
"XXXXXXXXXXXXXXXXXXXXXXXXXXXXXXXXXXXXXXXXXXXXXXXXXXXXXXXXXXXXXXXXXXXXXXXXXXXXXXXXXXXXXXXXXXXXXXXXXXXX",
"XXXXXXXXXXXXXXXXXXXXXXXXXXXXXXXXXXXXXXXXXXXXXXXXXXXXXXXXXXXXXXXXXXXXXXXXXXXXXXXXXXXXXXXXXXXXXXXXXXXX",
"XXXXXXXXXXXXXXXXXXXXXXXXXXXXXXXXXXXXXXXXXXXXXXXXXXXXXXXXXXXXXXXXXXXXXXXXXXXXXXXXXXXXXXXXXXXXXXXXXXXX",
"XXXXXXXXXXXXXXXXXXXXXXXXXXXXXXXXXXXXXXXXXXXXXXXXXXXXXXXXXXXXXXXXXXXXXXXXXXXXXXXXXXXXXXXXXXXXXXXXXXXX",
"XXXXXXXXXXXXXXXXXXXXXXXXXXXXXXXXXXXXXXXXXXXXXXXXXXXXXXXXXXXXXXXXXXXXXXXXXXXXXXXXXXXXXXXXXXXXXXXXXXXX",
"XXXXXXXXXXXXXXXXXXXXXXXXXXXXXXXXXXXXXXXXXXXXXXXXXXXXXXXXXXXXXXXXXXXXXXXXXXXXXXXXXXXXXXXXXXXXXXXXXXXX",
"XXXXXXXXXXXXXXXXXXXXXXXXXXXXXXXXXXXXXXXXXXXXXXXXXXXXXXXXXXXXXXXXXXXXXXXXX..            ..XXXXXXXXXXX",
"XXXXXXXXXXXXXXXXXXXXXXXXXXXXXXXXXXXXXXXXXXXXXXXXXXXXXXXXXXXXXXXXXXXXXXXXX..            ..XXXXXXXXXXX",
"XXXXXXXXXXXXXXXXXXXXXXXXXXXXXXXXXXXXXXXXX..    XXXXXXXXXXXXXXXX                          XXXXXXXXXXX",
"XXXXXXXXXXXXXXXXXXXXXXXXXXXXXXXXXXXXXXXXX..    XXXXXXXXXXXXXXXX                          XXXXXXXXXXX",
"XXXXXXXXXXXXX..            ..      ..XXXX      XXXX    ..XXXXXX                          XXXXXXXXXXX",
"XXXXXXXXXXXXX..            ..      ..XXXX      XXXX    ..XXXXXX                          XXXXXXXXXXX",
"XXXXXXXXX..                          XX..      XXXX      XXXXXX..              ..XXXXXXXXXXXXXXXXXXX",
"XXXXXXXXX..                          XX..      XXXX      XXXXXX..              ..XXXXXXXXXXXXXXXXXXX",
"XXXXXXXXX                    ..      ..        XXXX      ..XXXXXXXXXXXX..      XXXXXXXXXXXXXXXXXXXXX",
"XXXXXXXXX                    ..      ..        XXXX      ..XXXXXXXXXXXX..      XXXXXXXXXXXXXXXXXXXXX",
"XXXXXXXXX              ..XXXXXX..            ..XXXX        XXXXXXXXXXXXXX      XXXXXXXXXXXXXXXXXXXXX",
"XXXXXXXXX              ..XXXXXX..            ..XXXX        XXXXXXXXXXXXXX      XXXXXXXXXXXXXXXXXXXXX",
"XXXXXXXXX      ..XXXXXXXXXXXXXXXX..          XXXXXX        XXXXXXXXXXXXXX      XXXXXXXXXXXXXXXXXXXXX",
"XXXXXXXXX      ..XXXXXXXXXXXXXXXX..          XXXXXX        XXXXXXXXXXXXXX      XXXXXXXXXXXXXXXXXXXXX",
"XXXXXXXXX      XXXXXXXXXXXXXXXXXXXX        ..XXXXXX        XXXXXXXXXXXX..      XXXXXXXXXXXXXXXXXXXXX",
"XXXXXXXXX      XXXXXXXXXXXXXXXXXXXX        ..XXXXXX        XXXXXXXXXXXX..      XXXXXXXXXXXXXXXXXXXXX",
"XXXXXXXXX      ..            XXXXXX          XXXXXX        XXXXXXXXXXXX        XXXXXXXXXXXXXXXXXXXXX",
"XXXXXXXXX      ..            XXXXXX          XXXXXX        XXXXXXXXXXXX        XXXXXXXXXXXXXXXXXXXXX",
"XXXXXXXXX                    XXXX..          ..XXXX        XXXXXXXXXXXX      ..XXXXXXXXXXXXXXXXXXXXX",
"XXXXXXXXX                    XXXX..          ..XXXX        XXXXXXXXXXXX      ..XXXXXXXXXXXXXXXXXXXXX",
"XXXXXXXXX                  ..XX..              ..XX        XXXXXXXXXXXX      XXXXXXXXXXXXXXXXXXXXXXX",
"XXXXXXXXX                  ..XX..              ..XX        XXXXXXXXXXXX      XXXXXXXXXXXXXXXXXXXXXXX",
"XXXXXXXXX      ..XXXXXXXXXXXXXX        ..        XX..      XXXXXXXXXXXX      XXXXXXXXXXXXXXXXXXXXXXX",
"XXXXXXXXX      ..XXXXXXXXXXXXXX        ..        XX..      XXXXXXXXXXXX      XXXXXXXXXXXXXXXXXXXXXXX",
"XXXXXXXXX      XXXXXXXXXXXXXX..        XX        XXXX      XXXXXXXXXXXX      XXXXXXXXXXXXXXXXXXXXXXX",
"XXXXXXXXX      XXXXXXXXXXXXXX..        XX        XXXX      XXXXXXXXXXXX      XXXXXXXXXXXXXXXXXXXXXXX",
"XXXXXXXXX      ..XX..                ..XX..      XXXX      XXXXXXXXXXXX      XXXXXXXXXXXXXXXXXXXXXXX",
"XXXXXXXXX      ..XX..                ..XX..      XXXX      XXXXXXXXXXXX      XXXXXXXXXXXXXXXXXXXXXXX",
"XXXXXXXXX..                          XXXXXX..    XXXX      XXXXXXXXXXXX      XXXXXXXXXXXXXXXXXXXXXXX",
"XXXXXXXXX..                          XXXXXX..    XXXX      XXXXXXXXXXXX      XXXXXXXXXXXXXXXXXXXXXXX",
"XXXXXXXXXXX                        ..XXXXXXXXXXXXXXXX..    XXXXXXXXXXXX      XXXXXXXXXXXXXXXXXXXXXXX",
"XXXXXXXXXXX                        ..XXXXXXXXXXXXXXXX..    XXXXXXXXXXXX      XXXXXXXXXXXXXXXXXXXXXXX",
"XXXXXXXXXXX..          ..XXXXXXXXXXXXXXXXXXXXXXXXXXXXXX    XXXXXXXXXXXX    ..XXXXXXXXXXXXXXXXXXXXXXX",
"XXXXXXXXXXX..          ..XXXXXXXXXXXXXXXXXXXXXXXXXXXXXX    XXXXXXXXXXXX    ..XXXXXXXXXXXXXXXXXXXXXXX",
"XXXXXXXXXXXXXXXXXXXXXXXXXXXXXXXXXXXXXXXXXXXXXXXXXXXXXXX..  XXXXXXXXXXXXXXXXXXXXXXXXXXXXXXXXXXXXXXXXX",
"XXXXXXXXXXXXXXXXXXXXXXXXXXXXXXXXXXXXXXXXXXXXXXXXXXXXXXX..  XXXXXXXXXXXXXXXXXXXXXXXXXXXXXXXXXXXXXXXXX",
"XXXXXXXXXXXXXXXXXXXXXXXXXXXXXXXXXXXXXXXXXXXXXXXXXXXXXXXXXXXXXXXXXXXXXXXXXXXXXXXXXXXXXXXXXXXXXXXXXXXX",
"XXXXXXXXXXXXXXXXXXXXXXXXXXXXXXXXXXXXXXXXXXXXXXXXXXXXXXXXXXXXXXXXXXXXXXXXXXXXXXXXXXXXXXXXXXXXXXXXXXXX",
"XXXXXXXXXXXXXXXXXXXXXXXXXXXXXXXXXXXXXXXXXXXXXXXXXXXXXXXXXXXXXXXXXXXXXXXXXXXXXXXXXXXXXXXXXXXXXXXXXXXX",
"XXXXXXXXXXXXXXXXXXXXXXXXXXXXXXXXXXXXXXXXXXXXXXXXXXXXXXXXXXXXXXXXXXXXXXXXXXXXXXXXXXXXXXXXXXXXXXXXXXXX",
"XXXXXXXXXXXXXXXXXXXXXXXXXXXXXXXXXXXXXXXXXXXXXXXXXXXXXXXXXXXXXXXXXXXXXXXXXXXXXXXXXXXXXXXXXXXXXXXXXXXX",
"XXXXXXXXXXXXXXXXXXXXXXXXXXXXXXXXXXXXXXXXXXXXXXXXXXXXXXXXXXXXXXXXXXXXXXXXXXXXXXXXXXXXXXXXXXXXXXXXXXXX",
"XXXXXXXXXXXXXXXXXXXXXXXXXXXXXXXXXXXXXXXXXXXXXXXXXXXXXXXXXXXXXXXXXXXXXXXXXXXXXXXXXXXXXXXXXXXXXXXXXXXX",
"XXXXXXXXXXXXXXXXXXXXXXXXXXXXXXXXXXXXXXXXXXXXXXXXXXXXXXXXXXXXXXXXXXXXXXXXXXXXXXXXXXXXXXXXXXXXXXXXXXXX",
"XXXXXXXXXXXXXXXXXXXXXXXXXXXXXXXXXXXXXXXXXXXXXXXXXXXXXXXXXXXXXXXXXXXXXXXXXXXXXXXXXXXXXXXXXXXXXXXXXXXX",
"XXXXXXXXXXXXXXXXXXXXXXXXXXXXXXXXXXXXXXXXXXXXXXXXXXXXXXXXXXXXXXXXXXXXXXXXXXXXXXXXXXXXXXXXXXXXXXXXXXXX",
"XXXXXXXXXXXXXXXXXXXXXXXXXXXXXXXXXXXXXXXXXXXXXXXXXXXXXXXXXXXXXXXXXXXXXXXXXXXXXXXXXXXXXXXXXXXXXXXXXXXX",
"XXXXXXXXXXXXXXXXXXXXXXXXXXXXXXXXXXXXXXXXXXXXXXXXXXXXXXXXXXXXXXXXXXXXXXXXXXXXXXXXXXXXXXXXXXXXXXXXXXXX",
"XXXXXXXXXXXXXXXXXXXXXXXXXXXXXXXXXXXXXXXXXXXXXXXXXXXXXXXXXXXXXXXXXXXXXXXXXXXXXXXXXXXXXXXXXXXXXXXXXXXX",
"XXXXXXXXXXXXXXXXXXXXXXXXXXXXXXXXXXXXXXXXXXXXXXXXXXXXXXXXXXXXXXXXXXXXXXXXXXXXXXXXXXXXXXXXXXXXXXXXXXXX",
"XXXXXXXXXXXXXXXXXXXXXXXXXXXXXXXXXXXXXXXXXXXXXXXXXXXXXXXXXXXXXXXXXXXXXXXXXXXXXXXXXXXXXXXXXXXXXXXXXXXX",
"XXXXXXXXXXXXXXXXXXXXXXXXXXXXXXXXXXXXXXXXXXXXXXXXXXXXXXXXXXXXXXXXXXXXXXXXXXXXXXXXXXXXXXXXXXXXXXXXXXXX"
};
