/* XPM */
static char * C:\Users\mathi\OneDrive\Documents\map_xpm[] = {
"80 40 2 1",
" 	c None",
".	c #362F2D",
"                                                                                ",
"                                                                                ",
"                                                                                ",
"        ..                 .....                                                ",
"        ..                 .....                                                ",
"      .......            .......                                                ",
"      ........          ........                                                ",
"      ........          ........                                                ",
"      ..........      ..........                                                ",
"      ..........      ..........                                                ",
"      ...........    ...........                                                ",
"      ..........................                                                ",
"      ..........................                                                ",
"      .....  ............  .....        ....                                    ",
"      .....     ........   .....      ........      ............                ",
"      .....     ........   .....      ........      ............                ",
"      .....      ....      .....      ..........    .............               ",
"      .....                .....     ....  .....    ....      ...               ",
"      .....                .....     ....  .....    ....      ...               ",
"      .....                .....     ............   .............               ",
"      .....                .....     ............   .............               ",
"      .....                .....     ............   .............               ",
"      .....                .....     ............   ........                    ",
"      .....                .....     ............   ........                    ",
"      .....                .....     ...      ...   .....                       ",
"      .....                .....     ...      ...     ...                       ",
"      .....                .....     ...      ...     ...                       ",
"      .....                .....                                                ",
"      .....                .....                                                ",
"                                                                                ",
"                                                                                ",
"                                                                                ",
"                                                                                ",
"                                                                                ",
"                                                                                ",
"                                                                                ",
"                                                                                ",
"                                                                                ",
"                                                                                ",
"                                                                                "};
