/* XPM */
static char *result[] = {
/* columns rows colors chars-per-pixel */
"50 50 3 1 ",
"  c #362F2D",
". c #9E9897",
"X c None",
/* pixels */
"XXXXXXXXXXXXXXXXXXXXXXXXXXXXXXXXXXXXXXXXXXXXXXXXXX",
"XXXXXXXXXXXXXXXXXXXXXXXXXXXXXXXXXXXXXXXXXXXXXXXXXX",
"XXXXXXXXXXXXXXXXXXXXXXXXXXXXXXXXXXXXXXXXXXXXXXXXXX",
"XXXXXXXXXXXXXXXXXXXXXXXXXXXXXXXXXXXXXXXXXXXXXXXXXX",
"XXXXXXXXXXXXXXXXXXXXXXXXXXXXXXXXXXXXXXXXXXXXXXXXXX",
"XXXXXXXXXXXXXXXXXXXXXXXXXXXXXXXXXXXXXXXXXXXXXXXXXX",
"XXXXXXXXXXXXXXXXXXXXXXXXXXXXXXXXXXXXXXXXXXXXXXXXXX",
"XXXXXXXXXXXXXXXXXXXXXXXXXXXXXXXXXXXXXXXXXXXXXXXXXX",
"XXXXXXXXXXXXXXXXXXXXXXXXXXXXXXXXXXXXXXXXXXXXXXXXXX",
"XXXXXXX..    ..XXXXXXXXXXXXXXXXXXXXXXXXXXXXXXXXXXX",
"XXXXXXX..    ..XXXXXXXXXXXXXXXXXXXXXXXXXXXXXXXXXXX",
"XXXXXXX          ..XXXXXXXXXXXXXXXXXXXXXXXXXXXXXXX",
"XXXXXXX          ..XXXXXXXXXXXXXXXXXXXXXXXXXXXXXXX",
"XXXXXXX            ..XXXXXXXXXXXXXXXXXXXXXXXXXXXXX",
"XXXXXXX            ..XXXXXXXXXXXXXXXXXXXXXXXXXXXXX",
"XXXXXXX                ..XXXXXXXXXXXXXXXXXXXXXXXXX",
"XXXXXXX                ..XXXXXXXXXXXXXXXXXXXXXXXXX",
"XXXXXXX                    ..XXXXXXXXXXXXXXXXXXXXX",
"XXXXXXX                    ..XXXXXXXXXXXXXXXXXXXXX",
"XXXXXXX..                    ..XXXXXXXXXXXXXXXXXXX",
"XXXXXXX..                    ..XXXXXXXXXXXXXXXXXXX",
"XXXXXXXXX                      XXXXXXXXXXXXXXXXXXX",
"XXXXXXXXX                      XXXXXXXXXXXXXXXXXXX",
"XXXXXXXXX                      XXXXXXXXXXXXXXXXXXX",
"XXXXXXXXX                      XXXXXXXXXXXXXXXXXXX",
"XXXXXXXXX                    ..XXXXXXXXXXXXXXXXXXX",
"XXXXXXXXX                    ..XXXXXXXXXXXXXXXXXXX",
"XXXXXXXXX..                ..XXXXXXXXXXXXXXXXXXXXX",
"XXXXXXXXX..                ..XXXXXXXXXXXXXXXXXXXXX",
"XXXXXXXXXXX              ..XXXXXXXXXXXXXXXXXXXXXXX",
"XXXXXXXXXXX              ..XXXXXXXXXXXXXXXXXXXXXXX",
"XXXXXXXXXXX            ..XXXXXXXXXXXXXXXXXXXXXXXXX",
"XXXXXXXXXXX            ..XXXXXXXXXXXXXXXXXXXXXXXXX",
"XXXXXXXXXXX          ..XXXXXXXXXXXXXXXXXXXXXXXXXXX",
"XXXXXXXXXXX          ..XXXXXXXXXXXXXXXXXXXXXXXXXXX",
"XXXXXXXXXXX        ..XXXXXXXXXXXXXXXXXXXXXXXXXXXXX",
"XXXXXXXXXXX        ..XXXXXXXXXXXXXXXXXXXXXXXXXXXXX",
"XXXXXXXXXXX..    ..XXXXXXXXXXXXXXXXXXXXXXXXXXXXXXX",
"XXXXXXXXXXX..    ..XXXXXXXXXXXXXXXXXXXXXXXXXXXXXXX",
"XXXXXXXXXXXXXXXXXXXXXXXXXXXXXXXXXXXXXXXXXXXXXXXXXX",
"XXXXXXXXXXXXXXXXXXXXXXXXXXXXXXXXXXXXXXXXXXXXXXXXXX",
"XXXXXXXXXXXXXXXXXXXXXXXXXXXXXXXXXXXXXXXXXXXXXXXXXX",
"XXXXXXXXXXXXXXXXXXXXXXXXXXXXXXXXXXXXXXXXXXXXXXXXXX",
"XXXXXXXXXXXXXXXXXXXXXXXXXXXXXXXXXXXXXXXXXXXXXXXXXX",
"XXXXXXXXXXXXXXXXXXXXXXXXXXXXXXXXXXXXXXXXXXXXXXXXXX",
"XXXXXXXXXXXXXXXXXXXXXXXXXXXXXXXXXXXXXXXXXXXXXXXXXX",
"XXXXXXXXXXXXXXXXXXXXXXXXXXXXXXXXXXXXXXXXXXXXXXXXXX",
"XXXXXXXXXXXXXXXXXXXXXXXXXXXXXXXXXXXXXXXXXXXXXXXXXX",
"XXXXXXXXXXXXXXXXXXXXXXXXXXXXXXXXXXXXXXXXXXXXXXXXXX",
"XXXXXXXXXXXXXXXXXXXXXXXXXXXXXXXXXXXXXXXXXXXXXXXXXX"
};
