/* XPM */
static char * \\wsl_localhost\Ubuntu\home\luxojr\project\sol_bonus_main\sprite\door\right\tile4_xpm[] = {
"128 100 14 1",
" 	c None",
".	c #30221D",
"+	c #422D25",
"@	c #54392F",
"#	c #795041",
"$	c #B0735D",
"%	c #201714",
"&	c #281D19",
"*	c #271B16",
"=	c #2E201A",
"-	c #2F221C",
";	c #33221C",
">	c #382720",
",	c #3D2A23",
"                                                                                                                                ",
"                                                                                      ........                                  ",
"                                                                                      ........                                  ",
"                                                                                ......++@@####..                                ",
"                                                                                ......++@@####..                                ",
"                                                                              ..++@@##..##$$@@..                                ",
"                                                                              ..++@@##..##$$@@..                                ",
"                                                                              ..++@@$$##$$$$@@..                                ",
"                                                                              ..++@@$$##$$$$@@..                                ",
"                                                                        ........++##$$$$$$$$@@..                                ",
"                                                                        ........++##$$$$$$$$@@..                                ",
"                                                                    ....@@@@++..++##$$$$$$$$@@..                                ",
"                                                                    ....@@@@++..++##$$$$$$$$@@..                                ",
"                                                                ....@@####@@++..++##$$$$$$$$@@..                                ",
"                                                                ....@@####@@++..++##$$$$$$$$@@..                                ",
"                                                            ....@@########@@++..++##$$$$$$$$@@..                                ",
"                                                            ....@@########@@++..++##$$$$$$$$@@..                                ",
"                                                        ....@@############@@++..++@@$$$$$$$$@@..                                ",
"                                                        ....@@############@@++..++@@$$$$$$$$@@..                                ",
"                                                    ....@@##@@@@@@######@@++++..++@@$$$$$$$$@@..                                ",
"                                                    ....@@##@@@@@@######@@++++..++@@$$$$$$$$@@..                                ",
"                                                ....@@############@@++++++++++..++@@$$$$$$$$@@..                                ",
"                                                ....@@############@@++++++++++..++@@$$$$$$$$@@..                                ",
"                                            ....@@##########@@++++++++++++++....++##$$$$$$##@@..                                ",
"                                            ....@@##########@@++++++++++++++....++##$$$$$$##@@..                                ",
"                                        ....@@##########@@++++++++++........%%..++##$$$$$$##++..                                ",
"                                        ....@@##########@@++++++++++........%%..++##$$$$$$##++..                                ",
"                                  ......@@########@@++++++++++......%%&&&&&&%%..++@@$$$$$$@@@@..                                ",
"                                  ......@@########@@++++++++++......%%&&&&&&%%..++@@$$$$$$@@@@..                                ",
"                              ......@@######@@++++++++++++....%%&&&&&&&&&&&&%%..++@@$$$$$$##@@..                                ",
"                              ......@@######@@++++++++++++....%%&&&&&&&&&&&&%%..++@@$$$$$$##@@..                                ",
"                              ..++..@@@@++++++++++++......%%&&&&&&&&&&&&&&&&%%..++@@$$$$$$##@@..                                ",
"                              ..++..@@@@++++++++++++......%%&&&&&&&&&&&&&&&&%%..++@@$$$$$$##@@..                                ",
"                              ..++..++++++++++......**&&&&&&&&&&&&&&&&&&&&&&%%..++@@$$$$$$##@@..                                ",
"                              ..++..++++++++++......**&&&&&&&&&&&&&&&&&&&&&&%%..++@@$$$$$$##@@..                                ",
"                              ..@@..++++......==------&&&&&&&&&&&&&&&&&&&&&&%%..++@@$$$$$$##@@..                                ",
"                              ..@@..++++......==------&&&&&&&&&&&&&&&&&&&&&&%%..++@@$$$$$$##@@..                                ",
"                              ..@@......;;>>>>>>------&&&&&&&&&&&&&&&&&&&&&&%%..++@@$$$$$$##@@..                                ",
"                              ..@@......;;>>>>>>------&&&&&&&&&&&&&&&&&&&&&&%%..++@@$$$$$$##@@..                                ",
"                              ..@@..;;,,,,>>>>>>------&&&&&&&&&&&&&&&&&&&&&&%%..++##$$$$$$$$@@..                                ",
"                              ..@@..;;,,,,>>>>>>------&&&&&&&&&&&&&&&&&&&&&&%%..++##$$$$$$$$@@..                                ",
"                              ..@@..,,,,,,>>>>>>------&&&&&&&&&&&&&&&&&&&&&&%%..++##$$$$$$$$@@..                                ",
"                              ..@@..,,,,,,>>>>>>------&&&&&&&&&&&&&&&&&&&&&&%%..++##$$$$$$$$@@..                                ",
"                              ..@@..,,,,,,>>>>>>------&&&&&&&&&&&&&&&&&&&&&&%%..++##$$$$$$$$@@..                                ",
"                              ..@@..,,,,,,>>>>>>------&&&&&&&&&&&&&&&&&&&&&&%%..++##$$$$$$$$@@..                                ",
"                              ..@@..,,,,,,>>>>>>------&&&&&&&&&&&&&&&&&&&&&&%%..++##$$$$$$$$@@..                                ",
"                              ..@@..,,,,,,>>>>>>------&&&&&&&&&&&&&&&&&&&&&&%%..++##$$$$$$$$@@..                                ",
"                              ..@@..,,,,,,>>>>>>------&&&&&&&&&&&&&&&&&&&&&&%%..++##$$$$$$$$@@..                                ",
"                              ..@@..,,,,,,>>>>>>------&&&&&&&&&&&&&&&&&&&&&&%%..++##$$$$$$$$@@..                                ",
"                              ..@@..,,,,,,>>>>>>------&&&&&&&&&&&&&&&&&&&&&&%%..++##$$$$$$$$@@..                                ",
"                              ..@@..,,,,,,>>>>>>------&&&&&&&&&&&&&&&&&&&&&&%%..++##$$$$$$$$@@..                                ",
"                              ..@@..,,,,,,>>>>>>------&&&&&&&&&&&&&&&&&&&&&&%%..++##$$$$$$$$@@..                                ",
"                              ..@@..,,,,,,>>>>>>------&&&&&&&&&&&&&&&&&&&&&&%%..++##$$$$$$$$@@..                                ",
"                              ..@@..,,,,,,>>>>>>------&&&&&&&&&&&&&&&&&&&&&&%%..++##$$$$$$$$@@..                                ",
"                              ..@@..,,,,,,>>>>>>------&&&&&&&&&&&&&&&&&&&&&&%%..++##$$$$$$$$@@..                                ",
"                              ..@@..,,,,,,>>>>>>------&&&&&&&&&&&&&&&&&&&&&&%%..++##$$$$$$$$@@..                                ",
"                              ..@@..,,,,,,>>>>>>------&&&&&&&&&&&&&&&&&&&&&&%%..++##$$$$$$$$@@..                                ",
"                              ..@@..,,,,,,>>>>>>------&&&&&&&&&&&&&&&&&&&&&&%%..++##$$$$$$$$@@..                                ",
"                              ..@@..,,,,,,>>>>>>------&&&&&&&&&&&&&&&&&&&&&&%%..++##$$$$$$$$@@..                                ",
"                              ..@@..;;,,,,>>>>>>------&&&&&&&&&&&&&&&&&&&&&&%%..++##$$$$$$$$@@..                                ",
"                              ..@@..;;,,,,>>>>>>------&&&&&&&&&&&&&&&&&&&&&&%%..++##$$$$$$$$@@..                                ",
"                              ..@@......;;>>>>>>------&&&&&&&&&&&&&&&&&&&&&&%%..++@@$$$$$$$$@@..                                ",
"                              ..@@......;;>>>>>>------&&&&&&&&&&&&&&&&&&&&&&%%..++@@$$$$$$$$@@..                                ",
"                              ..@@..++++......==------&&&&&&&&&&&&&&&&&&&&&&%%....@@$$$$$$$$@@..                                ",
"                              ..@@..++++......==------&&&&&&&&&&&&&&&&&&&&&&%%....@@$$$$$$$$@@..                                ",
"                              ..++..++++++++++......**&&&&&&&&&&&&&&&&&&&&&&%%....@@++$$$$$$@@..                                ",
"                              ..++..++++++++++......**&&&&&&&&&&&&&&&&&&&&&&%%....@@++$$$$$$@@..                                ",
"                              ..++..@@@@++++++++++++......%%&&&&&&&&&&&&&&&&%%....@@##$$$$$$@@..                                ",
"                              ..++..@@@@++++++++++++......%%&&&&&&&&&&&&&&&&%%....@@##$$$$$$@@..                                ",
"                              ......@@######@@++++++++++++....%%&&&&&&&&&&&&%%..++@@##@@$$$$++..                                ",
"                              ......@@######@@++++++++++++....%%&&&&&&&&&&&&%%..++@@##@@$$$$++..                                ",
"                                  ....@@##########@@++++++++++......%%&&&&&&%%..++##$$$$##@@@@..                                ",
"                                  ....@@##########@@++++++++++......%%&&&&&&%%..++##$$$$##@@@@..                                ",
"                                      ....@@####@@######@@++++++++++........%%..++##$$$$$$$$@@..                                ",
"                                      ....@@####@@######@@++++++++++........%%..++##$$$$$$$$@@..                                ",
"                                          ....@@############@@++++++++++++++....++##$$$$$$$$@@..                                ",
"                                          ....@@############@@++++++++++++++....++##$$$$$$$$@@..                                ",
"                                              ....@@##############@@++++++++++..++##$$$$$$$$@@..                                ",
"                                              ....@@##############@@++++++++++..++##$$$$$$$$@@..                                ",
"                                                  ....@@##########@@####@@++++..++##$$$$$$$$@@..                                ",
"                                                  ....@@##########@@####@@++++..++##$$$$$$$$@@..                                ",
"                                                      ....@@########@@####@@++..++##$$$$$$$$@@..                                ",
"                                                      ....@@########@@####@@++..++##$$$$$$$$@@..                                ",
"                                                          ....@@######@@##@@++..++####$$$$$$@@..                                ",
"                                                          ....@@######@@##@@++..++####$$$$$$@@..                                ",
"                                                              ....@@##@@##@@++..++##$$##$$$$@@..                                ",
"                                                              ....@@##@@##@@++..++##$$##$$$$@@..                                ",
"                                                                  ....@@##@@++..++##$$$$$$$$@@..                                ",
"                                                                  ....@@##@@++..++##$$$$$$$$@@..                                ",
"                                                                      ..........++##$$$$$$$$++..                                ",
"                                                                      ..........++##$$$$$$$$++..                                ",
"                                                                              ..++@@####$$$$@@..                                ",
"                                                                              ..++@@####$$$$@@..                                ",
"                                                                              ..++@@@@..##$$@@..                                ",
"                                                                              ..++@@@@..##$$@@..                                ",
"                                                                                ......++@@####..                                ",
"                                                                                ......++@@####..                                ",
"                                                                                      ........                                  ",
"                                                                                      ........                                  ",
"                                                                                                                                "};
