/* XPM */
static char * \\wsl_localhost\Ubuntu\home\luxojr\project\sol_bonus_main\sprite\door\left\tile1_xpm[] = {
"128 100 9 1",
" 	c None",
".	c #30221D",
"+	c #54392F",
"@	c #B0735D",
"#	c #795041",
"$	c #422D25",
"%	c #271B17",
"&	c #462F27",
"*	c #37251E",
"                                                .++@@@###+$$.                                                                   ",
"                                                .$$@@@@@@#$$.......                                                             ",
"                                                .$$@@@@@@#$$.......                                                             ",
"                                                .$$@@@@@@#$$.......                                                             ",
"                                                .++@@@@@@#$$.$$+##+...                                                          ",
"                                                .++@@@@@@#$$.$$+##+...                                                          ",
"                                                .++@@@#@@#$$.$$+##+##+...                                                       ",
"                                                .++@@@#@@#$$.$$+##+##+...                                                       ",
"                                                .++@@@@###$$.$$+##+#####+...                                                    ",
"                                                .++@@@@###$$.$$+##+#####+...                                                    ",
"                                                .++@@@@###$$.$$+##+#####+...                                                    ",
"                                                .++@@@@@@#$$.$$+###++######+...                                                 ",
"                                                .++@@@@@@#$$.$$+###++######+...                                                 ",
"                                                .++@@@@@@#$$.$$$++###+########+....                                             ",
"                                                .++@@@@@@#$$.$$$++###+########+....                                             ",
"                                                .++@@@@@@#$$.$$$$$$$$+###########++...                                          ",
"                                                .++@@@@@@#$$.$$$$$$$$+###########++...                                          ",
"                                                .++@@@@@@#$$.$$$$$$$$+###########++...                                          ",
"                                                .++@@@@@@#$$...$$$$$$$$$$++#########++...                                       ",
"                                                .++@@@@@@#$$...$$$$$$$$$$++#########++...                                       ",
"                                                .++@@@@@@#$$.%%......$$$$$$$++#####+###++...                                    ",
"                                                .++@@@@@@#$$.%%......$$$$$$$++#####+###++...                                    ",
"                                                .+++##@@@#$$.%%.$$$&&....$$$$$$$$++#######++...                                 ",
"                                                .+++##@@@#$$.%%.$$$&&....$$$$$$$$++#######++...                                 ",
"                                                .+++##@@@#$$.%%.$$$&&....$$$$$$$$++#######++...                                 ",
"                                                .$$@@@+##+$$.%%.$$$+++++&...$$$$$$$$$$+#####+.....                              ",
"                                                .$$@@@+##+$$.%%.$$$+++++&...$$$$$$$$$$+#####+.....                              ",
"                                                .++@@@@##+...%%.$$$+++++#++&.....$$$$$$$$$+++..$..                              ",
"                                                .++@@@@##+...%%.$$$+++++#++&.....$$$$$$$$$+++..$..                              ",
"                                                .++@@@@$$+...%%.$$$+++########+&&.....$$$$$$$..$..                              ",
"                                                .++@@@@$$+...%%.$$$+++########+&&.....$$$$$$$..$..                              ",
"                                                .++@@@@$$+...%%.$$$+++########+&&.....$$$$$$$..$..                              ",
"                                                .++@@@@@@+...%%.$$$+++#############+&&....$$$..+..                              ",
"                                                .++@@@@@@+...%%.$$$+++#############+&&....$$$..+..                              ",
"                                                .++@@@@@@+$$.%%.$$$+++#################++&.....+..                              ",
"                                                .++@@@@@@+$$.%%.$$$+++#################++&.....+..                              ",
"                                                .++@@@@@@#$$.%%.$$$+++####################++*..+..                              ",
"                                                .++@@@@@@#$$.%%.$$$+++####################++*..+..                              ",
"                                                .++@@@@@@#$$.%%.$$$+++####################++*..+..                              ",
"                                                .++@@@@@@#$$.%%.$$$+++#####@#######@++######$..+..                              ",
"                                                .++@@@@@@#$$.%%.$$$+++#####@#######@++######$..+..                              ",
"                                                .++@@@@@@#$$.%%.$$$+++###@@+################$..+..                              ",
"                                                .++@@@@@@#$$.%%.$$$+++###@@+################$..+..                              ",
"                                                .++@@@@@@#$$.%%.$$$+++###@@+################$..+..                              ",
"                                                .++@@@@@@#$$.%%.$$$+++###@@+################$..+..                              ",
"                                                .++@@@@@@#$$.%%.$$$+++###@@+################$..+..                              ",
"                                                .++@@@@@@#$$.%%.$$$+++##@++###############++$..+..                              ",
"                                                .++@@@@@@#$$.%%.$$$+++##@++###############++$..+..                              ",
"                                                .++@@@@@@#$$.%%....$$$+++++++++++++++++++......+..                              ",
"                                                .++@@@@@@#$$.%%....$$$+++++++++++++++++++......+..                              ",
"                                                .++@@@@@@#$$.%%.$$$+++########@++++#######++$..+..                              ",
"                                                .++@@@@@@#$$.%%.$$$+++########@++++#######++$..+..                              ",
"                                                .++@@@@@@#$$.%%.$$$+++########@++++#######++$..+..                              ",
"                                                .++@@@@@@#$$.%%.$$$+++#########@@++#########$..+..                              ",
"                                                .++@@@@@@#$$.%%.$$$+++#########@@++#########$..+..                              ",
"                                                .++@@@@@@#$$.%%.$$$+++######################$..+..                              ",
"                                                .++@@@@@@#$$.%%.$$$+++######################$..+..                              ",
"                                                .++@@@@@@#$$.%%.$$$+++######################$..+..                              ",
"                                                .++@@@@@@#$$.%%.$$$+++######################$..+..                              ",
"                                                .++@@@@@@#$$.%%.$$$+++######################$..+..                              ",
"                                                .++@@@@@@#$$.%%.$$$+++#####+##############++*..+..                              ",
"                                                .++@@@@@@#$$.%%.$$$+++#####+##############++*..+..                              ",
"                                                .++#@@@@@+$$.%%.$$$+++#################++&.....+..                              ",
"                                                .++#@@@@@+$$.%%.$$$+++#################++&.....+..                              ",
"                                                .++#@@@@@+$$.%%.$$$+++#################++&.....+..                              ",
"                                                .++#@@@@@+$$.%%.$$$+++#############+&&....$$$..+..                              ",
"                                                .++#@@@@@+$$.%%.$$$+++#############+&&....$$$..+..                              ",
"                                                .++#@@@@@+$$.%%.$$$+++########+&&.....$$$$$$$..$..                              ",
"                                                .++#@@@@@+$$.%%.$$$+++########+&&.....$$$$$$$..$..                              ",
"                                                .++#@@@@@+$$.%%.$$$+++++#++&.....$$$$$$$$$+++..$..                              ",
"                                                .++#@@@@@+$$.%%.$$$+++++#++&.....$$$$$$$$$+++..$..                              ",
"                                                .++#@@@@@+$$.%%.$$$+++++#++&.....$$$$$$$$$+++..$..                              ",
"                                                .++#@@@@@+$$.%%.$$$+++++&...$$$$$$$$$$+#####+.....                              ",
"                                                .++#@@@@@+$$.%%.$$$+++++&...$$$$$$$$$$+#####+.....                              ",
"                                                .+++@@@@@+$$.%%.$$$&&....$$$$$$$$++######+.....                                 ",
"                                                .+++@@@@@+$$.%%.$$$&&....$$$$$$$$++######+.....                                 ",
"                                                .$$#@@@@@#$$.%%......$$$$$$$++########+...                                      ",
"                                                .$$#@@@@@#$$.%%......$$$$$$$++########+...                                      ",
"                                                .$$#@@@@@#$$.%%......$$$$$$$++########+...                                      ",
"                                                .++#@@@@@#$$...$$$$$$$$$$++########+...                                         ",
"                                                .++#@@@@@#$$...$$$$$$$$$$++########+...                                         ",
"                                                .++@@@@@@+$$.$$$$$$$$+#########++...                                            ",
"                                                .++@@@@@@+$$.$$$$$$$$+#########++...                                            ",
"                                                .++@@@@@@+$$.$$$++####+++++#++...                                               ",
"                                                .++@@@@@@+$$.$$$++####+++++#++...                                               ",
"                                                .++@@@@@@+$$.$$$++####+++++#++...                                               ",
"                                                .++@@@@@@+$$.$$+#########++...                                                  ",
"                                                .++@@@@@@+$$.$$+#########++...                                                  ",
"                                                .++@@@@@@#$$.$$+######++...                                                     ",
"                                                .++@@@@@@#$$.$$+######++...                                                     ",
"                                                .++@@@@@@#$$.$$+###++...                                                        ",
"                                                .++@@@@@@#$$.$$+###++...                                                        ",
"                                                .++@@@@@@#$$.$$+###++...                                                        ",
"                                                .++@@@@@@#$$.$$+++...                                                           ",
"                                                .++@@@@@@#$$.$$+++...                                                           ",
"                                                .++@@@@@@#$$......                                                              ",
"                                                .++@@@@@@#$$......                                                              ",
"                                                .++@@@#@@+$$.                                                                   ",
"                                                .++@@@#@@+$$.                                                                   ",
"                                                .++@@@#@@+$$.                                                                   "};
