/* XPM */
static char * C:\Users\mathi\OneDrive\Desktop\corner_xpm[] = {
"128 128 10 1",
" 	c #000000",
".	c #1C110E",
"+	c #2B1A15",
"@	c #39231B",
"#	c #492D24",
"$	c #704536",
"%	c #8E5E52",
"&	c #613C2F",
"*	c #895849",
"=	c #835140",
"                                                                                                                                ",
"                                                                                                                                ",
"                                                                                                                                ",
"                                                                                                                                ",
"                                                                                                                                ",
"                                                                                                                                ",
"                                                                                                                                ",
"                                                                                                                                ",
"                                                                                                                                ",
"                                                                                                                                ",
"                                                                                                                                ",
"                                                                                                                                ",
"                                                                                                                                ",
"                                                                                                                                ",
"                                                                                                                                ",
"                                                                                                                                ",
"                                                                                                                                ",
"                                                                                                                                ",
"                                                                                                                                ",
"                                                                                                                                ",
"                                                                                                                                ",
"                                                                                                                                ",
"                                ..    ..  ..  ....  ..                                                                          ",
"                                ..    ..  ..  ....  ..                                                                          ",
"                        ....  ............  ..        ..    ..  ......  ........................    ..........    ....  ....  ..",
"                        ....  ............  ..        ..    ..  ......  ........................    ..........    ....  ....  ..",
"                        ....  ............  ..        ..    ..  ......  ........................    ..........    ....  ....  ..",
"                        ....  ............  ..        ..    ..  ......  ........................    ..........    ....  ....  ..",
"                      ........  ........  ..        ..  ........  ..............................................................",
"                      ........  ........  ..        ..  ........  ..............................................................",
"                      ......................          ..........................................................................",
"                      ......................          ..........................................................................",
"                        ..............++..++..        ..........................................................................",
"                        ..............++..++..        ..........................................................................",
"                      ..................++..        ..++........................................................................",
"                      ..................++..        ..++........................................................................",
"                        ....  ............++..      ++++++++++++++++++++++++++++++++++++++++++++++++++++++++++++++++++++++++++++",
"                        ....  ............++..      ++++++++++++++++++++++++++++++++++++++++++++++++++++++++++++++++++++++++++++",
"                        ....  ............++..      ++++++++++++++++++++++++++++++++++++++++++++++++++++++++++++++++++++++++++++",
"                        ....  ............++..      ++++++++++++++++++++++++++++++++++++++++++++++++++++++++++++++++++++++++++++",
"                      ..    ..............++..      ++@@++++++++++++++++++++++++++++++++++++++++++++++++++++++++++++++++++++++++",
"                      ..    ..............++..      ++@@++++++++++++++++++++++++++++++++++++++++++++++++++++++++++++++++++++++++",
"                        ....  ....++++....++++++++  ++@@@@@@@@@@@@@@@@@@@@@@@@@@@@@@@@@@@@@@@@@@@@@@@@@@@@@@@@@@@@@@@@@@@@@@@@@@",
"                        ....  ....++++....++++++++  ++@@@@@@@@@@@@@@@@@@@@@@@@@@@@@@@@@@@@@@@@@@@@@@@@@@@@@@@@@@@@@@@@@@@@@@@@@@",
"                            ..  ......++..++++@@@@  @@@@@@@@@@@@@@@@@@@@@@@@@@@@@@@@@@@@@@@@@@@@@@@@@@@@@@@@@@@@@@@@@@@@@@@@@@@@",
"                            ..  ......++..++++@@@@  @@@@@@@@@@@@@@@@@@@@@@@@@@@@@@@@@@@@@@@@@@@@@@@@@@@@@@@@@@@@@@@@@@@@@@@@@@@@",
"                                      ..++@@@@++++  ++@@@@@@@@@@@@@@@@##@@@@@@@@@@@@@@@@@@@@@@########################@@@@@@####",
"                                      ..++@@@@++++  ++@@@@@@@@@@@@@@@@##@@@@@@@@@@@@@@@@@@@@@@########################@@@@@@####",
"                                      ..++@@@@++++  ++@@@@@@@@@@@@@@@@##@@@@@@@@@@@@@@@@@@@@@@########################@@@@@@####",
"                                      ..++@@@@++++  ++@@@@@@@@@@@@@@@@##@@@@@@@@@@@@@@@@@@@@@@########################@@@@@@####",
"                                              ....  ++@@########################################################################",
"                                              ....  ++@@########################################################################",
"                        ....  ..  ......++++@@++++@@@@######$$$$$$$$$$$$$$$$$$$$$$$$$$$$$$$$$$$$$$$$$$$$$$$$$$$$$$$$$$$$$$$$$$$$",
"                        ....  ..  ......++++@@++++@@@@######$$$$$$$$$$$$$$$$$$$$$$$$$$$$$$$$$$$$$$$$$$$$$$$$$$$$$$$$$$$$$$$$$$$$",
"                      ..    ..  ..++++..++@@@@@@@@@@##@@$$$$%%%%%%%%%%%%%%%%%%%%%%%%%%%%%%%%%%%%%%%%%%%%%%%%%%%%%%%%%%%%%%%%%%%%",
"                      ..    ..  ..++++..++@@@@@@@@@@##@@$$$$%%%%%%%%%%%%%%%%%%%%%%%%%%%%%%%%%%%%%%%%%%%%%%%%%%%%%%%%%%%%%%%%%%%%",
"                        ..............++++@@@@@@@@####$$&&&&****%%%%%%%%%%%%%%%%%%%%**********%%%%%%%%%%%%%%%%%%%%%%%%%%%%%%%%$$",
"                        ..............++++@@@@@@@@####$$&&&&****%%%%%%%%%%%%%%%%%%%%**********%%%%%%%%%%%%%%%%%%%%%%%%%%%%%%%%$$",
"                      ..    ..........++++@@@@@@@@##$$%%%%%%&&==********************==========************************%%$$$$$$$$",
"                      ..    ..........++++@@@@@@@@##$$%%%%%%&&==********************==========************************%%$$$$$$$$",
"                      ..    ..........++++@@@@@@@@##$$%%%%%%&&==********************==========************************%%$$$$$$$$",
"                      ..    ..........++++@@@@@@@@##$$%%%%%%&&==********************==========************************%%$$$$$$$$",
"                      ................++++@@@@######$$$$%%%%**========================================================**%%%%%%$$",
"                      ................++++@@@@######$$$$%%%%**========================================================**%%%%%%$$",
"                      ..    ..........++++@@@@######$$$$%%%%**==========================================================****%%%%",
"                      ..    ..........++++@@@@######$$$$%%%%**==========================================================****%%%%",
"                      ................++++@@@@######$$$$%%%%**====$$$$==========================================================",
"                      ................++++@@@@######$$$$%%%%**====$$$$==========================================================",
"                      ................++@@@@@@######$$$$%%%%**========$$========================================================",
"                      ................++@@@@@@######$$$$%%%%**========$$========================================================",
"                      ................++@@@@@@######$$$$%%%%**========$$========================================================",
"                      ................++@@@@@@######$$$$%%%%**========$$========================================================",
"                        ..............++@@@@@@######$$%%%%%%**==========$$======================================================",
"                        ..............++@@@@@@######$$%%%%%%**==========$$======================================================",
"                        ..............++++@@@@######$$==%%%%**============&&====================================================",
"                        ..............++++@@@@######$$==%%%%**============&&====================================================",
"                        ..............++++@@@@######$$$$%%%%**==============&&==================================================",
"                        ..............++++@@@@######$$$$%%%%**==============&&==================================================",
"                      ................++++@@@@######$$%%%%%%**==============$$&&&&$$============================================",
"                      ................++++@@@@######$$%%%%%%**==============$$&&&&$$============================================",
"                      ................++++@@@@######$$%%%%%%**==============$$&&&&$$============================================",
"                      ................++++@@@@######$$%%%%%%**==============$$&&&&$$============================================",
"                      ................++++@@@@######$$%%%%%%**================$$$$&&$$==$$$$==$$====================$$==========",
"                      ................++++@@@@######$$%%%%%%**================$$$$&&$$==$$$$==$$====================$$==========",
"                      ................++@@@@@@######$$%%%%%%**====================$$&&$$$$$$$$==$$==================%%%%========",
"                      ................++@@@@@@######$$%%%%%%**====================$$&&$$$$$$$$==$$==================%%%%========",
"                      ................++++@@@@######$$%%%%%%**======================$$&&$$$$==$$$$==$$$$==$$====================",
"                      ................++++@@@@######$$%%%%%%**======================$$&&$$$$==$$$$==$$$$==$$====================",
"                      ................++@@@@@@######$$%%%%%%**========================$$&&&&$$$$$$$$====$$==$$====$$==$$====$$==",
"                      ................++@@@@@@######$$%%%%%%**========================$$&&&&$$$$$$$$====$$==$$====$$==$$====$$==",
"                      ................++++@@@@@@@@##$$%%%%%%**==========================$$$$&&$$$$$$$$$$$$$$==$$$$==$$$$$$$$$$$$",
"                      ................++++@@@@@@@@##$$%%%%%%**==========================$$$$&&$$$$$$$$$$$$$$==$$$$==$$$$$$$$$$$$",
"                      ................++++@@@@@@@@##$$%%%%%%**==========================$$$$&&$$$$$$$$$$$$$$==$$$$==$$$$$$$$$$$$",
"                      ................++++@@@@@@@@##$$%%%%%%**==========================$$$$&&$$$$$$$$$$$$$$==$$$$==$$$$$$$$$$$$",
"                      ................++++@@@@######$$%%%%%%**==============================$$&&&&&&$$$$$$$$$$$$$$$$$$$$$$$$$$##",
"                      ................++++@@@@######$$%%%%%%**==============================$$&&&&&&$$$$$$$$$$$$$$$$$$$$$$$$$$##",
"                      ................++++@@@@@@@@##$$%%****====================================################################",
"                      ................++++@@@@@@@@##$$%%****====================================################################",
"                        ..............++++@@@@@@@@##$$%%****================================$$$$$$##$$$$========================",
"                        ..............++++@@@@@@@@##$$%%****================================$$$$$$##$$$$========================",
"                            ..........++++@@@@######$$%%****============================$$$$==$$$$######&&$$$$$$$$$$$$$$$$$$$$$$",
"                            ..........++++@@@@######$$%%****============================$$$$==$$$$######&&$$$$$$$$$$$$$$$$$$$$$$",
"                            ..........++++@@@@######$$%%****============================$$$$==$$$$######&&$$$$$$$$$$$$$$$$$$$$$$",
"                            ..........++++@@@@######$$%%****============================$$$$==$$$$######&&$$$$$$$$$$$$$$$$$$$$$$",
"                        ..............++@@@@@@######$$%%****================================$$$$$$##====##&&$$$$$$$$$$$$$$$$$$$$",
"                        ..............++@@@@@@######$$%%****================================$$$$$$##====##&&$$$$$$$$$$$$$$$$$$$$",
"                      ................++++@@@@######$$%%%%%%**==========================$$$$==$$$$##====&&##&&$$$$$$$$$$$$$$$$$$",
"                      ................++++@@@@######$$%%%%%%**==========================$$$$==$$$$##====&&##&&$$$$$$$$$$$$$$$$$$",
"                      ................++++@@@@######$$%%%%%%**========================$$====$$$$$$##====$$&&##&&&&$$$$$$$$$$$$$$",
"                      ................++++@@@@######$$%%%%%%**========================$$====$$$$$$##====$$&&##&&&&$$$$$$$$$$$$$$",
"                      ................++++@@@@######$$%%%%%%**==========================$$$$$$$$$$##====$$$$&&####&&&&$$$$$$$$$$",
"                      ................++++@@@@######$$%%%%%%**==========================$$$$$$$$$$##====$$$$&&####&&&&$$$$$$$$$$",
"                      ................++++@@########$$%%%%%%**========================$$====$$$$####====$$$$$$&&&&##&&&&&&&&$$$$",
"                      ................++++@@########$$%%%%%%**========================$$====$$$$####====$$$$$$&&&&##&&&&&&&&$$$$",
"                      ................++++@@########$$%%%%%%**========================$$====$$$$####====$$$$$$&&&&##&&&&&&&&$$$$",
"                      ................++++@@########$$%%%%%%**========================$$====$$$$####====$$$$$$&&&&##&&&&&&&&$$$$",
"                      ................++++@@@@######$$%%%%%%**======================$$==$$$$$$$$####====$$$$$$$$$$&&##&&&&&&&&&&",
"                      ................++++@@@@######$$%%%%%%**======================$$==$$$$$$$$####====$$$$$$$$$$&&##&&&&&&&&&&",
"                        ..............++++@@@@######$$%%%%%%**========================$$$$$$$$######====$$$$$$$$$$&&&&##&&&&&&&&",
"                        ..............++++@@@@######$$%%%%%%**========================$$$$$$$$######====$$$$$$$$$$&&&&##&&&&&&&&",
"                      ................++++@@@@######$$%%%%%%**==========================$$$$$$$$####====$$$$$$$$$$$$&&&&####&&&&",
"                      ................++++@@@@######$$%%%%%%**==========================$$$$$$$$####====$$$$$$$$$$$$&&&&####&&&&",
"                      ................++++@@@@######$$%%%%%%**==========================$$$$==$$$$##====$$$$$$$$$$$$$$&&&&&&####",
"                      ................++++@@@@######$$%%%%%%**==========================$$$$==$$$$##====$$$$$$$$$$$$$$&&&&&&####",
"                      ................++++@@@@######$$%%%%%%**==========================$$$$==$$$$##====$$$$$$$$$$$$$$&&&&&&####",
"                      ................++++@@@@######$$%%%%%%**==========================$$$$==$$$$##====$$$$$$$$$$$$$$&&&&&&####",
"                      ................++++@@@@######$$%%%%%%**==============================$$$$$$##====$$$$$$$$$$$$$$$$&&&&##@@",
"                      ................++++@@@@######$$%%%%%%**==============================$$$$$$##====$$$$$$$$$$$$$$$$&&&&##@@"};
