/* XPM */
static char *tile0[] = {
/* columns rows colors chars-per-pixel */
"128 128 45 1 ",
"  c #030201",
". c #0A0605",
"X c #0E0807",
"o c #0F0908",
"O c #130C0A",
"+ c #190F0C",
"@ c #1C110E",
"# c #20130F",
"$ c #231511",
"% c #281713",
"& c #271813",
"* c #2C1A15",
"= c #301D17",
"- c #321E18",
"; c #36211A",
": c #3A241C",
"> c #40271F",
", c #40281F",
"< c #442A21",
"1 c #492D24",
"2 c #4E3026",
"3 c #503127",
"4 c #553429",
"5 c #59372B",
"6 c #5C392D",
"7 c #613C2F",
"8 c #653E31",
"9 c #674032",
"0 c #6C4334",
"q c #6F4538",
"w c #704536",
"e c #734738",
"r c #75493A",
"t c #7B4C3C",
"y c #7D4F40",
"u c #7F5143",
"i c #804F3E",
"p c #82503F",
"a c #835241",
"s c #885747",
"d c #865749",
"f c #885748",
"g c #87584B",
"h c #8A5A4D",
"j c #8D5D51",
/* pixels */
"                                                                                                                                ",
"                                                                                                                                ",
"                .   ..    ..    .    .                                                        .                                 ",
"              XXX.. oo.   oo.   oX. ..o.                                                       .                                ",
"             .OOo. XOOX..XOOX..oOX   .o.       .               .   .               ..              .   .     ..           .     ",
"            .OO+OOXOO@OOOXXoOXoOOo  ..X..    ...     .XX     .XX. XX.  .XX.. .Xo..XoX..         ..XX .X..   XXXX          ..    ",
"     .OO.  .oO+@OO+@@@@+OX..oOoX.     .XXX. ..O.  .XOOOO...XO+++O++++O++@O+OOO+OOOO+OOOX     ..OOOOOO+OOX  .XOO+O.  OOX.  XXX   ",
"    Xo+OOXXXOO+@@@@@@@@OOX. ooX.      .XOXXXXOOO..XOOO@+o..o+@@@@@@@@@@@@@@@@@@@@@@@@@OO.  ..OO+@@@@@@@OoXXXO+@@+O..O+OX..OOX   ",
"   .XO++OOOoooO@@@@@@++oXXXXXX       .Xoo.OOOOO+OOXXoo++OOoO+@@@@@@@@@@@@@#@@@@@@@@@@@@+OOooO++@@@@@@@@@OooO+@@+OOXOO@OOOOOOo.  ",
"  .XO+@@+OOO.oO@@@@@@+Oo.XOOX        XOO..OOO+@+OOOo.o+@+O++@@@@@@@@@@@@@@@@@@@@@@@@@@@@@++O++@@@@@@@@@@++++@@@@@+O@@@++OO@Oo.. ",
"  .O+@@@@+OO.oO+@@@@@+OoXOOOX.      .XOo..OO@@@@++OOoo+@@++@@@@@@@@@@@@@@@@@@@@@@@@@@@@@@++@+++@@@@@@@@@+@+@@@@@@@@@@#@@@@@@OOoo",
"  .O+@@@@++Ooo+@@@@@@@++OO++X.       ....OO+@#@@@@+OoO++@@@@@@@@@@@@@@@@@@@@@@@@@@@@@@@@+@@@+@@@@@@@@@@@@@@@@@@@#@@@#@@@##@@+O+O",
"  .O++@@@@@+++@@@@@@@@@+++@+X          .O++@@@@@@@@@++@@@@@@@@@@@@@@@@@@@@@@@@@@@@@@@@@@@@@@@@@@@@@@@@@@@@@@@@@@@@@@@@@@@@@@@++O",
"  .oOO@@@@@@@@@@@@@@$@$@@@@+O.         .O@@@@@@@@@@@@@@@@@@@@@@@@@@@@@@@@@#@@@@@@@@@@@@@@@@@@@@@@@@@@@@@@@@@@@@@@@@@@@@@@@@@@@@@",
"    .OO@@@@@@@@@@@@@$$$$@@@$+Oo        X+@@@@@@@@@@@@@@@@@@@@@@@@@@@@+@@@@@@@@@@@@@@@@@@@@@@@@@@@@@@@@@@@@@@@@@@@@@@@@@@@@@@@@@@",
"    .O+@@@@@@@@@@@@@$$$$@$$$@+O.      .o+@@@@@@@@@@@@@@@@@@@@@@@@@@@+@@@@@@@@@@@@@@@@@@@@@@@@@@@@@@@@@@@@@@@@@@@@@@@@@@@@@@@@@@@",
"   .oO++@@@@#@+@@@@@$$$$$$$$+Oo.     .XO@@@@+@@@@@@@@@+@@@@@@@@@@@@@@@@@@@@@@@@@@@@@@@@@@@@@@@@@@@@@@@@@@@@@@@@@@@@@@@@@@@@@@@@@",
"  .XO++@@@@@#@@+@@@#$$$$$$$@Oo.     .XO@#$$@@++@@@@@@@++@#@@@@@@@@@@@@@@@@@@@@@@@@@@@@@@@@+@@@@@@@@@@@@@@@@@@@@@@@@@@@@@@@@@@@@@",
"  .XO+@@++++@@+@@@@@@#$$$$@+o..     .O@$&&$@@+@@@@@@@@+@@@@@#@@@@@@@###@@@+@@@#@@@@@@@@@@@@+@@###@@+@@@@@#@@@@@@@@##@@@@@@@@@@@@",
"   .O+@++++++@#@@@@@@@$$$$$+o..     XO$&**&&$$@$$$$$$@$$$$##$$$#$$$$$$$$##@#@##%###$$@$@##@@@#%#$%$##@##$#########$$@$@@@$@$$@$@",
"    .o++oX.OO@#@#@@@@@@@@#$$@Oo.   .o@%&****%%*%&&&&&$&&*&&&&*&&*$$$&&*&%%%%%%%%%%%*&*%$%%##%*%*%*%%##%%**%%*%%%%%*%$$%%$$%%&*$*",
"    ..ooX..o+@@#@@@@@@@@@#**$+O.    o@&;************&&&****=******&$*****%**-*************%%%******%%%**************%%%*%$******",
"   .Xo.oooOO+@#@@@@@@@@@@$*&$+O.    o#%*-***********&***=&**************&%******************************************************",
"  .ooo..OOO++@@@@#@@@@@##$*$#+Oo   .O@&*--***************=&*************%%***********=***************=**************************",
"  .XOX.XOOO++@@@#@$@$@@@##$$$#+O.   o@%;;;-*=**&************=*****===*****==*-*******=*=*****==***--===*=*=******=*===*=*=**==**",
"   .XOXXoOOO+@@@$$$$@@@@#$$$&$#@+X .o@&=;:;----=======--=**=;==**===========-;;-====----==*=--===-----------====-==-===-========",
"    .XOXo..o+++@@$$$$@@@#$**%*&&$@..+@&;;:;;;;;--;-;;;;;;;;;;;;;-;;:;;;=;=;:;;;;---:-::----:;;------:-----:----:---:----:;;-:--:",
"     .XXo..oo+++$$$$$$@@#$******=@. O$&;;::::::;;;;;:::;:;;::::::;;::::;;;;::::;:::::::::::::;;-->:-:-:-::::->>-:>::::::::::::::",
"      ..oO.o.oO+@$$$$$$$@#&*****&$X.O&-;;:::::;;:;:;;::;;:;::::::;:::;:;;;::;:::::;:::::::::--:::--:-:-:->--:--:-::-:-:::::::;::",
"        .Oo...oO+@#$$$$$##*==**==$X.O&-;:;:;;:::;:::::::::::;:;:::;::::;:::;;::;::::;:::::::::::>>:->::>:::::::->:::::::::::::::",
"        .... ..OOOO@$$$$$$*----==$XX+&=;;:;:::::::::;:;::<<::::;::::;::::::::::::::::::>>>>>>>>>>::>>>>>,>>>>:>>>>::::-::>::<:::",
"        . ..  ....oO@$$$$*=-----=@OXO@=;::;:;:::;:;::::::<<:::::;:;:::;:::;:::;:::-:::>,,,,,,1,,,<<>>><>,,,,,,,,>>::::::<<><<<<<",
"                   .+@#%%*-;;;;;$@XXO+&=;:::;:>:::::::::<<<<::;;::::,:;::<::<:::>>;->><<1<<1111<11<<1<1<<<<1<1<<<>::::><<11<1<1<",
"                    X++@#%%%&&&&#@X.O+&;;::::>,,::::::::<<<<,::,:,::<:::<:::<:::>>;>><11111111<1111111111<1111111<>::>,1<1111111",
"                     ...ooX.Xo+@@+. o@$;;:>,,,,,:<<:1<<<<<1<<<<<<<<<<<<:<<:<<<:<>,>,,<<111<11<<<<1111<111<1111<11<<><<1111111111",
"                   ..  .X..  .o@@+XX+$*;::,,113422213332122312222222222122121211233133333313331122122222222222222221211222212221",
"      ....  ..  ...XXoOOOOOOOO@@@@@@$*;;,,2,135666665666555455555556555555555656565666565656555555335555665556555544554455554555",
"      XoX.  .X. .ooOO++#@#@#&#$$$$$$*;:,,2,24699999899998888889988999888888899999998999988887i0888858888888888888877997588768988",
"     .OO....oO..oO++++##&%**--***;;;;::,,2,3590wqrrrrrrrrqrqqrqrqqrrrrqqqrqqrerrewww0wwiw0i0ppppyyyqyyrry8y8y8reyyqqyy9yyyqqqyyy",
"    XoXoXX.XXXXoO@##@##%**-;::;;;;;;::,,,,247wttutuuttutuuuuuuuuuuuuuuuuuuuuututiiiiiiiiiiiiappsyyuyyuaaayyyadyayyyyyuyyyyyyyuuu",
" .Xooo..XOOo..oO#######%*=;;>;;;;;::,,<,:,290tdgffhhgghhhhhhhhhfujjujjujfffffhhfssffffhfsssjsjjsgjgjjggjgjgghhhhjjjujjujuujuujjj",
"  .oO...oOOO. O@#$$$##$%*=;;;;>;::::<<1<,249eugjjjjjjjjjjjjjjjjjjjjjjjjjjjjjjjjhhhjhjhjjjjjjjjjjjjjjjjjjjjjjjjjjjjjjjjjjjjjujuju",
"   ..XXoOO@OOOO@####$$%**=;;;;;>:::,<1124469qudhjhjjjjjjjjjjjjjjjjjjjjjjjjjjjhhhhhjjhjjjjjjjjjjjjjjjjjjjjjjjjjjjjjjjjjjjjjuuuuuu",
"    .XO+O+@@O+@@+###$%***=;>;;;;::,<<1259999qtugfhhjhjjjjjjjjjjjjjjjjjjjjjffhhhhhhhhjjjjjjjjjjjjjjjjjjjjjjjjjjjjjjjjjjjuuuuuuuuu",
"    .oOO+O@@@@@@+###$$***-;>:;>>::<11257qyryrruusssfhjjjjjjhjjhhjhjjjjjjjhssssssffffhjhjjjjjjjjjjjjjjjjgjjjjjhjjjjjuuuuuuyyqyqyy",
"    ooooO+@@@@@@++##$%**=-;;;:;;:,<1257qyuuuttrttasshhjhhhhhfjhjhhhhjjjuhfppssppssfsfhhhjjsjsjssjjjjjgjjjghhhhhhjjjjuyuuuyqqqyyu",
"  XOOO. OO@@@@+@+###%***=--;;;;;:,<147quuujuutqqtasfffffffffffhjffdhujjufsspppsppppssfffssjfssssuggjujujgdgddfffujjjuyyqyqyquuuu",
"  OO+OX.O@+@@@+++##$****=-;;;;>:,<<157quuujjuuqqtpassssssssfsfffssddhjujsspppppppppppppsssssssssuguguggudddddsfsjjjuuyyyyquuuuuj",
"  .O++OO++++##++++#&****=-;:;>>><<<257qqtugjhuttppspsppsaspaasasuaaaaaaaaaaapapappaaaaaaaassssaappspppspspspspspuujjgddduurrugjj",
"  .O++O++++++###+###*****=;:;;>><11257qqetujjjfupdppppppaapppppaaaaaaaaaaapaapapappapapaaaassaaapppppppppppppppsujjuhhhjhuttuhhj",
"  XO++OO+++@++######&****=;:;:>><11257qqerugjhugppfppsppappppappaaaaaaaaaaaaaapappapaapppaaaaaappspssppsppspppppujuuhjjjjgutgggg",
"  .OOOoO++@@+#####+#&****=;:::>>1111570qerugjhjupppppppppapppaaaaaaaaappaaaappapaapaaaaapaaaapaappppppppppppppppuuujfhhjjhgsuugu",
" ..OOOXXO+@+@@##@####&%*=-:;::>,<11257qqqrugjhhfsppsppttppppapppaapppapaaaaaapappaapaaaappapappapsppppspppppppppugpaffhjjhhgguda",
"  .OOOXO+++#@@@@+@##&&**=-;:::>,<112580qqrughhhppppppputtppappppaappapaaaapapaaaappapppppapapaapppppppppsppppppsguaasfffhffggdau",
"  oO+OOO++++@@@@+++#%****=-;;:>>1112570qwrufjhfspppppttttpppsppstaaaaapppapapapapaapapppppppppaappppspppppspppppuaapaaasasasaaaa",
"  oO++@@+@++@@+++++#%****=;;::>><112570werufjhhspspftttttptpppppaaappaaaapaaaaappppapaappppppppapppspppspppppsppdauppaaappaaappa",
"  XO@@@@@@@@@@@+##@#%=*===->::>>1112590qqruhjhffppppppttttttpptppappaaaapapapaappaaaappppaapappaapapaaapppppspspsppppppppappaapa",
"  .OO@@@@@@@@@+@####%====--:::>><112570qqtuhhhhpspppappttrrttppppappppapapaaapaapppapaaaapaappppaaappaappppppppppppppppppaapapap",
"  .XO+@@@@+@@@@+@###%*=--:>-;:>><112570qyugjhjhpspaaappptrrtppptpappaapaapapaapapapaaappppapapaappaaapaapppppsppppppspspapaaappa",
"   .XOO@@@@+@@@++++#%*==:-:>::>><112570tuuuhjjhdpaapapapttrtttttpppppaappapappaaaaaapaappapapapaaaapppapppfppppppppppppppapapaap",
"     .O@@@@@@@@@+++#%*==-::::::>111159euujhjjjfsapaapaaptpttttttppppapaapapaaaappaaaapapapaaapapaaaaapaapfpppppfppppspppspppapsp",
"     .O@@@@@@@@@+###%*==--:::->,<11257ruhjjjjhddaapapaapspptttrtpppppaapapapapaaaapaaapaaapaaapaaapaaapapppppppppspppppppppppapp",
"     .O@@@@@@@@@#@##***=--:-::>,11<259qtudhjjhgdsppaaapapppptttwwtppapppppaaaapappapppappaaapppapapppaaapppppppppppppppppppppspp",
"    .XO@+@@@@@O@####%***=-::-:>,111259qtudhjhhgdppappaapppppttrwwtippapppppappappppapappppapppaapaaaaaappfpppppppfppppppppsppppp",
"    .oO@@@@@@@++@@@$&***=;;:;;,<111168riaasjsjjsappppppappppppppwwttiiiiiipppapppppppppppppppppppaasppppppppppppppppppppppsspppp",
"    .oO+@@@@@@@+@@@&&***==;;;;:<<11368wipaasjjssaappppaapppppppatwwwiiiiiipppppppppppppppppppppppassppppppppppppppppppppppsspppp",
"    ..O@@@@@@@@@@@@@$&*====;;:,,1113688tppsssjsasaappaasppppppsarw00tiiiiippapapppppppppppppppppppappppppppssppppppppppppppppppp",
"   ..o++@@@@@@@@@@@@$&&*===;;:,<<1136888ppssjsssasappasappppppaatw00wtiiiiippaapppppppppppppppppppppppppppppsspppppppppppppppppp",
"  .oOO@@@@@@@@@@@@@$&**====-;:,<1111688rpsfjsjsssaapppaapppppaaptrw000wtriipaapaiiipiiiipppppppppppppppppppppppppppppppppppppppp",
"  oO+@@@@@@@@@@@@@@$&***==-;;:,<111368riaffjjjjsaappppppppppppppttr09900wwiippppiiiiiiiipppppppppppspppppppppppppppppppppppppppp",
" .oO+@@@@@@@@@@@@@@@&*&==-;;;;,<111168ppfjjjjjjsapppppppppppppppitrw999990rtipppiriiiiiipppppppsppsssppppppppppppppppsssppsspppp",
"  oO+@@@@@@@@@@@@@@$&**==;;:;;:<<11378tpjjjjjjssaappppppppapppppiitr0079990ripiirwiiiiiippppppaapssspppppppppppppppppppspppssppp",
"  oO+@@@@@@@@@@@@@@$***==;;;;;,<111358wifjjjjjsaasappppppaasappppiiirw08799wtitwiwiiiiiwriiipppppppsiipppppppppppppppppppppsppss",
"  .O+@@@@@@@@@@@@@@$&**=-;;:;;<<1111688ifjjjjjsssaappppppasaapppppippiw99999wttrwwriirwwriiipppippppiiippppppppapsppppppppppppps",
"  oO+@@@+@@@++@@@@@&&*==;:::;:<<111368tpsjjjjjfsaaaapppppaaaappppppppieww09990wwww000wiirriippiippppiiiippppppasjjjsppppppppppps",
"  .O+@@@++@@+@@@@@@@&*==;;;;::,<<11168tpjjjjjfjfaaaappaaaaappppppppppiirrw9989wwww00wiiwwwipppiippppiiiippppppsafjjjppppsppppppp",
"  .O@@@@@+@@@+++@@@#***=----;;,<1112478psjjjfjjfapppppaaaapaapapppppppiiiw088890wwiwirirwwiiiiwwppppiiiippppppppsfspppppffpppppp",
"  .O+@@@@@@@@@@+@@@#&***--;;-;>,<112478psjjjjjjfaapppassaaappapappppppppiiw998990wiiiiwwwriiiirippppiiiipppppppppsppppppffpppppp",
"  .O@@@@+@@@@@@@@@@#&***=;::;;,<111268iisjjjjfjssaapppaaappaapppppppppppiiiw990090riwwwwwwwiiwwippppiiiipppiippppppppppppspppppp",
"  .O+@@@@+@@@@@@@@@$&**=-;::-;,1<113688isjjjjjjsssappppapppapappppppppppiiiiw00980wirww0wwwwwwiippppiiirippiiriipppppppppppppppp",
"  oO+@@@@@@@@@++@@@#%*===-;;-;,,>112478ygjjhjhhsaaaaaaapaapapapaaaaappaaasappi08889wii99wwwwiwiiiiiiiiwwiiiiwwiippppiiii00iiiiii",
"  oO@@@@@@@@@@+@@@@#%*===-;;;;>,>>1258yadjjjhhdsaaaaaaapapapapapappaapaasaaaiiw98880ww00wwwwwiii88wiiiw8wwiiw8iippipiiiw00eiiiii",
"  .O+@@@@@++@@@@@@@#%****;::;;;;>>12588adjjjjhfsaapapapaapappaaaapppppaaaappiiiw088800wwww900wrw88wi8iww8wiiiiiipte0eeee0weieewe",
"  .O@@@@@@+@@@@@@@@#%****=:>>:;;>>1268yadjjjjhfsapapaaaapapaaapapaapppapppppiiiiw988790ww09900ww8w8i8iiiww8iiiiitrw00weew0w0wwee",
"  .O@@@@@@@@@@@@@@@@$%**=-;;>>:>>>1258yafjjjjjfsaaaaaaapapaaappppapaaaapppppppppiw0789999988800wiwwiiiiiiwwwii8890rr00rr097890ii",
"  .O+@@@@@@@@@@@@@@@$%&===-;::><>>12588ahjjjhhfsaaappapppapaaaapppapapapppppppppiiw99997888889008ww8iiwiiw88iw8890rr00rr076670we",
"  oO+@@@@@@@++@@@@@#%****=---:,,>>1268rahjjjjffsaaapaapaapppppapappapaapppppppaaiiiwww9777877890888888w8w8888w879999990006336800",
"  oO+@@@@@@@@@+@@@@#%***=----:><>><268rahjjhfssaapaaapaaapapaaaaaappapaappaaapaaiiiiiww97666666687787777777877766796666775224666",
"  .O+@@@@@@@@@@@@@@#&***----;;:::><278yuhjhffsaaaapapppaaaappaaapapppaaapaasaaaaiiiiiww06433333355444443444444444445445543223334",
"   oO@@@@@@@@@@@@@@#&**==--;::::;:>1688ahjhffsaapaapppapppaaaappappppapppasappasiiiiiii06333333345565544444344545554444443444443",
"   .o++@@@@@@@@@@@#$****--;::;:;::<168ragjhhfsaaapaaapaaappapaaaapaapapappaappppiiiiiwww763334567888w877787768ww0877887767090077",
"    .o+@+@@@@@@@@@#$&**=--;;:::;;><2688ygjjffsaapapapapapapppapaaaaaapapapppppppiiiiiww08743346888iii8i8iww80wiiiw00iw080wwieww0",
"     XO++++@@@@@@@@#****==-;::;:>><2688yfjhffsaapapppaapappppapapaaapaapppppppppiiii00ww8753346888wiiiwiiwiwwiiiiwiiiiwiwiiiiiei",
"      Xo+++++@@@@@@#&***==--;;:>><<268yahjfffsaapapppppaappaappppapaapppppppppppiiiiwwww08643457w8iiiiiiiiiiiwiiiiiwiiiiiiwiiiie",
"       .o++@@@@@@@@#&***=;;;;;:<<<12688yhjffssaipapaappaaaappaapappapapppppppppp9wiiiwwww0853345888iww8wwwwiw0wiiw080wii000wiiw0",
"       .o+@@@@@@@@@#&**=-;;:;;:<111268yahjhfsaaipaapaaaappaaaapapappapappppppppp0wwiwwwww086434567788i8888ii080www0880we0880ee07",
"      .Oo++@@@@@@@@$%***:;::;:>>111259qygjjgfdaaaaaaaaaaaaaaaaapapppppppppppppptttttwwwww07446886556780800ii99wwww0000ii8900iw00",
"     .O++++@@@@@@@@$%***-:;:::>,<11268qygjjjffaataiaaiaipaapappapppppppppppppppptttwwwwww05447ww744577880090wwwwwwwwww90wwww80ww",
"  ...O++@@@@@@@@@@@$****;:;;::>><11258qygjjjhfaaaaaaaaiippppaapppppapapppppppppttttwtwwww06458tw864477889000wwww0wwwww0wwwww80ww",
"  .oO+@@@@@@@@@@@@@$*****;;:;:>,111258qagjjjjjaaaaaaaaiippppappppppaaspppppppppttwtiwwwww86458wt874467888800www0wwwwwwwwwww0080w",
"  .O+@@@@@@@@@@@@@@$%*****;;::>><11268qyhjjjjhfsaapaiaiapppspppspppappppppppiitttwttwwwww05467wt06444568880i0i00wwwwwwww8ii0w0ww",
"  .O+@@@@@@@@@@@@@$$******;:::>,<11169eagjjjjjffapapaaapspppspppppppppppppppiitetttttwwww86447wt08644466700080w0ww0wwwww008wwwww",
"  .O+@@@@@@@@@@@@@$$%*****-:::>>111168qagjjjjhffaaaaapappppppppppppppppppppttwwttttwwwwww05468wti88666446880800iwi9www0w0iwwwwww",
"  oO+@@@@@@@@@@@@@@$%****-;;;:>,<1<268qygjjjhhhaaapapapappspppppaappppppppppttttttwww0www06468tii087864466678800000wwwww08ww0000",
"  oO+@@@@@@@@@@@@@@#$%****-:::>>><1368qyfjjjjjfsaaapapaapapapppsasappppppppiiitttwwwwwwww87468tii08787664466880880088i8ii8i78088",
"  oO+@@@@@@@@@@@@@@#$%***--:::>><<1468qyfjjjjjfsaapapapaapapppppsaapppppppppiiitttwwwww0w06668wii088888644456778880i0000i0008888",
"  .O@@@@@@@@@@@@@@@#%%***-::::><<<1368eahjjjjffsapaaappapapaspppaappppppppiiiittwtwwww00076468wti8i8000664444567880080i88i87880i",
"  .O@@@@@@@@@@@@@@@#%***--:::><1111268rahjjjjhfsapapapapaappppppapppppaapppiittwtwwwww00764467tiiiiiiw886444346888808800000i0000",
"  .O+@@@@@@@@@@@@@@#******;:><11111268eahjjjjffsaapapapapapppppppppppaasppiittwtitww0w0763<147wti0i0008877664468888888808i00iiii",
"  .O@@@@@@@@@@@@@@+$%*****;:>,<<11<268rahjjjjhffaaapapaaapppppsppppppasapiitwwttttwww08741><47tii00ww0080886446678887788809iiii0",
"  oO+@@@@@@@@@@@@@@$***=--:::>,<11<168rahjjjjffsaaaaapapppppsppppppppaaaiitwttittwww000841><48wi000www00008644445677778888000ii0",
"  ooO@@@@@@@@@@@@@@$****---:::><21<168rahjjjjhffaaaapapaspppppppppppppppitttiipiwwww000731<168tti0wwwwwww00864444567778788787000",
"  .oOO++@@@@@@@@@@@$$%***;;:::>,121368rpshhhhfffaaaaappaaapappppppppppppppppppppwwww88641<1348titwwwwwww000076444446777787788808",
"   ..oO@+@@@@@@@@@@#$%***-;:::>,1223688ishjhjjffapappaappaaapppppaaaapppppppppitw0w00763<<1368ttwww00ww0w00087644445777777778888",
"    .o+@+@@@@@@@@@@$%%***;;:::>>>11468wthjjjjfssaaaaappaaaappppppasfjsapppppptewwwww86431<1347witwwww0www00087764434677777777888",
"  ...oO@++@@@@@@@@@$******;:;:>>>>1368wihjjjjffsaapapaaapaaapapppasjffappppppitwwwww874331<148witwwww0wwww0008776544567777877778",
"  .Xo+@+@@@@@@@@@@@$%*****-:;:>>><14788ifjjjjjfsaaaapaapppaapafsapaaaappiiiiiitrwwww086631<148titwww0wwww00000877775445678887777",
"   oO@+@@@@@@@@@@@+#%*****:;;:>>><1368tifjjjjjfsaaaaaapaapappasaappppappiiiiiiiitwwwww8743<160witwww0w0www0w00087776434456777667",
"  oOO@@@@@@@@@@@@+@#%****-::-::>11<158wifjjjhjfsaaaaappppaapppapppppppppiiiiiiitwwtwww08663360tiwwwww0wwwwww00008876434344565344",
"  .O@@@@@@@@@@@@+@@#%****--::;><11<168wifjjjjffsapaapaapapaappppppppppapiiiiiiitwwtttw00873367wiwwwwwww0wwwww0000877444333333333",
"  Xo@@@@@@@@@@@@@@@$$%***--::::<111258wpsjjfjfssaaapaapappppppppppppppppiippipiiwtitwwwww85468witwwwwwwwwwww0ww008886643<<<133<>",
"  .O+@@@@@@@@@@@@@@@$%***--:::>,<11268wpsjjjjjfsaapapaaappppppppppppppppppppppiitttttwwww86457witwwwwwww0wwwwwwww0088743<>>><1>>",
"  oO@@@@@@@@@@@@@@@@%%***-::::>>11<258tpsjjjjffsaaapaapaasappassppppppppppppppiiittwwwwww86457titwwwwwwwwwwww0w000088853<>>><<>>",
"  oO+@@@@@@@@@@@@@@$%****;::::>,<11258epsfjjjjfsaaaaaaaasfappasapppppppppppppppipiwwwwwww86568wiwwwww0wwwwwwww00w0008743<>>>>>>>",
" ..O+@@@@@@@@@@@@@@@%****--::::,<2<268tpasfjjfjsapapaaaaaappppappppppppppppppppppiittwwww86557tiwwwwwwwwww00www000989763<>>>>>>>",
" ..O+@@@@@@@@@@@@@@#******;;::><<12258rpaasfjfjsaapaappaapppppppppppppppppppppppppiittwww06457wiwwwwww0ww00www0000889763<>>>>>>>",
"  .o@@@@@@@@@@@@@@@#%****-::::>><2<258ippaasjjjjaaapapaasapppppppasspppppppppppppiiitwwww06458witwwwwwwwwww00ww000889763<>>>>>>>",
"  XO+@@@@@@@@@@@@@@#%***=---::>,<1<158pppaaafjffaapapaaaffappppppahhppppppppppppiiiittwww86468titww0wwwwwwwwww0008887763<>>>>>>>"
};
