/* XPM */
static char *result[] = {
/* columns rows colors chars-per-pixel */
"70 70 9 1 ",
"  c #080000",
". c #B97371",
"X c #68B2B4",
"o c #CF9C9B",
"O c #9ACCCD",
"+ c #E3C6C5",
"@ c #EFE0DF",
"# c white",
"$ c None",
/* pixels */
"$$$$$$$$$$$$$$$$$$$$$$$$$$$$$$$$$$$$$$$$$$$$$$$$$$$$$$$$$$$$$$$$$$$$$$",
"$$$$$$$$$$$$$$$$$$$$$$$$$$$$$$$$$$$$$$$$$$$$$$$$$$$$$$$$$$$$$$$$$$$$$$",
"$$$$$$$$$$$$$$$$$$$$$$$$$$$$$$$$$$$$$$$$$$$$$$$$$$$$$$$$$$$$$$$$$$$$$$",
"$$$$$$$$$$$$$$$$$$$$$$$$$$$$$$$$$$$$$$$$$$$$$$$$$$$$$$$$$$$$$$$$$$$$$$",
"$$$$$$$$$$$$$$$$$$$$$$$$$$$$$$$$$$$$$$$$$$$$$$$$$$$$$$$$$$$$$$$$$$$$$$",
"$$$$$$$$$$$$$$$$$$$$$$$$$$$$$$$$$$$$$$$$$$$$$$$$$$$$$$$$$$$$$$$$$$$$$$",
"$$$$$$$$$$$$$$$$$$$$$$$$$$$$$$$$$$$$$$$$$$$$$$$$$$$$$$$$$$$$$$$$$$$$$$",
"$$$$$$$$$$$$$$$$$$$$$$$$$$$$$$$$$$$$$$$            $$$$$$$$$$$$$$$$$$$",
"$$$$$$$$$$$$$$$$$$$$$$$$$$$$$$$$$$$$$$$            $$$$$$$$$$$$$$$$$$$",
"$$$$$$$$$$$$$$$$$$$$$$$$$$$$$$$$$                        $$$$$$$$$$$$$",
"$$$$$$$$$$$$$$$$$$$$$$$$$$$$$$$$$                        $$$$$$$$$$$$$",
"$$$$$$$$$$$$$$$$$$$$$$$$$$$$$            oooooooo            $$$$$$$$$",
"$$$$$$$$$$$$$$$$$$$$$$$$$$$$$            oooooooo            $$$$$$$$$",
"$$$$$$$$$$$$$$$$$$$$$$$$$$$        oo++++oo  oo++++++oo        $$$$$$$",
"$$$$$$$$$$$$$$$$$$$$$$$$$$$        oo++++oo  oo++++++oo        $$$$$$$",
"$$$$$$$$$$$$$$$$$$$$$$$$$      oo++++++XXoooo  oo++++++++oo      $$$$$",
"$$$$$$$$$$$$$$$$$$$$$$$$$      oo++++++XXoooo  oo++++++++oo      $$$$$",
"$$$$$$$$$$$$$$$$$$$$$        oo++++++OOOO  oooo  ++++++++++oo    $$$$$",
"$$$$$$$$$$$$$$$$$$$$$        oo++++++OOOO  oooo  ++++++++++oo    $$$$$",
"$$$$$$$$$$$$$$$$$          oo++++++++OOOO    ++oo++++++++++++oo    $$$",
"$$$$$$$$$$$$$$$$$          oo++++++++OOOO    ++oo++++++++++++oo    $$$",
"$$$$$$$$$$$$$              ++++++++OOOOOO    ++++++++++++++++++      $",
"$$$$$$$$$$$$$              ++++++++OOOOOO    ++++++++++++++++++      $",
"$$$$$$$          oooo    oo++++++++OOOOXX    ++++++++++++++++++oo    $",
"$$$$$$$          oooo    oo++++++++OOOOXX    ++++++++++++++++++oo    $",
"$$$$$          oooo..    ++++++++++OOOO++    ++++++++++++++++++++    $",
"$$$$$          oooo..    ++++++++++OOOO++    ++++++++++++++++++++    $",
"$$$      ..    ++++      ++++++++++XXOO++  oo++++++++++++++++++++oo   ",
"$$$      ..    ++++      ++++++++++XXOO++  oo++++++++++++++++++++oo   ",
"$$$    ....    ++++    oo++++++++++      oo++++++++++++++++++++++oo   ",
"$$$    ....    ++++    oo++++++++++      oo++++++++++++++++++++++oo   ",
"$              ++++    oo++++++++++  ##    oo++++++++++++++++++++++   ",
"$              ++++    oo++++++++++  ##    oo++++++++++++++++++++++   ",
"   oo++@@oo    ++++    oo++++++++++  ##      ++++++++++++++++++++++   ",
"   oo++@@oo    ++++    oo++++++++++  ##      ++++++++++++++++++++++   ",
"   ++++++++    ++++    oo++++++++++  ##      ++++++++++++++++++++++   ",
"   ++++++++    ++++    oo++++++++++  ##      ++++++++++++++++++++++   ",
"   ++++++oo    oooo    ..oo++++++++  ##      ++++++++++++++++++++++   ",
"   ++++++oo    oooo    ..oo++++++++  ##      ++++++++++++++++++++++   ",
"   oooooooo..    ..      oo++++++++  ##    oo++++++++++++++++++++oo   ",
"   oooooooo..    ..      oo++++++++  ##    oo++++++++++++++++++++oo   ",
"                         oooooo++++      oooo++++++++++++++++oooo    $",
"                         oooooo++++      oooo++++++++++++++++oooo    $",
"$                        ..oooooooooooooo....oo++++++++++oooooo..    $",
"$                        ..oooooooooooooo....oo++++++++++oooooo..    $",
"$    ..oooo    oooooo      oooooooooooooo    oooooooooooooooooo      $",
"$    ..oooo    oooooo      oooooooooooooo    oooooooooooooooooo      $",
"$    ..oooo    ........    ..ooooooooooOO    oo..  oooooooooo..    $$$",
"$    ..oooo    ........    ..ooooooooooOO    oo..  oooooooooo..    $$$",
"$$$    ....    ..........    ..ooooooOOOO  ..oo  ..oooooooo..    $$$$$",
"$$$    ....    ..........    ..ooooooOOOO  ..oo  ..oooooooo..    $$$$$",
"$$$$$              ........    ..ooOOOOOO  ..  ..oooooooo..      $$$$$",
"$$$$$              ........    ..ooOOOOOO  ..  ..oooooooo..      $$$$$",
"$$$$$$$                            OOOOOOXX..oooooooo..        $$$$$$$",
"$$$$$$$                            OOOOOOXX..oooooooo..        $$$$$$$",
"$$$$$$$$$$$$$$$$$$$                      OOOOoo..            $$$$$$$$$",
"$$$$$$$$$$$$$$$$$$$                      OOOOoo..            $$$$$$$$$",
"$$$$$$$$$$$$$$$$$$$$$$$$$$$$$$$$$                        $$$$$$$$$$$$$",
"$$$$$$$$$$$$$$$$$$$$$$$$$$$$$$$$$                        $$$$$$$$$$$$$",
"$$$$$$$$$$$$$$$$$$$$$$$$$$$$$$$$$$$$$              $$$$$$$$$$$$$$$$$$$",
"$$$$$$$$$$$$$$$$$$$$$$$$$$$$$$$$$$$$$              $$$$$$$$$$$$$$$$$$$",
"$$$$$$$$$$$$$$$$$$$$$$$$$$$$$$$$$$$$$$$$$$$$$$$$$$$$$$$$$$$$$$$$$$$$$$",
"$$$$$$$$$$$$$$$$$$$$$$$$$$$$$$$$$$$$$$$$$$$$$$$$$$$$$$$$$$$$$$$$$$$$$$",
"$$$$$$$$$$$$$$$$$$$$$$$$$$$$$$$$$$$$$$$$$$$$$$$$$$$$$$$$$$$$$$$$$$$$$$",
"$$$$$$$$$$$$$$$$$$$$$$$$$$$$$$$$$$$$$$$$$$$$$$$$$$$$$$$$$$$$$$$$$$$$$$",
"$$$$$$$$$$$$$$$$$$$$$$$$$$$$$$$$$$$$$$$$$$$$$$$$$$$$$$$$$$$$$$$$$$$$$$",
"$$$$$$$$$$$$$$$$$$$$$$$$$$$$$$$$$$$$$$$$$$$$$$$$$$$$$$$$$$$$$$$$$$$$$$",
"$$$$$$$$$$$$$$$$$$$$$$$$$$$$$$$$$$$$$$$$$$$$$$$$$$$$$$$$$$$$$$$$$$$$$$",
"$$$$$$$$$$$$$$$$$$$$$$$$$$$$$$$$$$$$$$$$$$$$$$$$$$$$$$$$$$$$$$$$$$$$$$",
"$$$$$$$$$$$$$$$$$$$$$$$$$$$$$$$$$$$$$$$$$$$$$$$$$$$$$$$$$$$$$$$$$$$$$$"
};
