/* XPM */
static char *result[] = {
/* columns rows colors chars-per-pixel */
"70 70 9 1 ",
"  c #080000",
". c #837F7F",
"X c #B97371",
"o c #CF9C9B",
"O c #9CC8CC",
"+ c #9CC8CD",
"@ c #E3C6C5",
"# c white",
"$ c None",
/* pixels */
"$$$$$$$$$$$$$$$$$$$$$$$$$$$$$$$$$$$$$$$$$$$$$$$$$$$$$$$$$$$$$$$$$$$$$$",
"$$$$$$$$$$$$$$$$$$$$$$$$$$$$$$$$$$$$$$$$$$$$$$$$$$$$$$$$$$$$$$$$$$$$$$",
"$$$$$$$$$$$$$$$$$$$$$$$$$$$                $$$$$$$$$$$$$$$$$$$$$$$$$$$",
"$$$$$$$$$$$$$$$$$$$$$$$$$$$                $$$$$$$$$$$$$$$$$$$$$$$$$$$",
"$$$$$$$$$$$$$$$$$$$$$$$                        $$$$$$$$$$$$$$$$$$$$$$$",
"$$$$$$$$$$$$$$$$$$$$$$$                        $$$$$$$$$$$$$$$$$$$$$$$",
"$$$$$$$$$$$$$$$$$$$        oooooooooooooooo        $$$$$$$$$$$$$$$$$$$",
"$$$$$$$$$$$$$$$$$$$        oooooooooooooooo        $$$$$$$$$$$$$$$$$$$",
"$$$$$$$$$$$$$$$$$      oo@@@@@@@@@@@@@@@@@@@@oo      $$$$$$$$$$$$$$$$$",
"$$$$$$$$$$$$$$$$$      oo@@@@@@@@@@@@@@@@@@@@oo      $$$$$$$$$$$$$$$$$",
"$$$$$$$$$$$$$$$    oo@@@@@@@@oo@@@@@@@@oo@@@@@@@@oo    $$$$$$$$$$$$$$$",
"$$$$$$$$$$$$$$$    oo@@@@@@@@oo@@@@@@@@oo@@@@@@@@oo    $$$$$$$$$$$$$$$",
"$$$$$$$$$$$$$    oo@@@@@@@@ooXX@@@@@@@@XXoo@@@@@@@@oo    $$$$$$$$$$$$$",
"$$$$$$$$$$$$$    oo@@@@@@@@ooXX@@@@@@@@XXoo@@@@@@@@oo    $$$$$$$$$$$$$",
"$$$$$$$$$$$    ooooooooXXXXXXoo@@@@@@@@ooXXXXXXoooooooo    $$$$$$$$$$$",
"$$$$$$$$$$$    ooooooooXXXXXXoo@@@@@@@@ooXXXXXXoooooooo    $$$$$$$$$$$",
"$$$$$$$$$$$    XX        oooo@@@@@@@@@@@@oooo        XX    $$$$$$$$$$$",
"$$$$$$$$$$$    XX        oooo@@@@@@@@@@@@oooo        XX    $$$$$$$$$$$",
"$$$$$$$$$    oo  ####      @@@@@@@@@@@@@@@@  ####      oo    $$$$$$$$$",
"$$$$$$$$$    oo  ####      @@@@@@@@@@@@@@@@  ####      oo    $$$$$$$$$",
"$$$$$$$$$    @@  ####      @@@@@@@@@@@@@@@@  ####      @@    $$$$$$$$$",
"$$$$$$$$$    @@  ####      @@@@@@@@@@@@@@@@  ####      @@    $$$$$$$$$",
"$$$$$$$    oo@@            @@oo        oo@@            @@oo    $$$$$$$",
"$$$$$$$    oo@@            @@oo        oo@@            @@oo    $$$$$$$",
"$$$$$$$    oo@@            @@  ########  @@            @@oo    $$$$$$$",
"$$$$$$$    oo@@            @@  ########  @@            @@oo    $$$$$$$",
"$$$$$$$    oo@@ooOOOOOOoooo@@  ..    ..  @@ooooOOOOOOoo@@oo    $$$$$$$",
"$$$$$$$    oo@@ooOOOOOOoooo@@  ..    ..  @@ooooOOOOOOoo@@oo    $$$$$$$",
"$$$$$$$    ooooooOOOOOO@@@@@@            @@@@@@OOOOOOoooooo    $$$$$$$",
"$$$$$$$    ooooooOOOOOO@@@@@@            @@@@@@OOOOOOoooooo    $$$$$$$",
"$$$$$$$    XXooooOOOOOO@@@@@@            @@@@@@++++++ooooXX    $$$$$$$",
"$$$$$$$    XXooooOOOOOO@@@@@@            @@@@@@++++++ooooXX    $$$$$$$",
"$$$$$$$$$            OO@@@@@@            @@@@@@++            $$$$$$$$$",
"$$$$$$$$$            OO@@@@@@            @@@@@@++            $$$$$$$$$",
"$$$$$$$$$              oo@@@@    ####    @@@@oo              $$$$$$$$$",
"$$$$$$$$$              oo@@@@    ####    @@@@oo              $$$$$$$$$",
"$$$$$$$      oo@@oo      @@@@oo        oo@@@@      oo@@oo      $$$$$$$",
"$$$$$$$      oo@@oo      @@@@oo        oo@@@@      oo@@oo      $$$$$$$",
"$$$$$$$    oo@@@@@@oo    @@@@@@@@@@@@@@@@@@@@    oo@@@@@@oo    $$$$$$$",
"$$$$$$$    oo@@@@@@oo    @@@@@@@@@@@@@@@@@@@@    oo@@@@@@oo    $$$$$$$",
"$$$$$$$    @@@@@@@@@@    @@@@@@@@oooo@@@@@@@@    @@@@@@@@@@    $$$$$$$",
"$$$$$$$    @@@@@@@@@@    @@@@@@@@oooo@@@@@@@@    @@@@@@@@@@    $$$$$$$",
"$$$$$$$    oo@@@@@@@@    @@@@@@@@@@@@@@@@@@@@    @@@@@@@@oo    $$$$$$$",
"$$$$$$$    oo@@@@@@@@    @@@@@@@@@@@@@@@@@@@@    @@@@@@@@oo    $$$$$$$",
"$$$$$$$    XXoo@@@@oo    oo@@@@@@@@@@@@@@@@oo    oo@@@@ooXX    $$$$$$$",
"$$$$$$$    XXoo@@@@oo    oo@@@@@@@@@@@@@@@@oo    oo@@@@ooXX    $$$$$$$",
"$$$$$$$$$    XXooooXXXX    XXooooooooooooXX    XXXXooooXX    $$$$$$$$$",
"$$$$$$$$$    XXooooXXXX    XXooooooooooooXX    XXXXooooXX    $$$$$$$$$",
"$$$$$$$$$$$    XXXXXXXX                        XXXXXXXX    $$$$$$$$$$$",
"$$$$$$$$$$$    XXXXXXXX                        XXXXXXXX    $$$$$$$$$$$",
"$$$$$$$$$$$$$      XXXX                        XXXX      $$$$$$$$$$$$$",
"$$$$$$$$$$$$$      XXXX                        XXXX      $$$$$$$$$$$$$",
"$$$$$$$$$$$$$$$            oooooooooooooooo            $$$$$$$$$$$$$$$",
"$$$$$$$$$$$$$$$            oooooooooooooooo            $$$$$$$$$$$$$$$",
"$$$$$$$$$$$$$$$$$$$        oo@@@@@@@@@@@@oo        $$$$$$$$$$$$$$$$$$$",
"$$$$$$$$$$$$$$$$$$$        oo@@@@@@@@@@@@oo        $$$$$$$$$$$$$$$$$$$",
"$$$$$$$$$$$$$$$$$$$$$$$    @@@@@@@@@@@@@@@@    $$$$$$$$$$$$$$$$$$$$$$$",
"$$$$$$$$$$$$$$$$$$$$$$$    @@@@@@@@@@@@@@@@    $$$$$$$$$$$$$$$$$$$$$$$",
"$$$$$$$$$$$$$$$$$$$$$$$    @@@@oo    oo@@@@    $$$$$$$$$$$$$$$$$$$$$$$",
"$$$$$$$$$$$$$$$$$$$$$$$    @@@@oo    oo@@@@    $$$$$$$$$$$$$$$$$$$$$$$",
"$$$$$$$$$$$$$$$$$$$$$$$    @@@@@@    oo@@@@    $$$$$$$$$$$$$$$$$$$$$$$",
"$$$$$$$$$$$$$$$$$$$$$$$    @@@@@@    oo@@@@    $$$$$$$$$$$$$$$$$$$$$$$",
"$$$$$$$$$$$$$$$$$$$$$$$      @@@@    oo@@      $$$$$$$$$$$$$$$$$$$$$$$",
"$$$$$$$$$$$$$$$$$$$$$$$      @@@@    oo@@      $$$$$$$$$$$$$$$$$$$$$$$",
"$$$$$$$$$$$$$$$$$$$$$$$$$                    $$$$$$$$$$$$$$$$$$$$$$$$$",
"$$$$$$$$$$$$$$$$$$$$$$$$$                    $$$$$$$$$$$$$$$$$$$$$$$$$",
"$$$$$$$$$$$$$$$$$$$$$$$$$$$      $$$$      $$$$$$$$$$$$$$$$$$$$$$$$$$$",
"$$$$$$$$$$$$$$$$$$$$$$$$$$$      $$$$      $$$$$$$$$$$$$$$$$$$$$$$$$$$",
"$$$$$$$$$$$$$$$$$$$$$$$$$$$$$$$$$$$$$$$$$$$$$$$$$$$$$$$$$$$$$$$$$$$$$$",
"$$$$$$$$$$$$$$$$$$$$$$$$$$$$$$$$$$$$$$$$$$$$$$$$$$$$$$$$$$$$$$$$$$$$$$"
};
