/* XPM */
static char *result[] = {
/* columns rows colors chars-per-pixel */
"70 70 2 1 ",
"  c #E70000",
". c None",
/* pixels */
"......................................................................",
"......................................................................",
".............................                .........................",
".............................                .........................",
".........................                        .....................",
".........................                        .....................",
".....................                                .................",
".....................                                .................",
"...................                                    ...............",
"...................                                    ...............",
".................                                        .............",
".................                                        .............",
"...............                                            ...........",
"...............                                            ...........",
".............                                                .........",
".............                                                .........",
".............                                                .........",
".............                                                .........",
"...........                                                    .......",
"...........                                                    .......",
"...........                                                    .......",
"...........                                                    .......",
".........                                                        .....",
".........                                                        .....",
".........                                                        .....",
".........                                                        .....",
".........                                                        .....",
".........                                                        .....",
".........                                                        .....",
".........                                                        .....",
".........                                                        .....",
".........                                                        .....",
"...........                                                    .......",
"...........                                                    .......",
"...........                                                    .......",
"...........                                                    .......",
".............                                                .........",
".............                                                .........",
".............                                                .........",
".............                                                .........",
"...............                                            ...........",
"...............                                            ...........",
".................                                        .............",
".................                                        .............",
"...................                                    ...............",
"...................                                    ...............",
".....................                                .................",
".....................                                .................",
".......................                            ...................",
".......................                            ...................",
".....................                                .................",
".....................                                .................",
"...................                                    ...............",
"...................                                    ...............",
"...................                                    ...............",
"...................                                    ...............",
"...................                                    ...............",
"...................                                    ...............",
".....................                                .................",
".....................                                .................",
".......................                            ...................",
".......................                            ...................",
".........................                        .....................",
".........................                        .....................",
"...........................                    .......................",
"...........................                    .......................",
".............................      ....      .........................",
".............................      ....      .........................",
"......................................................................",
"......................................................................"
};
