/* XPM */
static char *result[] = {
/* columns rows colors chars-per-pixel */
"70 70 10 1 ",
"  c black",
". c #030000",
"X c #080000",
"o c #B97371",
"O c #CF9C9B",
"+ c #9CC8CC",
"@ c #9CC8CD",
"# c #E3C6C5",
"$ c white",
"% c None",
/* pixels */
"%%%%%%%%%%%%%%%%%%%%%%%%%%%%%%%%%%%%%%%%%%%%%%%%%%%%%%%%%%%%%%%%%%%%%%",
"%%%%%%%%%%%%%%%%%%%%%%%%%%%%%%%%%%%%%%%%%%%%%%%%%%%%%%%%%%%%%%%%%%%%%%",
"%%%%%%%%%%%%%%%%%%%%%%%%%%%%%%XXXXXXXXXXXXXXXX%%%%%%%%%%%%%%%%%%%%%%%%",
"%%%%%%%%%%%%%%%%%%%%%%%%%%%%%%XXXXXXXXXXXXXXXX%%%%%%%%%%%%%%%%%%%%%%%%",
"%%%%%%%%%%%%%%%%%%%%%%%%%%XXXXXXXXXXXXXXXXXXXXXXXX%%%%%%%%%%%%%%%%%%%%",
"%%%%%%%%%%%%%%%%%%%%%%%%%%XXXXXXXXXXXXXXXXXXXXXXXX%%%%%%%%%%%%%%%%%%%%",
"%%%%%%%%%%%%%%%%%%%%%%XXXXXXXXOOOOOOOOOOOOOOOOXXXXXXXX%%%%%%%%%%%%%%%%",
"%%%%%%%%%%%%%%%%%%%%%%XXXXXXXXOOOOOOOOOOOOOOOOXXXXXXXX%%%%%%%%%%%%%%%%",
"%%%%%%%%%%%%%%%%%%%%XXXXXXOO####################OOXXXXXX%%%%%%%%%%%%%%",
"%%%%%%%%%%%%%%%%%%%%XXXXXXOO####################OOXXXXXX%%%%%%%%%%%%%%",
"%%%%%%%%%%%%%%%%%%XXXXOO############################OOXXXX%%%%%%%%%%%%",
"%%%%%%%%%%%%%%%%%%XXXXOO############################OOXXXX%%%%%%%%%%%%",
"%%%%%%%%%%%%%%%%XXXXOO################################OOXXXX%%%%%%%%%%",
"%%%%%%%%%%%%%%%%XXXXOO################################OOXXXX%%%%%%%%%%",
"%%%%%%%%%%%%%%XXXXOO####################################OOXXXX%%%%%%%%",
"%%%%%%%%%%%%%%XXXXOO####################################OOXXXX%%%%%%%%",
"%%%%%%%%%%%%%%XXXX################OO####OO################XXXX%%%%%%%%",
"%%%%%%%%%%%%%%XXXX################OO####OO################XXXX%%%%%%%%",
"%%%%%%%%%%%%XXXXOO################OO####OO################OOXXXX%%%%%%",
"%%%%%%%%%%%%XXXXOO################OO####OO################OOXXXX%%%%%%",
"%%%%%%%%%%%%XXXX##################OO####OO##################XXXX%%%%%%",
"%%%%%%%%%%%%XXXX##################OO####OO##################XXXX%%%%%%",
"%%%%%%%%%%XXXXOO################OO########OO################OOXXXX%%%%",
"%%%%%%%%%%XXXXOO################OO########OO################OOXXXX%%%%",
"%%%%%%%%%%XXXXOO############################################OOXXXX%%%%",
"%%%%%%%%%%XXXXOO############################################OOXXXX%%%%",
"%%%%%%%%%%XXXXOO##############OO############OO##############OOXXXX%%%%",
"%%%%%%%%%%XXXXOO##############OO############OO##############OOXXXX%%%%",
"%%%%%%%%%%XXXXOOOO############oo############oo############OOOOXXXX%%%%",
"%%%%%%%%%%XXXXOOOO############oo############oo############OOOOXXXX%%%%",
"%%%%%%%%%%XXXXooOO##########OOoo############ooOO##########OOooXXXX%%%%",
"%%%%%%%%%%XXXXooOO##########OOoo############ooOO##########OOooXXXX%%%%",
"%%%%%%%%%%%%XXXXOOXXOOOOOOOOooXX############XXooOOOOOOOOXXOOXXXX%%%%%%",
"%%%%%%%%%%%%XXXXOOXXOOOOOOOOooXX############XXooOOOOOOOOXXOOXXXX%%%%%%",
"%%%%%%%%%%%%XXXXooooXXXXXXXXXXOO##XXXXXXXX##OOXXXXXXXXXXOOooXXXX%%%%%%",
"%%%%%%%%%%%%XXXXooooXXXXXXXXXXOO##XXXXXXXX##OOXXXXXXXXXXOOooXXXX%%%%%%",
"%%%%%%%%%%%%%%XXXXXXXXXXXXXXXXooXXXXXXXXXXXX####OO++++++OOXXXX%%%%%%%%",
"%%%%%%%%%%%%%%XXXXXXXXXXXXXXXXooXXXXXXXXXXXX####OO++++++OOXXXX%%%%%%%%",
"%%%%%%%%%%%%%%XXXXXXXXOO##OOXXXXXX$$$$$$$$XX##XXXXXXXX@@ooXXXX%%%%%%%%",
"%%%%%%%%%%%%%%XXXXXXXXOO##OOXXXXXX$$$$$$$$XX##XXXXXXXX@@ooXXXX%%%%%%%%",
"%%%%%%%%%%%%%%%%XXXXOO######OOXXXXXXXXXXXXXXXXXXXXXXXXXXXXXX%%%%%%%%%%",
"%%%%%%%%%%%%%%%%XXXXOO######OOXXXXXXXXXXXXXXXXXXXXXXXXXXXXXX%%%%%%%%%%",
"%%%%%%%%%%%%%%%%XXXXooOOOOOOooXXOOOOOOOOooXXXXOO##OOXXXXXXXX%%%%%%%%%%",
"%%%%%%%%%%%%%%%%XXXXooOOOOOOooXXOOOOOOOOooXXXXOO##OOXXXXXXXX%%%%%%%%%%",
"%%%%%%%%%%%%%%%%%%XXXXooOOooXXXXOOOOOOOOXXXXOO######OOXXXX%%%%%%%%%%%%",
"%%%%%%%%%%%%%%%%%%XXXXooOOooXXXXOOOOOOOOXXXXOO######OOXXXX%%%%%%%%%%%%",
"%%%%%%%%%%%%%%%%%%XXXXXXXXXXXXooooooooooXXXXOO####OOooXXXX%%%%%%%%%%%%",
"%%%%%%%%%%%%%%%%%%XXXXXXXXXXXXooooooooooXXXXOO####OOooXXXX%%%%%%%%%%%%",
"%%%%%%%%%%%%%%%%%%%%XXXXXXXXXXXXXXXXXXXXXXXXXXOOOOooXXXX%%%%%%%%%%%%%%",
"%%%%%%%%%%%%%%%%%%%%XXXXXXXXXXXXXXXXXXXXXXXXXXOOOOooXXXX%%%%%%%%%%%%%%",
"%%%%%%%%%%%%%%%%%%XXXXXXooooooXXXXXXXXXXXXXXXXXXXXXXXX%%%%%%%%%%%%%%%%",
"%%%%%%%%%%%%%%%%%%XXXXXXooooooXXXXXXXXXXXXXXXXXXXXXXXX%%%%%%%%%%%%%%%%",
"%%%%%%%%%%%%%%%%%%XXXXOO####ooooooooooooooXXXXXXXXXX%%%%%%%%%%%%%%%%%%",
"%%%%%%%%%%%%%%%%%%XXXXOO####ooooooooooooooXXXXXXXXXX%%%%%%%%%%%%%%%%%%",
"%%%%%%%%%%%%%%%%XXXXOO######OOooOOOOOOooXXXXXX%%%%%%%%%%%%%%%%%%%%%%%%",
"%%%%%%%%%%%%%%%%XXXXOO######OOooOOOOOOooXXXXXX%%%%%%%%%%%%%%%%%%%%%%%%",
"%%%%%%%%%%%%%%%%XXXXOO######ooooOOOOooXXXXXX%%%%%%%%%%%%%%%%%%%%%%%%%%",
"%%%%%%%%%%%%%%%%XXXXOO######ooooOOOOooXXXXXX%%%%%%%%%%%%%%%%%%%%%%%%%%",
"%%%%%%%%%%%%%%%%XXXXXXOOOOOOXXXXooooXXXXXX%%%%%%%%%%%%%%%%%%%%%%%%%%%%",
"%%%%%%%%%%%%%%%%XXXXXXOOOOOOXXXXooooXXXXXX%%%%%%%%%%%%%%%%%%%%%%%%%%%%",
"%%%%%%%%%%%%%%%%%%XXXXXXXXXXooooooXXXXXX%%%%%%%%%%%%%%%%%%%%%%%%%%%%%%",
"%%%%%%%%%%%%%%%%%%XXXXXXXXXXooooooXXXXXX%%%%%%%%%%%%%%%%%%%%%%%%%%%%%%",
"%%%%%%%%%%%%%%%%%%%%XXXXXXXX..    XXXX%%%%%%%%%%%%%%%%%%%%%%%%%%%%%%%%",
"%%%%%%%%%%%%%%%%%%%%XXXXXXXX..    XXXX%%%%%%%%%%%%%%%%%%%%%%%%%%%%%%%%",
"%%%%%%%%%%%%%%%%%%%%%%%%%%XXXXXXXXXX%%%%%%%%%%%%%%%%%%%%%%%%%%%%%%%%%%",
"%%%%%%%%%%%%%%%%%%%%%%%%%%XXXXXXXXXX%%%%%%%%%%%%%%%%%%%%%%%%%%%%%%%%%%",
"%%%%%%%%%%%%%%%%%%%%%%%%%%%%%%%%%%%%%%%%%%%%%%%%%%%%%%%%%%%%%%%%%%%%%%",
"%%%%%%%%%%%%%%%%%%%%%%%%%%%%%%%%%%%%%%%%%%%%%%%%%%%%%%%%%%%%%%%%%%%%%%",
"%%%%%%%%%%%%%%%%%%%%%%%%%%%%%%%%%%%%%%%%%%%%%%%%%%%%%%%%%%%%%%%%%%%%%%",
"%%%%%%%%%%%%%%%%%%%%%%%%%%%%%%%%%%%%%%%%%%%%%%%%%%%%%%%%%%%%%%%%%%%%%%"
};
