/* XPM */
static char *_232460c76434ec98a55006dd61ca75bfw9fRCPUzvJuhQOC[] = {
/* columns rows colors chars-per-pixel */
"57 30 7 1 ",
"  c None",
". c #080000",
"X c #775422",
"o c #9E712E",
"O c #C68F3C",
"+ c gray75",
"@ c white",
/* pixels */
"                                                         ",
"                                                         ",
"                                                         ",
"                   ..........                            ",
"             ......................                      ",
"             ......................                      ",
"           ........o++@@@@OOo........                    ",
"           ........o++@@@@OOo........                    ",
"          ...ooOOOO+@@@@..ooOOOOOoo...                   ",
"          ...ooOOOO+@@@@..ooOOOOOoo...                   ",
"        ...ooOOOO++@@@OOOOOOOOOOOOOoo...                 ",
"        ...ooOO++@@@........OOOOOOOoo...                 ",
"        ...ooOO++@@@........OOOOOOOoo...                 ",
"        .....++@@@@Ooo..ooOOOOOOOoo.....                 ",
"        .....++@@@@Ooo..ooOOOOOOOoo.....                 ",
"        ...XX......oooooooooo......XX...                 ",
"        ...XX......oooooooooo......XX...                 ",
"          ...XXoooo..........ooooXX...                   ",
"          ...XXoooo..........ooooXX...                   ",
"           ........XooooooooX........                    ",
"             ......................                      ",
"             ......................                      ",
"                   ..........                            ",
"                   ..........                            ",
"                                                         ",
"                                                         ",
"                                                         ",
"                                                         ",
"                                                         ",
"                                                         "
};
