/* XPM */
static char *_13acb58e6a343f3cf49079aa27bcc89FbgHnYfPufpE6GeB[] = {
/* columns rows colors chars-per-pixel */
"57 30 5 1 ",
"  c None",
". c #080000",
"X c #775422",
"o c #9E712E",
"O c #C68F3C",
/* pixels */
"                                                         ",
"                                                         ",
"                                                         ",
"                                                         ",
"                   ..........                            ",
"                   ..........                            ",
"             ......................                      ",
"           ........oOO..OOOOo........                    ",
"           ........oOO..OOOOo........                    ",
"          ...ooOOOOo......ooOOOOOoo...                   ",
"          ...ooOOOOo......ooOOOOOoo...                   ",
"        ...ooOOOOOO.ooOOOOOOOOOOOOOoo...                 ",
"        ...ooOOOOOO.ooOOOOOOOOOOOOOoo...                 ",
"        ...ooOOOOOOo........OOOOOOOoo...                 ",
"        ...ooOOOOOOo........OOOOOOOoo...                 ",
"        .....ooOOOOOoo..ooOOOOOOOoo.....                 ",
"        ...XX......oooooooooo......XX...                 ",
"        ...XX......oooooooooo......XX...                 ",
"          ...XXoooo..........ooooXX...                   ",
"          ...XXoooo..........ooooXX...                   ",
"           ........XooooooooX........                    ",
"           ........XooooooooX........                    ",
"             ......................                      ",
"             ......................                      ",
"                   ..........                            ",
"                                                         ",
"                                                         ",
"                                                         ",
"                                                         ",
"                                                         "
};
