/* XPM */
static char *_4ba1a64b96d4f768ecc9802fdae9718wsH99VWZOtlsWvTB[] = {
/* columns rows colors chars-per-pixel */
"57 30 7 1 ",
"  c None",
". c #080000",
"X c #775422",
"o c #9E712E",
"O c #C68F3C",
"+ c gray75",
"@ c white",
/* pixels */
"                                                         ",
"                                                         ",
"                                                         ",
"                   ...........                           ",
"              .....................                      ",
"              .....................                      ",
"            .......ooOO.OO++@@.......                    ",
"            .......ooOO.OO++@@.......                    ",
"          ....oOOOOoo...++@@@@@@Ooo....                  ",
"          ....oOOOOoo...++@@@@@@Ooo....                  ",
"        ....ooOOOOO..oo+@@@@@@OOOOOoo....                ",
"        ....ooOOOOOoo++@@@@@OOOOOOOoo....                ",
"        ....ooOOOOOoo++@@@@@OOOOOOOoo....                ",
"        ......oOOOO++@@@@@OOOOOOOoo......                ",
"        ......oOOOO++@@@@@OOOOOOOoo......                ",
"        ....XX.....@@@@@oooooo.....XX....                ",
"        ....XX.....@@@@@oooooo.....XX....                ",
"          ....Xoooo...........oooXX....                  ",
"          ....Xoooo...........oooXX....                  ",
"            .......XXoooooooXX.......                    ",
"              .....................                      ",
"              .....................                      ",
"                   ...........                           ",
"                   ...........                           ",
"                                                         ",
"                                                         ",
"                                                         ",
"                                                         ",
"                                                         ",
"                                                         "
};
