/* XPM */
static char *b98e2dbbffbb47badc6f70cdc635b8796toaNYEbjnteaoiw[] = {
/* columns rows colors chars-per-pixel */
"57 30 7 1 ",
"  c None",
". c #080000",
"X c #775422",
"o c #9E712E",
"O c #C68F3C",
"+ c gray75",
"@ c white",
/* pixels */
"                                                         ",
"                   ...........                           ",
"                   ...........                           ",
"              .....................                      ",
"              .....................                      ",
"            .......ooOO.OOOOoo.......                    ",
"            .......ooOO.OOOOoo.......                    ",
"          ....oOOOOoo.....ooOOOOOoo....                  ",
"        ....ooOOOOO..ooOOOOOOOOOOOO++....                ",
"        ....ooOOOOO..ooOOOOOOOOOOOO++....                ",
"        ....ooOOOOOoo.......OOOOO++@@....                ",
"        ....ooOOOOOoo.......OOOOO++@@....                ",
"        ......oOOOOOOoo.ooOOOOOO+@@......                ",
"        ......oOOOOOOoo.ooOOOOOO+@@......                ",
"        ....XX.....ooooooooooo.....XX....                ",
"        ....XX.....ooooooooooo.....XX....                ",
"          ....Xoooo...........oooXX....                  ",
"            .......XXoooooooXX.......                    ",
"            .......XXoooooooXX.......                    ",
"              .....................                      ",
"              .....................                      ",
"                   ...........                           ",
"                   ...........                           ",
"                                                         ",
"                                                         ",
"                                                         ",
"                                                         ",
"                                                         ",
"                                                         ",
"                                                         "
};
