/* XPM */
static char *_51e5ceb73ca4b56f4b7fad40e41fd71sQsIkNmM80OZ9fKF[] = {
/* columns rows colors chars-per-pixel */
"57 30 7 1 ",
"  c None",
". c #080000",
"X c #775422",
"o c #9E712E",
"O c #C68F3C",
"+ c gray75",
"@ c white",
/* pixels */
"                                                         ",
"                                                         ",
"                                                         ",
"                                                         ",
"                   ...........                           ",
"                   ...........                           ",
"              .....................                      ",
"            .......@@OO.OOOOoo.......                    ",
"            .......@@OO.OOOOoo.......                    ",
"          ....o++@@oo.....ooOOOOOoo....                  ",
"          ....o++@@oo.....ooOOOOOoo....                  ",
"        ....oo+@@OO..ooOOOOOOOOOOOOoo....                ",
"        ....oo+@@OO..ooOOOOOOOOOOOOoo....                ",
"        ....++@OOOOoo.......OOOOOOOoo....                ",
"        ....++@OOOOoo.......OOOOOOOoo....                ",
"        ......oOOOOOOoo.ooOOOOOOOoo......                ",
"        ....XX.....ooooooooooo.....XX....                ",
"        ....XX.....ooooooooooo.....XX....                ",
"          ....Xoooo...........oooXX....                  ",
"          ....Xoooo...........oooXX....                  ",
"            .......XXoooooooXX.......                    ",
"            .......XXoooooooXX.......                    ",
"              .....................                      ",
"              .....................                      ",
"                   ...........                           ",
"                                                         ",
"                                                         ",
"                                                         ",
"                                                         ",
"                                                         "
};
