/* XPM */
static char * \\wsl_localhost\Ubuntu\home\luxojr\project\so_long\sprite\number\black\0_xpm[] = {
"20 30 2 1",
" 	c None",
".	c #362F2D",
"                    ",
"        .....       ",
"        .....       ",
"     .........      ",
"     ...........    ",
"     ...........    ",
"   .............    ",
"   .....     ...    ",
"   .....     ...    ",
"   .....     .....  ",
"   .....     .....  ",
"   ...       .....  ",
"   ...       .....  ",
"   ...       .....  ",
"  ....       .....  ",
"  ....       .....  ",
"  ....       .....  ",
"  ....       .....  ",
"  ....       .....  ",
"  ....       .....  ",
"  ......     .....  ",
"  ......     .....  ",
"   .....   .....    ",
"   .............    ",
"   .............    ",
"     .........      ",
"     .........      ",
"      ....          ",
"                    ",
"                    "};
