/* XPM */
static char * \\wsl_localhost\Ubuntu\home\luxojr\project\so_long\sprite\number\black\1_xpm[] = {
"21 36 2 1",
" 	c None",
".	c #362F2D",
"                     ",
"        ......       ",
"        ......       ",
"      ........       ",
"      ........       ",
"    ..........       ",
"    ..........       ",
"    ..........       ",
"    ..........       ",
"    ..........       ",
"    ..........       ",
"        ......       ",
"        ......       ",
"        ......       ",
"        ......       ",
"        ......       ",
"        ......       ",
"        ......       ",
"        ......       ",
"        ......       ",
"        ......       ",
"        ......       ",
"        ......       ",
"        ......       ",
"        ......       ",
"        ......       ",
"        ......       ",
"    ..........       ",
"    ..........       ",
"    ............     ",
"    ............     ",
"  ..............     ",
"  ..............     ",
"                     ",
"                     ",
"                     "};
