/* XPM */
static char * \\wsl_localhost\Ubuntu\home\luxojr\project\so_long\sprite\number\black\7_xpm[] = {
"28 32 2 1",
" 	c None",
".	c #362F2D",
"   ........................ ",
"   ........................ ",
"   ........................ ",
"   ........................ ",
"   ........      ........   ",
"   ........      ........   ",
"     ..          ......     ",
"     ..          ......     ",
"               ........     ",
"               ........     ",
"             ........       ",
"             ........       ",
"             ......         ",
"             ......         ",
"           ........         ",
"           ........         ",
"           ......           ",
"           ......           ",
"         ........           ",
"         ........           ",
"         ......             ",
"         ......             ",
"       ........             ",
"       ........             ",
"       ......               ",
"       ......               ",
"         ....               ",
"         ....               ",
"                            ",
"                            ",
"                            ",
"                            "};
