/* XPM */
static char * C:\Users\mathi\OneDrive\Desktop\dppr\tile4_xpm[] = {
"128 100 14 1",
" 	c None",
".	c #30221D",
"+	c #422D25",
"@	c #54392F",
"#	c #33221C",
"$	c #3D2A23",
"%	c #795041",
"&	c #382720",
"*	c #2E201A",
"=	c #2F221C",
"-	c #271B16",
";	c #281D19",
">	c #201714",
",	c #B0735D",
"                                                                                                                                ",
"                                                                                                                                ",
"                                                                                                                                ",
"                                                                                                                                ",
"                                                                                                                                ",
"                                                                                                                                ",
"                                                                                                                                ",
"                                                                                                                                ",
"                                                                                                                                ",
"                                                                                                                                ",
"                                                                                                                                ",
"                                                                                                                                ",
"                                                                                                                                ",
"                                                                                                                                ",
"                                                                                                                                ",
"                                                                                                                                ",
"                                           ..........................................                                           ",
"                                           ..........................................                                           ",
"                                           ..++++@@@@@@@@@@@@@@@@@@@@@@@@@@@@@@++++..                                           ",
"                                           ..++++@@@@@@@@@@@@@@@@@@@@@@@@@@@@@@++++..                                           ",
"                                         ..............................................                                         ",
"                                         ..............................................                                         ",
"                                         ..@@@@++++..##$$$$$$$$$$$$$$$$$$##..++++@@@@..                                         ",
"                                         ..@@@@++++..##$$$$$$$$$$$$$$$$$$##..++++@@@@..                                         ",
"                                         ..%%@@++++..$$$$$$$$$$$$$$$$$$$$$$..++++@@%%@@..                                       ",
"                                         ..%%@@++++..$$$$$$$$$$$$$$$$$$$$$$..++++@@%%@@..                                       ",
"                                       ..@@%%++++..##$$$$$$$$$$$$$$$$$$$$$$##..++++%%%%..                                       ",
"                                       ..@@%%++++..##$$$$$$$$$$$$$$$$$$$$$$##..++++%%%%..                                       ",
"                                       ..%%%%++++..&&&&&&&&&&&&&&&&&&&&&&&&&&..++++%%%%@@..                                     ",
"                                       ..%%%%++++..&&&&&&&&&&&&&&&&&&&&&&&&&&..++++%%%%@@..                                     ",
"                                     ..@@%%@@++++..&&&&&&&&&&&&&&&&&&&&&&&&&&..++++@@%%%%..                                     ",
"                                     ..@@%%@@++++..&&&&&&&&&&&&&&&&&&&&&&&&&&..++++@@%%%%..                                     ",
"                                     ..%%%%++++..**&&&&&&&&&&&&&&&&&&&&&&&&&&**..++++%%%%@@..                                   ",
"                                     ..%%%%++++..**&&&&&&&&&&&&&&&&&&&&&&&&&&**..++++%%%%@@..                                   ",
"                                   ..@@%%%%++++..==============================..++++%%@@%%..                                   ",
"                                   ..@@%%%%++++..==============================..++++%%@@%%..                                   ",
"                                   ..%%%%@@++++..==============================..++++@@%%%%@@..                                 ",
"                                   ..%%%%@@++++..==============================..++++@@%%%%@@..                                 ",
"                                 ..@@%%%%++++..--==============================--..++++%%%%%%..                                 ",
"                                 ..@@%%%%++++..--==============================--..++++%%%%%%..                                 ",
"                                 ..%%%%%%++++..;;;;;;;;;;;;;;;;;;;;;;;;;;;;;;;;;;..++++%%%%%%@@..                               ",
"                                 ..%%%%%%++++..;;;;;;;;;;;;;;;;;;;;;;;;;;;;;;;;;;..++++%%%%%%@@..                               ",
"                               ..@@%%%%@@++++..;;;;;;;;;;;;;;;;;;;;;;;;;;;;;;;;;;..++++@@%%%%%%..                               ",
"                               ..@@%%%%@@++++..;;;;;;;;;;;;;;;;;;;;;;;;;;;;;;;;;;..++++@@%%%%%%..                               ",
"                               ..%%%%%%++++..>>;;;;;;;;;;;;;;;;;;;;;;;;;;;;;;;;;;>>..++++%%%%%%@@..                             ",
"                               ..%%%%%%++++..>>;;;;;;;;;;;;;;;;;;;;;;;;;;;;;;;;;;>>..++++%%%%%%@@..                             ",
"                             ..@@@@%%@@++++..;;;;;;;;;;;;;;;;;;;;;;;;;;;;;;;;;;;;;;..++++@@%%%%%%..                             ",
"                             ..@@@@%%@@++++..;;;;;;;;;;;;;;;;;;;;;;;;;;;;;;;;;;;;;;..++++@@%%%%%%..                             ",
"                             ..%%@@%%++++..>>;;;;;;;;;;;;;;;;;;;;;;;;;;;;;;;;;;;;;;>>..++++%%%%%%@@..                           ",
"                             ..%%@@%%++++..>>;;;;;;;;;;;;;;;;;;;;;;;;;;;;;;;;;;;;;;>>..++++%%%%%%@@..                           ",
"                           ..@@%%@@%%++++..;;;;;;;;;;;;;;;;;;;;;;;;;;;;;;;;;;;;;;;;;;..++++%%%%%%%%..                           ",
"                           ..@@%%@@%%++++..;;;;;;;;;;;;;;;;;;;;;;;;;;;;;;;;;;;;;;;;;;..++++%%%%%%%%..                           ",
"                           ..%%%%%%@@++++..;;;;;;;;;;;;;;;;;;;;;;;;;;;;;;;;;;;;;;;;;;..++++@@@@%%%%@@..                         ",
"                           ..%%%%%%@@++++..;;;;;;;;;;;;;;;;;;;;;;;;;;;;;;;;;;;;;;;;;;..++++@@@@%%%%@@..                         ",
"                         ..@@%%%%%%++++..>>;;;;;;;;;;;;;;;;;;;;;;;;;;;;;;;;;;;;;;;;;;>>..++++%%@@%%%%..                         ",
"                         ..@@%%%%%%++++..>>;;;;;;;;;;;;;;;;;;;;;;;;;;;;;;;;;;;;;;;;;;>>..++++%%@@%%%%..                         ",
"                         ..%%%%%%%%++++..;;;;;;;;;;;;;;;;;;;;;;;;;;;;;;;;;;;;;;;;;;;;;;..++++%%%%@@@@@@..                       ",
"                         ..%%%%%%%%++++..;;;;;;;;;;;;;;;;;;;;;;;;;;;;;;;;;;;;;;;;;;;;;;..++++%%%%@@@@@@..                       ",
"                       ..@@%%%%%%@@++++..;;;;;;;;;;;;;;;;;;;;;;;;;;;;;;;;;;;;;;;;;;;;;;..++++@@%%%%%%%%..                       ",
"                       ..@@%%%%%%@@++++..;;;;;;;;;;;;;;;;;;;;;;;;;;;;;;;;;;;;;;;;;;;;;;..++++@@%%%%%%%%..                       ",
"                       ..@@@@@@@@++++++..;;;;;;;;;;;;;;;;;;;;;;;;;;;;;;;;;;;;;;;;;;;;;;..++++++@@@@@@@@..                       ",
"                       ..@@@@@@@@++++++..;;;;;;;;;;;;;;;;;;;;;;;;;;;;;;;;;;;;;;;;;;;;;;..++++++@@@@@@@@..                       ",
"                       ..++++++++++++..>>>>>>>>>>>>>>>>>>>>>>>>>>>>>>>>>>>>>>>>>>>>>>>>>>..++++++++++++..                       ",
"                       ..++++++++++++..>>>>>>>>>>>>>>>>>>>>>>>>>>>>>>>>>>>>>>>>>>>>>>>>>>..++++++++++++..                       ",
"                   ..........................................................................................                   ",
"                   ..........................................................................................                   ",
"                 ..++++++++++++++++++++++++++++++++++++++++++++++++++++++++++......++++++++++++++++++++++++++..                 ",
"                 ..++++++++++++++++++++++++++++++++++++++++++++++++++++++++++......++++++++++++++++++++++++++..                 ",
"                 ..@@@@%%%%%%%%@@@@@@%%%%@@@@@@@@@@@@%%%%%%%%%%%%%%%%%%%%%%@@@@@@@@@@%%%%%%%%%%%%%%%%%%%%@@@@..                 ",
"                 ..@@@@%%%%%%%%@@@@@@%%%%@@@@@@@@@@@@%%%%%%%%%%%%%%%%%%%%%%@@@@@@@@@@%%%%%%%%%%%%%%%%%%%%@@@@..                 ",
"                 ..%%,,,,,,,,,,,,,,,,,,,,,,,,,,,,,,,,,,,,,,,,,,,,,,,,,,,,,,,,,,++%%%%,,,,,,,,,,,,%%,,,,,,%%@@..                 ",
"                 ..%%,,,,,,,,,,,,,,,,,,,,,,,,,,,,,,,,,,,,,,,,,,,,,,,,,,,,,,,,,,++%%%%,,,,,,,,,,,,%%,,,,,,%%@@..                 ",
"               ..++..%%,,,,,,,,,,,,,,,,,,,,,,,,,,,,,,,,,,,,,,,,,,,,,,,,,,,,,,,,,,,,@@,,,,,,,,,,,,,,%%,,,,%%..++..               ",
"               ..++..%%,,,,,,,,,,,,,,,,,,,,,,,,,,,,,,,,,,,,,,,,,,,,,,,,,,,,,,,,,,,,@@,,,,,,,,,,,,,,%%,,,,%%..++..               ",
"               ..@@%%,,,,,,,,,,,,,,,,,,,,,,,,,,,,,,,,,,,,,,,,,,,,,,,,,,,,,,,,,,,,,,,,%%,,,,,,,,,,,,,,,,,,,,%%@@..               ",
"               ..@@%%,,,,,,,,,,,,,,,,,,,,,,,,,,,,,,,,,,,,,,,,,,,,,,,,,,,,,,,,,,,,,,,,%%,,,,,,,,,,,,,,,,,,,,%%@@..               ",
"               ..%%,,,,,,,,,,,,,,,,,,%%%%@@%%%%%%%%%%,,,,,,,,,,,,,,,,,,,,,,,,,,,,,,,,@@,,,,,,,,,,,,,,,,,,,,,,%%..               ",
"               ..%%,,,,,,,,,,,,,,,,,,%%%%@@%%%%%%%%%%,,,,,,,,,,,,,,,,,,,,,,,,,,,,,,,,@@,,,,,,,,,,,,,,,,,,,,,,%%..               ",
"               ..%%@@@@@@@@@@@@@@@@@@@@++@@@@@@@@@@@@@@@@@@@@@@@@@@@@@@@@@@@@@@@@@@++@@@@@@@@@@@@@@@@@@++@@@@%%..               ",
"               ..%%@@@@@@@@@@@@@@@@@@@@++@@@@@@@@@@@@@@@@@@@@@@@@@@@@@@@@@@@@@@@@@@++@@@@@@@@@@@@@@@@@@++@@@@%%..               ",
"                 ..............................................................................................                 ",
"                 ..............................................................................................                 ",
"                                                                                                                                ",
"                                                                                                                                ",
"                                                                                                                                ",
"                                                                                                                                ",
"                                                                                                                                ",
"                                                                                                                                ",
"                                                                                                                                ",
"                                                                                                                                ",
"                                                                                                                                ",
"                                                                                                                                ",
"                                                                                                                                ",
"                                                                                                                                ",
"                                                                                                                                ",
"                                                                                                                                ",
"                                                                                                                                ",
"                                                                                                                                ",
"                                                                                                                                ",
"                                                                                                                                "};
