/* XPM */
static char * C:\Users\mathi\OneDrive\Desktop\dppr\tile0_xpm[] = {
"128 100 9 1",
" 	c None",
".	c #30221D",
"+	c #422D25",
"@	c #54392F",
"#	c #37251E",
"$	c #795041",
"%	c #462F27",
"&	c #B0735D",
"*	c #271B17",
"                                                                                                                                ",
"                                                                                                                                ",
"                                                                                                                                ",
"                                                                                                                                ",
"                                                                                                                                ",
"                                                                                                                                ",
"                                                                                                                                ",
"                                                                                                                                ",
"                                                                                                                                ",
"                                                                                                                                ",
"                                                                                                                                ",
"                                                                                                                                ",
"                                                                                                                                ",
"                                                                                                                                ",
"                                                                                                                                ",
"                                                                                                                                ",
"                                           ..........................................                                           ",
"                                           ..........................................                                           ",
"                                           ..++++@@@@@@@@@@@@@@@@@@@@@@@@@@@@@@++++..                                           ",
"                                           ..++++@@@@@@@@@@@@@@@@@@@@@@@@@@@@@@++++..                                           ",
"                                         ..............................................                                         ",
"                                         ..............................................                                         ",
"                                         ..@@@@++++..##++++++++..++++++++##..++++@@@@..                                         ",
"                                         ..@@@@++++..##++++++++..++++++++##..++++@@@@..                                         ",
"                                         ..$$@@++++..@@$$$$$$@@..@@$$$$$$@@..++++@@$$@@..                                       ",
"                                         ..$$@@++++..@@$$$$$$@@..@@$$$$$$@@..++++@@$$@@..                                       ",
"                                       ..@@$$++++..%%$$$$$$$$$$..$$$$$$$$$$%%..++++$$$$..                                       ",
"                                       ..@@$$++++..%%$$$$$$$$$$..$$$$$$$$$$%%..++++$$$$..                                       ",
"                                       ..$$$$++++..@@$$$$$$$$$$@@$$$$$$$$$$@@..++++$$$$@@..                                     ",
"                                       ..$$$$++++..@@$$$$$$$$$$@@$$$$$$$$$$@@..++++$$$$@@..                                     ",
"                                     ..@@$$@@++++..$$$$$$$$$$$$@@$$$$$$$$$$$$..++++@@$$$$..                                     ",
"                                     ..@@$$@@++++..$$$$$$$$$$$$@@$$$$$$$$$$$$..++++@@$$$$..                                     ",
"                                     ..$$$$++++..%%$$$$$$$$$$$$@@$$$$$$@@$$$$%%..++++$$$$@@..                                   ",
"                                     ..$$$$++++..%%$$$$$$$$$$$$@@$$$$$$@@$$$$%%..++++$$$$@@..                                   ",
"                                   ..@@$$$$++++..@@$$$$$$$$$$$$@@$$$$$$&&$$$$@@..++++$$@@$$..                                   ",
"                                   ..@@$$$$++++..@@$$$$$$$$$$$$@@$$$$$$&&$$$$@@..++++$$@@$$..                                   ",
"                                   ..$$$$@@++++..$$$$$$$$$$@@@@@@$$$$$$$$$$$$$$..++++@@$$$$@@..                                 ",
"                                   ..$$$$@@++++..$$$$$$$$$$@@@@@@$$$$$$$$$$$$$$..++++@@$$$$@@..                                 ",
"                                 ..@@$$$$++++..%%$$$$$$$$$$&&@@@@$$$$$$$$$$$$$$%%..++++$$$$$$..                                 ",
"                                 ..@@$$$$++++..%%$$$$$$$$$$&&@@@@$$$$$$$$$$$$$$%%..++++$$$$$$..                                 ",
"                                 ..$$$$$$++++..@@$$$$$$$$$$$$&&@@$$$$$$$$$$$$$$@@..++++$$$$$$@@..                               ",
"                                 ..$$$$$$++++..@@$$$$$$$$$$$$&&@@$$$$$$$$$$$$$$@@..++++$$$$$$@@..                               ",
"                               ..@@$$$$@@++++..$$$$$$$$$$$$$$$$@@$$$$$$$$$$$$$$$$..++++@@$$$$$$..                               ",
"                               ..@@$$$$@@++++..$$$$$$$$$$$$$$$$@@$$$$$$$$$$$$$$$$..++++@@$$$$$$..                               ",
"                               ..$$$$$$++++..%%$$$$$$@@$$$$$$$$@@$$@@@@&&$$$$$$$$%%..++++$$$$$$@@..                             ",
"                               ..$$$$$$++++..%%$$$$$$@@$$$$$$$$@@$$@@@@&&$$$$$$$$%%..++++$$$$$$@@..                             ",
"                             ..@@@@$$@@++++..@@$$$$$$$$$$$$$$$$@@@@&&&&$$$$$$$$$$@@..++++@@$$$$$$..                             ",
"                             ..@@@@$$@@++++..@@$$$$$$$$$$$$$$$$@@@@&&&&$$$$$$$$$$@@..++++@@$$$$$$..                             ",
"                             ..$$@@$$++++..%%$$$$$$$$$$$$$$$$$$@@&&$$$$$$$$$$$$$$$$%%..++++$$$$$$@@..                           ",
"                             ..$$@@$$++++..%%$$$$$$$$$$$$$$$$$$@@&&$$$$$$$$$$$$$$$$%%..++++$$$$$$@@..                           ",
"                           ..@@$$@@$$++++..@@@@$$$$$$$$$$$$$$$$@@$$$$$$$$$$$$$$$$@@@@..++++$$$$$$$$..                           ",
"                           ..@@$$@@$$++++..@@@@$$$$$$$$$$$$$$$$@@$$$$$$$$$$$$$$$$@@@@..++++$$$$$$$$..                           ",
"                           ..$$$$$$@@++++..@@@@@@@@@@@@@@@@@@@@++@@@@@@@@@@@@@@@@@@@@..++++@@@@$$$$@@..                         ",
"                           ..$$$$$$@@++++..@@@@@@@@@@@@@@@@@@@@++@@@@@@@@@@@@@@@@@@@@..++++@@@@$$$$@@..                         ",
"                         ..@@$$$$$$++++..%%@@@@@@@@@@@@@@@@@@@@++@@@@@@@@@@@@@@@@@@@@%%..++++$$@@$$$$..                         ",
"                         ..@@$$$$$$++++..%%@@@@@@@@@@@@@@@@@@@@++@@@@@@@@@@@@@@@@@@@@%%..++++$$@@$$$$..                         ",
"                         ..$$$$$$$$++++..++++++++++++++++++++++..++++++++++++++++++++++..++++$$$$@@@@@@..                       ",
"                         ..$$$$$$$$++++..++++++++++++++++++++++..++++++++++++++++++++++..++++$$$$@@@@@@..                       ",
"                       ..@@$$$$$$@@++++..++++++++++++++++++++++..++++++++++++++++++++++..++++@@$$$$$$$$..                       ",
"                       ..@@$$$$$$@@++++..++++++++++++++++++++++..++++++++++++++++++++++..++++@@$$$$$$$$..                       ",
"                       ..@@@@@@@@++++++..................................................++++++@@@@@@@@..                       ",
"                       ..@@@@@@@@++++++..................................................++++++@@@@@@@@..                       ",
"                       ..++++++++++++..**************************************************..++++++++++++..                       ",
"                       ..++++++++++++..**************************************************..++++++++++++..                       ",
"                   ..........................................................................................                   ",
"                   ..........................................................................................                   ",
"                 ..++++++++++++++++++++++++++++++++++++++++++++++++++++++++++......++++++++++++++++++++++++++..                 ",
"                 ..++++++++++++++++++++++++++++++++++++++++++++++++++++++++++......++++++++++++++++++++++++++..                 ",
"                 ..@@@@$$$$$$$$@@@@@@$$$$@@@@@@@@@@@@$$$$$$$$$$$$$$$$$$$$$$@@@@@@@@@@$$$$$$$$$$$$$$$$$$$$@@@@..                 ",
"                 ..@@@@$$$$$$$$@@@@@@$$$$@@@@@@@@@@@@$$$$$$$$$$$$$$$$$$$$$$@@@@@@@@@@$$$$$$$$$$$$$$$$$$$$@@@@..                 ",
"                 ..$$&&&&&&&&&&&&&&&&&&&&&&&&&&&&&&&&&&&&&&&&&&&&&&&&&&&&&&&&&&++$$$$&&&&&&&&&&&&$$&&&&&&$$@@..                 ",
"                 ..$$&&&&&&&&&&&&&&&&&&&&&&&&&&&&&&&&&&&&&&&&&&&&&&&&&&&&&&&&&&++$$$$&&&&&&&&&&&&$$&&&&&&$$@@..                 ",
"               ..++..$$&&&&&&&&&&&&&&&&&&&&&&&&&&&&&&&&&&&&&&&&&&&&&&&&&&&&&&&&&&&&@@&&&&&&&&&&&&&&$$&&&&$$..++..               ",
"               ..++..$$&&&&&&&&&&&&&&&&&&&&&&&&&&&&&&&&&&&&&&&&&&&&&&&&&&&&&&&&&&&&@@&&&&&&&&&&&&&&$$&&&&$$..++..               ",
"               ..@@$$&&&&&&&&&&&&&&&&&&&&&&&&&&&&&&&&&&&&&&&&&&&&&&&&&&&&&&&&&&&&&&&&$$&&&&&&&&&&&&&&&&&&&&$$@@..               ",
"               ..@@$$&&&&&&&&&&&&&&&&&&&&&&&&&&&&&&&&&&&&&&&&&&&&&&&&&&&&&&&&&&&&&&&&$$&&&&&&&&&&&&&&&&&&&&$$@@..               ",
"               ..$$&&&&&&&&&&&&&&&&&&$$$$@@$$$$$$$$$$&&&&&&&&&&&&&&&&&&&&&&&&&&&&&&&&@@&&&&&&&&&&&&&&&&&&&&&&$$..               ",
"               ..$$&&&&&&&&&&&&&&&&&&$$$$@@$$$$$$$$$$&&&&&&&&&&&&&&&&&&&&&&&&&&&&&&&&@@&&&&&&&&&&&&&&&&&&&&&&$$..               ",
"               ..$$@@@@@@@@@@@@@@@@@@@@++@@@@@@@@@@@@@@@@@@@@@@@@@@@@@@@@@@@@@@@@@@++@@@@@@@@@@@@@@@@@@++@@@@$$..               ",
"               ..$$@@@@@@@@@@@@@@@@@@@@++@@@@@@@@@@@@@@@@@@@@@@@@@@@@@@@@@@@@@@@@@@++@@@@@@@@@@@@@@@@@@++@@@@$$..               ",
"                 ..............................................................................................                 ",
"                 ..............................................................................................                 ",
"                                                                                                                                ",
"                                                                                                                                ",
"                                                                                                                                ",
"                                                                                                                                ",
"                                                                                                                                ",
"                                                                                                                                ",
"                                                                                                                                ",
"                                                                                                                                ",
"                                                                                                                                ",
"                                                                                                                                ",
"                                                                                                                                ",
"                                                                                                                                ",
"                                                                                                                                ",
"                                                                                                                                ",
"                                                                                                                                ",
"                                                                                                                                ",
"                                                                                                                                ",
"                                                                                                                                "};
