/* XPM */
static char *result[] = {
/* columns rows colors chars-per-pixel */
"64 64 5 1 ",
"  c #080000",
". c #C0A175",
"X c #DFCFB9",
"o c #F4EFE8",
"O c None",
/* pixels */
"OOOOOOOOOOOOOOOOOOOOOOOOOOOOOOOOOOOOOOOOOOOOOOOOOOOOOOOOOOOOOOOO",
"OOOOOOOOOOOOOOOOOOOOOOOOOOOOOOOOOOOOOOOOOOOOOOOOOOOOOOOOOOOOOOOO",
"OOOOOOOOOOOOOOOOOOOOOOOOOOOOOOOOOOOOOOOOOOOOOOOOOOOOOOOOOOOOOOOO",
"OOOOOOOOOOOOOOOOOOOOOOOOOOOOOOOOOOOOOOOOOOOOOOOOOOOOOOOOOOOOOOOO",
"OOOOOOOOOOOOOOOOOOOOOOOOOOOO        OOOOOOOOOOOOOOOOOOOOOOOOOOOO",
"OOOOOOOOOOOOOOOOOOOOOOOOOOOO        OOOOOOOOOOOOOOOOOOOOOOOOOOOO",
"OOOOOOOOOOOOOOOOOOOOOOOOOO            OOOOOOOOOOOOOOOOOOOOOOOOOO",
"OOOOOOOOOOOOOOOOOOOOOOOOOO            OOOOOOOOOOOOOOOOOOOOOOOOOO",
"OOOOOOOOOOOOOOOOOOOOOOOO    XXXXXXXX    OOOOOOOOOOOOOOOOOOOOOOOO",
"OOOOOOOOOOOOOOOOOOOOOOOO    XXXXXXXX    OOOOOOOOOOOOOOOOOOOOOOOO",
"OOOOOOOOOOOOOOOOOOOOOO    XXooooooooXX    OOOOOOOOOOOOOOOOOOOOOO",
"OOOOOOOOOOOOOOOOOOOOOO    XXooooooooXX    OOOOOOOOOOOOOOOOOOOOOO",
"OOOOOOOOOOOOOOOOOOOO    XXooooXXXXooooXX    OOOOOOOOOOOOOOOOOOOO",
"OOOOOOOOOOOOOOOOOOOO    XXooooXXXXooooXX    OOOOOOOOOOOOOOOOOOOO",
"OOOOOOOOOOOOOOOOOOOO    XXooXXXXXXXXooXX    OOOOOOOOOOOOOOOOOOOO",
"OOOOOOOOOOOOOOOOOOOO    XXooXXXXXXXXooXX    OOOOOOOOOOOOOOOOOOOO",
"OOOOOOOOOOOOOOOOOO    XXooXXXXXXXXXXXXooXX    OOOOOOOOOOOOOOOOOO",
"OOOOOOOOOOOOOOOOOO    XXooXXXXXXXXXXXXooXX    OOOOOOOOOOOOOOOOOO",
"OOOOOOOOOOOOOOOOOO    XXXXXX........XXXXXX    OOOOOOOOOOOOOOOOOO",
"OOOOOOOOOOOOOOOOOO    XXXXXX........XXXXXX    OOOOOOOOOOOOOOOOOO",
"OOOOOOOOOOOOOOOOOO    XXXX............XXXX    OOOOOOOOOOOOOOOOOO",
"OOOOOOOOOOOOOOOOOO    XXXX............XXXX    OOOOOOOOOOOOOOOOOO",
"OOOOOOOOOOOOOOOOOO    XX..    ......  ..XX    OOOOOOOOOOOOOOOOOO",
"OOOOOOOOOOOOOOOOOO    XX..    ......  ..XX    OOOOOOOOOOOOOOOOOO",
"OOOOOOOOOOOOOOOOOOOO      XXooooooooXX  XX    OOOOOOOOOOOOOOOOOO",
"OOOOOOOOOOOOOOOOOOOO      XXooooooooXX  XX    OOOOOOOOOOOOOOOOOO",
"OOOOOOOOOOOOOOOOOOOO    XXooooooooooooXX    OOOOOOOOOOOOOOOOOOOO",
"OOOOOOOOOOOOOOOOOOOO    XXooooooooooooXX    OOOOOOOOOOOOOOOOOOOO",
"OOOOOOOOOOOOOOOOOOOO    XXXXXXXXXXooooXX    OOOOOOOOOOOOOOOOOOOO",
"OOOOOOOOOOOOOOOOOOOO    XXXXXXXXXXooooXX    OOOOOOOOOOOOOOOOOOOO",
"OOOOOOOOOOOOOOOOOO    ..XXXXXXXXXXXXooXX..    OOOOOOOOOOOOOOOOOO",
"OOOOOOOOOOOOOOOOOO    ..XXXXXXXXXXXXooXX..    OOOOOOOOOOOOOOOOOO",
"OOOOOOOOOOOOOOOOOO    ..XXXXXXXXXXXXXXXXXX    OOOOOOOOOOOOOOOOOO",
"OOOOOOOOOOOOOOOOOO    ..XXXXXXXXXXXXXXXXXX    OOOOOOOOOOOOOOOOOO",
"OOOOOOOOOOOOOOOOOO    ..XXXXXXXXXXXXXXXX..    OOOOOOOOOOOOOOOOOO",
"OOOOOOOOOOOOOOOOOO    ..XXXXXXXXXXXXXXXX..    OOOOOOOOOOOOOOOOOO",
"OOOOOOOOOOOOOOOOOO    ..XXXXXXXXXXXXXXXX    OOOOOOOOOOOOOOOOOOOO",
"OOOOOOOOOOOOOOOOOO    ..XXXXXXXXXXXXXXXX    OOOOOOOOOOOOOOOOOOOO",
"OOOOOOOOOOOOOOOOOOOO    ..XXXX....XXXXXX    OOOOOOOOOOOOOOOOOOOO",
"OOOOOOOOOOOOOOOOOOOO    ..XXXX....XXXXXX    OOOOOOOOOOOOOOOOOOOO",
"OOOOOOOOOOOOOOOOOOOO    ......    ......    OOOOOOOOOOOOOOOOOOOO",
"OOOOOOOOOOOOOOOOOOOO    ......    ......    OOOOOOOOOOOOOOOOOOOO",
"OOOOOOOOOOOOOOOOOOOOOO    ..  XXooooXX    OOOOOOOOOOOOOOOOOOOOOO",
"OOOOOOOOOOOOOOOOOOOOOO    ..  XXooooXX    OOOOOOOOOOOOOOOOOOOOOO",
"OOOOOOOOOOOOOOOOOOOOOOOO    XXXXXXXXXX    OOOOOOOOOOOOOOOOOOOOOO",
"OOOOOOOOOOOOOOOOOOOOOOOO    XXXXXXXXXX    OOOOOOOOOOOOOOOOOOOOOO",
"OOOOOOOOOOOOOOOOOOOOOOOO    ..XXXXXXXX    OOOOOOOOOOOOOOOOOOOOOO",
"OOOOOOOOOOOOOOOOOOOOOOOO    ..XXXXXXXX    OOOOOOOOOOOOOOOOOOOOOO",
"OOOOOOOOOOOOOOOOOOOOOOOOOO    ..XXXX    OOOOOOOOOOOOOOOOOOOOOOOO",
"OOOOOOOOOOOOOOOOOOOOOOOOOO    ..XXXX    OOOOOOOOOOOOOOOOOOOOOOOO",
"OOOOOOOOOOOOOOOOOOOOOOOOOOOO          OOOOOOOOOOOOOOOOOOOOOOOOOO",
"OOOOOOOOOOOOOOOOOOOOOOOOOOOO          OOOOOOOOOOOOOOOOOOOOOOOOOO",
"OOOOOOOOOOOOOOOOOOOOOOOOOOOOOO      OOOOOOOOOOOOOOOOOOOOOOOOOOOO",
"OOOOOOOOOOOOOOOOOOOOOOOOOOOOOO      OOOOOOOOOOOOOOOOOOOOOOOOOOOO",
"OOOOOOOOOOOOOOOOOOOOOOOOOOOOOOOOOOOOOOOOOOOOOOOOOOOOOOOOOOOOOOOO",
"OOOOOOOOOOOOOOOOOOOOOOOOOOOOOOOOOOOOOOOOOOOOOOOOOOOOOOOOOOOOOOOO",
"OOOOOOOOOOOOOOOOOOOOOOOOOOOOOOOOOOOOOOOOOOOOOOOOOOOOOOOOOOOOOOOO",
"OOOOOOOOOOOOOOOOOOOOOOOOOOOOOOOOOOOOOOOOOOOOOOOOOOOOOOOOOOOOOOOO",
"OOOOOOOOOOOOOOOOOOOOOOOOOOOOOOOOOOOOOOOOOOOOOOOOOOOOOOOOOOOOOOOO",
"OOOOOOOOOOOOOOOOOOOOOOOOOOOOOOOOOOOOOOOOOOOOOOOOOOOOOOOOOOOOOOOO",
"OOOOOOOOOOOOOOOOOOOOOOOOOOOOOOOOOOOOOOOOOOOOOOOOOOOOOOOOOOOOOOOO",
"OOOOOOOOOOOOOOOOOOOOOOOOOOOOOOOOOOOOOOOOOOOOOOOOOOOOOOOOOOOOOOOO",
"OOOOOOOOOOOOOOOOOOOOOOOOOOOOOOOOOOOOOOOOOOOOOOOOOOOOOOOOOOOOOOOO",
"OOOOOOOOOOOOOOOOOOOOOOOOOOOOOOOOOOOOOOOOOOOOOOOOOOOOOOOOOOOOOOOO"
};
