/* XPM */
static char * C:\Users\mathi\OneDrive\Documents\4_xpm[] = {
"24 32 2 1",
" 	c None",
".	c #FFFFFF",
"                        ",
"  ......      ..        ",
"  ......      ..        ",
"  ......    ....        ",
"  ......    ....        ",
"  ......    ....        ",
"  ......    ....        ",
"  ......    ....        ",
"  ......    ....        ",
"  ......    ......      ",
"  ......    ......      ",
"  ................      ",
"  ................      ",
"  ....................  ",
"  ....................  ",
"  ....................  ",
"  ....................  ",
"  ....    ......        ",
"  ....    ......        ",
"          ......        ",
"          ......        ",
"          ......        ",
"          ......        ",
"          ......        ",
"          ......        ",
"          ......        ",
"          ......        ",
"          ......        ",
"          ......        ",
"            ....        ",
"            ....        ",
"                        "};
