/* XPM */
static char * C:\Users\mathi\OneDrive\Documents\6_xpm[] = {
"28 32 2 1",
" 	c None",
".	c #FFFFFF",
"              ......        ",
"              ......        ",
"          ......            ",
"          ......            ",
"        ......              ",
"        ......              ",
"      ......                ",
"      ......                ",
"    ......                  ",
"    ......                  ",
"    ......                  ",
"    ......                  ",
"  ......                    ",
"  ......                    ",
"  ..................        ",
"  ..................        ",
"  ....................      ",
"  ....................      ",
"  ..........      ......    ",
"  ..........      ......    ",
"  ........        ......    ",
"  ........        ......    ",
"  ........        ......    ",
"  ........        ......    ",
"    ....................    ",
"    ....................    ",
"      ................      ",
"      ................      ",
"        ..........          ",
"        ..........          ",
"                            ",
"                            "};
