/* XPM */
static char *result[] = {
/* columns rows colors chars-per-pixel */
"64 64 5 1 ",
"  c #080000",
". c #C0A175",
"X c #DFCFB9",
"o c #F4EFE8",
"O c None",
/* pixels */
"OOOOOOOOOOOOOOOOOOOOOOOOOOOOOOOOOOOOOOOOOOOOOOOOOOOOOOOOOOOOOOOO",
"OOOOOOOOOOOOOOOOOOOOOOOOOOOOOOOOOOOOOOOOOOOOOOOOOOOOOOOOOOOOOOOO",
"OOOOOOOOOOOOOOOOOOOOOOOOOOOOOOOOOOOOOOOOOOOOOOOOOOOOOOOOOOOOOOOO",
"OOOOOOOOOOOOOOOOOOOOOOOOOOOOOOOOOOOOOOOOOOOOOOOOOOOOOOOOOOOOOOOO",
"OOOOOOOOOOOOOOOOOOOOOOOOOOOOOOOOOOOOOOOOOOOOOOOOOOOOOOOOOOOOOOOO",
"OOOOOOOOOOOOOOOOOOOOOOOOOOOOOOOOOOOOOOOOOOOOOOOOOOOOOOOOOOOOOOOO",
"OOOOOOOOOOOOOOOOOOOOOOOOOOOOOOOOOOOOOOOOOOOOOOOOOOOOOOOOOOOOOOOO",
"OOOOOOOOOOOOOOOOOOOOOOOOOOOOOOOOOOOOOOOOOOOOOOOOOOOOOOOOOOOOOOOO",
"OOOOOOOOOOOOOOOOOOOOOOOOOOOOOOOOOOOOOOOOOOOOOOOOOOOOOOOOOOOOOOOO",
"OOOOOOOOOOOOOOOOOOOOOOOOOOOOOOOOOOOOOOOOOOOOOOOOOOOOOOOOOOOOOOOO",
"OOOOOOOOOOOOOOOOOOOOOOOOOOOOOOOOOOOOOOOOOOOOOOOOOOOOOOOOOOOOOOOO",
"OOOOOOOOOOOOOOOOOOOOOOOOOOOOOOOOOOOOOOOOOOOOOOOOOOOOOOOOOOOOOOOO",
"OOOOOOOOOOOOOOOOOOOOOOOOOOOO      OOOOOOOOOOOOOOOOOOOOOOOOOOOOOO",
"OOOOOOOOOOOOOOOOOOOOOOOOOOOO      OOOOOOOOOOOOOOOOOOOOOOOOOOOOOO",
"OOOOOOOOOOOOOOOOOOOOOOOOOO            OOOOOOOOOOOOOOOOOOOOOOOOOO",
"OOOOOOOOOOOOOOOOOOOOOOOOOO            OOOOOOOOOOOOOOOOOOOOOOOOOO",
"OOOOOOOOOOOOOOOOOOOOOOOO    ..XXXX      OOOOOOOOOOOOOOOOOOOOOOOO",
"OOOOOOOOOOOOOOOOOOOOOOOO    ..XXXX      OOOOOOOOOOOOOOOOOOOOOOOO",
"OOOOOOOOOOOOOOOOOOOOOOOO    ....XXXXXX    OOOOOOOOOOOOOOOOOOOOOO",
"OOOOOOOOOOOOOOOOOOOOOOOO    ....XXXXXX    OOOOOOOOOOOOOOOOOOOOOO",
"OOOOOOOOOOOOOOOOOOOOOOOO      ....XX..    OOOOOOOOOOOOOOOOOOOOOO",
"OOOOOOOOOOOOOOOOOOOOOOOO      ....XX..    OOOOOOOOOOOOOOOOOOOOOO",
"OOOOOOOOOOOOOOOOOOOOOO    ooooooooXXoo    OOOOOOOOOOOOOOOOOOOOOO",
"OOOOOOOOOOOOOOOOOOOOOO    ooooooooXXoo    OOOOOOOOOOOOOOOOOOOOOO",
"OOOOOOOOOOOOOOOOOOOO    ooXXXXXXXXXXoooo  OOOOOOOOOOOOOOOOOOOOOO",
"OOOOOOOOOOOOOOOOOOOO    ooXXXXXXXXXXoooo  OOOOOOOOOOOOOOOOOOOOOO",
"OOOOOOOOOOOOOOOOOOOO    XXXXXXXXXXXXXXXX    OOOOOOOOOOOOOOOOOOOO",
"OOOOOOOOOOOOOOOOOOOO    XXXXXXXXXXXXXXXX    OOOOOOOOOOOOOOOOOOOO",
"OOOOOOOOOOOOOOOOOO    XXXXXX......XXXXXX    OOOOOOOOOOOOOOOOOOOO",
"OOOOOOOOOOOOOOOOOO    XXXXXX......XXXXXX    OOOOOOOOOOOOOOOOOOOO",
"OOOOOOOOOOOOOOOOOO    XX..  ......    ..    OOOOOOOOOOOOOOOOOOOO",
"OOOOOOOOOOOOOOOOOO    XX..  ......    ..    OOOOOOOOOOOOOOOOOOOO",
"OOOOOOOOOOOOOOOOOO    ..  ooooooooXXXX      OOOOOOOOOOOOOOOOOOOO",
"OOOOOOOOOOOOOOOOOO    ..  ooooooooXXXX      OOOOOOOOOOOOOOOOOOOO",
"OOOOOOOOOOOOOOOOOO      ooooXXXXXXXXXXoo    OOOOOOOOOOOOOOOOOOOO",
"OOOOOOOOOOOOOOOOOO      ooooXXXXXXXXXXoo    OOOOOOOOOOOOOOOOOOOO",
"OOOOOOOOOOOOOOOOOO    XXXXXXXXXXXXXXXXXXXX    OOOOOOOOOOOOOOOOOO",
"OOOOOOOOOOOOOOOOOO    XXXXXXXXXXXXXXXXXXXX    OOOOOOOOOOOOOOOOOO",
"OOOOOOOOOOOOOOOOOO    XXXXXXXXXXXXXXXXXXXX    OOOOOOOOOOOOOOOOOO",
"OOOOOOOOOOOOOOOOOO    XXXXXXXXXXXXXXXXXXXX    OOOOOOOOOOOOOOOOOO",
"OOOOOOOOOOOOOOOOOO    XXoo  XXXXXXXXoo  XX    OOOOOOOOOOOOOOOOOO",
"OOOOOOOOOOOOOOOOOO    XXoo  XXXXXXXXoo  XX    OOOOOOOOOOOOOOOOOO",
"OOOOOOOOOOOOOOOOOO    ..    XXXXXXXX    ..    OOOOOOOOOOOOOOOOOO",
"OOOOOOOOOOOOOOOOOO    ..    XXXXXXXX    ..    OOOOOOOOOOOOOOOOOO",
"OOOOOOOOOOOOOOOOOOOO    oooo        oooo    OOOOOOOOOOOOOOOOOOOO",
"OOOOOOOOOOOOOOOOOOOO    oooo        oooo    OOOOOOOOOOOOOOOOOOOO",
"OOOOOOOOOOOOOOOOOOOO    ....        XX..    OOOOOOOOOOOOOOOOOOOO",
"OOOOOOOOOOOOOOOOOOOO    ....        XX..    OOOOOOOOOOOOOOOOOOOO",
"OOOOOOOOOOOOOOOOOOOO      ....    ....      OOOOOOOOOOOOOOOOOOOO",
"OOOOOOOOOOOOOOOOOOOO      ....    ....      OOOOOOOOOOOOOOOOOOOO",
"OOOOOOOOOOOOOOOOOOOOOO      ........      OOOOOOOOOOOOOOOOOOOOOO",
"OOOOOOOOOOOOOOOOOOOOOO      ........      OOOOOOOOOOOOOOOOOOOOOO",
"OOOOOOOOOOOOOOOOOOOOOOOO                OOOOOOOOOOOOOOOOOOOOOOOO",
"OOOOOOOOOOOOOOOOOOOOOOOO                OOOOOOOOOOOOOOOOOOOOOOOO",
"OOOOOOOOOOOOOOOOOOOOOOOOOOOO        OOOOOOOOOOOOOOOOOOOOOOOOOOOO",
"OOOOOOOOOOOOOOOOOOOOOOOOOOOO        OOOOOOOOOOOOOOOOOOOOOOOOOOOO",
"OOOOOOOOOOOOOOOOOOOOOOOOOOOOOOOOOOOOOOOOOOOOOOOOOOOOOOOOOOOOOOOO",
"OOOOOOOOOOOOOOOOOOOOOOOOOOOOOOOOOOOOOOOOOOOOOOOOOOOOOOOOOOOOOOOO",
"OOOOOOOOOOOOOOOOOOOOOOOOOOOOOOOOOOOOOOOOOOOOOOOOOOOOOOOOOOOOOOOO",
"OOOOOOOOOOOOOOOOOOOOOOOOOOOOOOOOOOOOOOOOOOOOOOOOOOOOOOOOOOOOOOOO",
"OOOOOOOOOOOOOOOOOOOOOOOOOOOOOOOOOOOOOOOOOOOOOOOOOOOOOOOOOOOOOOOO",
"OOOOOOOOOOOOOOOOOOOOOOOOOOOOOOOOOOOOOOOOOOOOOOOOOOOOOOOOOOOOOOOO",
"OOOOOOOOOOOOOOOOOOOOOOOOOOOOOOOOOOOOOOOOOOOOOOOOOOOOOOOOOOOOOOOO",
"OOOOOOOOOOOOOOOOOOOOOOOOOOOOOOOOOOOOOOOOOOOOOOOOOOOOOOOOOOOOOOOO"
};
