/* XPM */
static char *result[] = {
/* columns rows colors chars-per-pixel */
"64 64 5 1 ",
"  c #080000",
". c #C0A175",
"X c #DFCFB9",
"o c #F4EFE8",
"O c None",
/* pixels */
"OOOOOOOOOOOOOOOOOOOOOOOOOOOOOOOOOOOOOOOOOOOOOOOOOOOOOOOOOOOOOOOO",
"OOOOOOOOOOOOOOOOOOOOOOOOOOOOOOOOOOOOOOOOOOOOOOOOOOOOOOOOOOOOOOOO",
"OOOOOOOOOOOOOOOOOOOOOOOOOOOOOOOOOOOOOOOOOOOOOOOOOOOOOOOOOOOOOOOO",
"OOOOOOOOOOOOOOOOOOOOOOOOOOOOOOOOOOOOOOOOOOOOOOOOOOOOOOOOOOOOOOOO",
"OOOOOOOOOOOOOOOOOOOOOOOOOOOOOOOOOOOOOOOOOOOOOOOOOOOOOOOOOOOOOOOO",
"OOOOOOOOOOOOOOOOOOOOOOOOOOOOOOOOOOOOOOOOOOOOOOOOOOOOOOOOOOOOOOOO",
"OOOOOOOOOOOOOOOOOOOOOOOOOOOOOOOOOOOOOOOOOOOOOOOOOOOOOOOOOOOOOOOO",
"OOOOOOOOOOOOOOOOOOOOOOOOOOOOOOOOOOOOOOOOOOOOOOOOOOOOOOOOOOOOOOOO",
"OOOOOOOOOOOOOOOOOOOOOOOOOOOOOOOOOOOOOOOOOOOOOOOOOOOOOOOOOOOOOOOO",
"OOOOOOOOOOOOOOOOOOOOOOOOOOOOOOOOOOOOOOOOOOOOOOOOOOOOOOOOOOOOOOOO",
"OOOOOOOOOOOOOOOOOOOOOOOOOOOO        OOOOOOOOOOOOOOOOOOOOOOOOOOOO",
"OOOOOOOOOOOOOOOOOOOOOOOOOOOO        OOOOOOOOOOOOOOOOOOOOOOOOOOOO",
"OOOOOOOOOOOOOOOOOOOOOOOOOO            OOOOOOOOOOOOOOOOOOOOOOOOOO",
"OOOOOOOOOOOOOOOOOOOOOOOOOO            OOOOOOOOOOOOOOOOOOOOOOOOOO",
"OOOOOOOOOOOOOOOOOOOOOOOO    ..XXXXXX    OOOOOOOOOOOOOOOOOOOOOOOO",
"OOOOOOOOOOOOOOOOOOOOOOOO    ..XXXXXX    OOOOOOOOOOOOOOOOOOOOOOOO",
"OOOOOOOOOOOOOOOOOOOOOOOO      XXXXXXXX    OOOOOOOOOOOOOOOOOOOOOO",
"OOOOOOOOOOOOOOOOOOOOOOOO      XXXXXXXX    OOOOOOOOOOOOOOOOOOOOOO",
"OOOOOOOOOOOOOOOOOOOOOOOO    ....XXXX..    OOOOOOOOOOOOOOOOOOOOOO",
"OOOOOOOOOOOOOOOOOOOOOOOO    ....XXXX..    OOOOOOOOOOOOOOOOOOOOOO",
"OOOOOOOOOOOOOOOOOOOOOO    ooooooooXXoo    OOOOOOOOOOOOOOOOOOOOOO",
"OOOOOOOOOOOOOOOOOOOOOO    ooooooooXXoo    OOOOOOOOOOOOOOOOOOOOOO",
"OOOOOOOOOOOOOOOOOOOO    ooXXXXXXXXXXXXoo  OOOOOOOOOOOOOOOOOOOOOO",
"OOOOOOOOOOOOOOOOOOOO    ooXXXXXXXXXXXXoo  OOOOOOOOOOOOOOOOOOOOOO",
"OOOOOOOOOOOOOOOOOOOO    XXXXXXXXXXXXXXXX    OOOOOOOOOOOOOOOOOOOO",
"OOOOOOOOOOOOOOOOOOOO    XXXXXXXXXXXXXXXX    OOOOOOOOOOOOOOOOOOOO",
"OOOOOOOOOOOOOOOOOO    ooXXXX........XXXX    OOOOOOOOOOOOOOOOOOOO",
"OOOOOOOOOOOOOOOOOO    ooXXXX........XXXX    OOOOOOOOOOOOOOOOOOOO",
"OOOOOOOOOOOOOOOOOO    XXXX............XXXX    OOOOOOOOOOOOOOOOOO",
"OOOOOOOOOOOOOOOOOO    XXXX............XXXX    OOOOOOOOOOOOOOOOOO",
"OOOOOOOOOOOOOOOOOO    XX..  ....      ..XX    OOOOOOOOOOOOOOOOOO",
"OOOOOOOOOOOOOOOOOO    XX..  ....      ..XX    OOOOOOOOOOOOOOOOOO",
"OOOOOOOOOOOOOOOOOO    ..  ooooooXXXXXX  ..    OOOOOOOOOOOOOOOOOO",
"OOOOOOOOOOOOOOOOOO    ..  ooooooXXXXXX  ..    OOOOOOOOOOOOOOOOOO",
"OOOOOOOOOOOOOOOOOO      ooooXXXXXXXXXXoo      OOOOOOOOOOOOOOOOOO",
"OOOOOOOOOOOOOOOOOO      ooooXXXXXXXXXXoo      OOOOOOOOOOOOOOOOOO",
"OOOOOOOOOOOOOOOOOO      XXXXXXXXXXXXXXXXXX    OOOOOOOOOOOOOOOOOO",
"OOOOOOOOOOOOOOOOOO      XXXXXXXXXXXXXXXXXX    OOOOOOOOOOOOOOOOOO",
"OOOOOOOOOOOOOOOOOO    XXXXXXXXXXXXXXXXXXXX    OOOOOOOOOOOOOOOOOO",
"OOOOOOOOOOOOOOOOOO    XXXXXXXXXXXXXXXXXXXX    OOOOOOOOOOOOOOOOOO",
"OOOOOOOOOOOOOOOOOO    XXXXXXXXXXXXXXXXXXXX    OOOOOOOOOOOOOOOOOO",
"OOOOOOOOOOOOOOOOOO    XXXXXXXXXXXXXXXXXXXX    OOOOOOOOOOOOOOOOOO",
"OOOOOOOOOOOOOOOOOO    XXXXXXXXXXXXXXXXXXXX    OOOOOOOOOOOOOOOOOO",
"OOOOOOOOOOOOOOOOOO    XXXXXXXXXXXXXXXXXXXX    OOOOOOOOOOOOOOOOOO",
"OOOOOOOOOOOOOOOOOO    XXoo  XXXXXXXXoo  XX    OOOOOOOOOOOOOOOOOO",
"OOOOOOOOOOOOOOOOOO    XXoo  XXXXXXXXoo  XX    OOOOOOOOOOOOOOOOOO",
"OOOOOOOOOOOOOOOOOO    ..    XXXXXXXX    ..    OOOOOOOOOOOOOOOOOO",
"OOOOOOOOOOOOOOOOOO    ..    XXXXXXXX    ..    OOOOOOOOOOOOOOOOOO",
"OOOOOOOOOOOOOOOOOOOO    oooo        oooo    OOOOOOOOOOOOOOOOOOOO",
"OOOOOOOOOOOOOOOOOOOO    oooo        oooo    OOOOOOOOOOOOOOOOOOOO",
"OOOOOOOOOOOOOOOOOOOO    ..XX        XX..    OOOOOOOOOOOOOOOOOOOO",
"OOOOOOOOOOOOOOOOOOOO    ..XX        XX..    OOOOOOOOOOOOOOOOOOOO",
"OOOOOOOOOOOOOOOOOOOO      ....    ....      OOOOOOOOOOOOOOOOOOOO",
"OOOOOOOOOOOOOOOOOOOO      ....    ....      OOOOOOOOOOOOOOOOOOOO",
"OOOOOOOOOOOOOOOOOOOOOO      ........      OOOOOOOOOOOOOOOOOOOOOO",
"OOOOOOOOOOOOOOOOOOOOOO      ........      OOOOOOOOOOOOOOOOOOOOOO",
"OOOOOOOOOOOOOOOOOOOOOOOO                OOOOOOOOOOOOOOOOOOOOOOOO",
"OOOOOOOOOOOOOOOOOOOOOOOO                OOOOOOOOOOOOOOOOOOOOOOOO",
"OOOOOOOOOOOOOOOOOOOOOOOOOOOO        OOOOOOOOOOOOOOOOOOOOOOOOOOOO",
"OOOOOOOOOOOOOOOOOOOOOOOOOOOO        OOOOOOOOOOOOOOOOOOOOOOOOOOOO",
"OOOOOOOOOOOOOOOOOOOOOOOOOOOOOOOOOOOOOOOOOOOOOOOOOOOOOOOOOOOOOOOO",
"OOOOOOOOOOOOOOOOOOOOOOOOOOOOOOOOOOOOOOOOOOOOOOOOOOOOOOOOOOOOOOOO",
"OOOOOOOOOOOOOOOOOOOOOOOOOOOOOOOOOOOOOOOOOOOOOOOOOOOOOOOOOOOOOOOO",
"OOOOOOOOOOOOOOOOOOOOOOOOOOOOOOOOOOOOOOOOOOOOOOOOOOOOOOOOOOOOOOOO"
};
