/* XPM */
static char * C:\Users\mathi\OneDrive\Documents\splash2_xpm[] = {
"64 64 5 1",
" 	c None",
".	c #5B0000",
"+	c #980000",
"@	c #6F0000",
"#	c #840000",
"                                                                ",
"                                                                ",
"                                                                ",
"                                                                ",
"                                                                ",
"                                                                ",
"                                                                ",
"                                                                ",
"                                                                ",
"                                                                ",
"                                     ..                         ",
"                                     ...                        ",
"                   ..                 ..                        ",
"                   ...                 .                        ",
"                    ...                                         ",
"                      ..                                        ",
"                       .                                        ",
"                        .                                       ",
"                         .                                      ",
"                                           ++                   ",
"                              ++          ++++                  ",
"                              ++  ++++    ++++                  ",
"                                 +++      +++                   ",
"                                +++      +++                    ",
"                            +++ ++       ++                     ",
"                          ++++++++      ++                      ",
"                         ++++++++                               ",
"                         +++++@@@@           ++                 ",
"                         ++++@@@@@@      ..   ++                ",
"                         +++@@@@@@@@     ..   ++                ",
"                          ++@@+##@@@#  #      ++                ",
"                         +++@+++#@@@#  ##     ++                ",
"                        +++++++###@## ###    +++                ",
"                     ..+++++++###########   ++++                ",
"                  ...  +++++++###########  ++++                 ",
"               ...     +++++++########## +++++                  ",
"              ...      +++++++#######@++++++++                  ",
"                        +++++++###@@@@+++++..                   ",
"                         +.++++++##@@++++++..                   ",
"                          +++++++++++++++ +++                   ",
"                            ++ ++++++++++                       ",
"                      .     ++ +++++++.+                        ",
"                     .     ++   ++++++..                        ",
"                    .             ++++ .                        ",
"                   .                                            ",
"                  .                                             ",
"                 ..                                             ",
"                ..              .         .                     ",
"               ...              .                               ",
"               ..              .                                ",
"                               .            .                   ",
"                              ..             .                  ",
"                              ..             ..                 ",
"                              ..              ..                ",
"                              ..              ...               ",
"                              ..               ..               ",
"                              .                                 ",
"                                                                ",
"                                                                ",
"                                                                ",
"                                                                ",
"                                                                ",
"                                                                ",
"                                                                "};
