/* XPM */
static char * C:\Users\mathi\OneDrive\Documents\splash4_xpm[] = {
"64 64 4 1",
" 	c None",
".	c #5B0000",
"+	c #980000",
"@	c #6F0000",
"                                                                ",
"                                                                ",
"                                                                ",
"        ..                                                      ",
"        ...                                                     ",
"         ...                       ..                           ",
"           ..                      ..                           ",
"             .              +                                   ",
"              .             ++                     ++           ",
"                            ++                    ++++          ",
"                             +                    ++++          ",
"                             +                     ++           ",
"                    .        +                   +              ",
"                                                                ",
"                                                                ",
"                                                                ",
"                    +                                           ",
"                                                                ",
"                                                                ",
"                                                                ",
"                                                                ",
"                                                                ",
"                              @@@@                              ",
"                             @@@@@@                             ",
"                            @@@@@@@@                            ",
"                            @@    @@@                           ",
"                                   @@      .                    ",
"                          +        @@                           ",
"                         +         @@                           ",
"                         ++       @@@                           ",
"                         +++     @@@                            ",
"                         ++++          @                        ",
"                          +++++      @@                         ",
"                            ++@@@   @@                          ",
"                              @@@@@                             ",
"                 ++            @@@                              ",
"     .. .        ++                                             ",
"   ..                                                           ",
"  ...                                                           ",
"  ..                                                   +        ",
"                                                        ++      ",
"                                                         ++     ",
"                                        .                +++    ",
"                                                          ++    ",
"                                          +                     ",
"                                                                ",
"             .                                                  ",
"                                                                ",
"                                                                ",
"          ++                                                    ",
"          ++ .                                                  ",
"             ..                                                 ",
"             ...                                                ",
"             ....                                               ",
"              ...                               .               ",
"                                                                ",
"                                                 ..             ",
"                              .                  ..             ",
"                              .                                 ",
"                              .                                 ",
"                              ..                                ",
"                              ..                                ",
"                              ..                                ",
"                               .                                "};
