/* XPM */
static char *result[] = {
/* columns rows colors chars-per-pixel */
"64 64 40 1 ",
"  c #020101",
". c #0A0605",
"X c #0E0807",
"o c #0F0908",
"O c #140C0A",
"+ c #190F0C",
"@ c #1C110E",
"# c #20130F",
"$ c #231511",
"% c #2C1A15",
"& c #301D17",
"* c #321F18",
"= c #36211A",
"- c #39231B",
"; c #40271F",
": c #452B22",
"> c #492D24",
", c #4E3026",
"< c #513227",
"1 c #553429",
"2 c #58362B",
"3 c #5E3A2E",
"4 c #613C2F",
"5 c #653E31",
"6 c #674032",
"7 c #6D4335",
"8 c #704536",
"9 c #734738",
"0 c #76493A",
"q c #7A4C3D",
"w c #7B4E40",
"e c #7E5244",
"r c #804F3E",
"t c #82503F",
"y c #835140",
"u c #845649",
"i c #885748",
"p c #87594C",
"a c #8B5B4E",
"s c #8D5D51",
/* pixels */
"                                                                ",
"       .. o  o  X ..                           .                ",
"      .+o.+oXOXoO .o   .   .   . .  .  . ..      . .  ..     .  ",
"  .+..O@+@@@O Oo   .O.XO o++..@@@@@@@@+@+@+O  .O@+@+..O@O +o O. ",
" .O@OO.+@@@o.O.   .O.OO+Oo.@OO@@@@@@@@@@@@@@+O+@@@@@OO@@OO@OO+. ",
" o@@@O.+@@@Oo+.   .o.O#@@Oo+@@@@@@@@@@@@@@@@+@+@@@@@@@@@#@#@#@OO",
" X+@@@@@@@#@@@.     +@@@@@@@@@@@@@@@@@@@@@@@@@@@@@@@@@@@@@@@@@@+",
"  .@@@@@@@$$@$@.   .@@@@@@@@@@@@@@+@@@@@@@@@@@@@@@@@@@@@@@@@@@@@",
" .O+@@#+@@$$$$O.  .O#@+@@@@+@@@@@@@@@@@@@@@@@@@+@@@@@@@@@@@@@@@@",
" .+#++@@@@@$$@.   o$%$@@@#@@#@#@@###@+@#@@@@@+@$#@@@#@@@@#@@@@@@",
"  .O..+#@@@@@%@o  O&%%%%%%$%%%%%%$%%%%%%%%%%%$%%%%$%%%%%%%$%$%%%",
" .o.OO@@@@@@#%@o  +%&%%%%%%%%%%%%%%%$%%%%%%%%%%%%%%%%%%%%%%%%%%%",
" .O.OO@@#$@@#$$+. O&-&&%%%%&%%&%%&&%&&&&%%&&%%&&%&&&%&%%&%&%&%&%",
"  .O..++$$#@$%%%% @%---===--=---=--=*----------*-===------------",
"    OX.O#$$$@%%%% #=--------------------------*--=---===--------",
"    .. XXO$$$***%.@=--------;;-------------;;;:;;;;;;;;;;---;;;;",
"          +$%***#.O%---;----::----;*:*:*;*;>>>>>>>>>:>>>:--:>>>>",
"            .  O@ +&-;:>::>>:>:>>>>:::::>:>>>>>;>>>>>>>>>::>>>>>",
"   o. o .oO+++@###%-:><45344333334334344444444443233334333333333",
"  .O..O.O#+$%&-**--;:>500qqqw0wq0ww0w00wq00r00rrwwwww0qqw0w0w0ww",
" OO OO O$$#$&=----::-3qsasasssssssssaasaaaaasssssssssssssssssaps",
"  .OO@O@##$%%-=--;:,340passssssssssssaaaaasssssssssssssssssspwww",
"  XO+@@@+#$%&---->,4ww0wyiasaaaaaaaaayiyiiaasaaasssaasaasseue89w",
" O+ O@@+@#%%&==-;:30pse6riiiiiiaiiipiyyyyyyiiiiiuuuuiiiipsw999es",
" o++++#++$%%&--;:>380aayyyyyyyyyyyyyyyyytyyyyiityyyyyyyyuppau9us",
" o+o+@+$$+%%%-=;>>388usuyyyyytyyyyyyyyyyyyyyttyyyyyyyyyyyyassyuu",
" oO.+@@#+$$%*--;>>388uaiyyywrtyyyyyyyyyyyyyytyyyyyyyyytyyyiaaauy",
" O++++@+++%%%=-;>>388usiyyr0ryytyyyyyyyytyyttttyyyyyyyyyyyyyyyyy",
" o@@@@@+##%&&--;>>388paiyyyq0qrryyyyyyyytyyyyytyyyyyryyyyryyyyyy",
" .O@@+#+@@%&---;>>38wpsiyyyyq0rryryyyyyyyyyytyyyyytyyyyyyyyyyyyy",
"   +@@@@+@%&=--->>3wsssiyyyytr0qryyyyyyyyyyyyyyyyyyyyyryyyyyyyyy",
"  .+@@@+##%%&-=:>>30ysauyyyyytr79yyyryyytyytyytyytyyyyyyyyryyyyy",
"  .+@@@+@#%%*-*;>>4rtiaatttttttr99rrtyyttttttttttitttttttttttitt",
"  .+@@@@@@$%&*-;>>45riatittittti95rrttyyttttttttttttttittttttttt",
" X+@@@@@@@%%&*-:>>49iaaattttttttq8590tyyttrrtttttttttttttttttttt",
" O@@@@@@@@%%*-*;>>4rsssattttttttr05550rr0rrrtttitatttttrtttititt",
" o@@@@@@@#%%*-*:>>49ssstittttittttr555r09rr8rrttttrtttttttttttti",
" o@@+@+@@@%&---:>>4rssaattttyyttttt09559859r8rtrttrrtttisstttttt",
" o@@@@@+@@%%***;>>20ssaatttiyyyyttttr5558rr98rr9ttrrttttitttattt",
" o@@+@@@@@%%*;*:>>40asaaittttyytyyttrr585r88809rttrrttrttttttttt",
" o@@@@@+@@%&***:;,2qasaiyyyyyyyyyyyyitr555r5980r8rr5rr5rtrrr5ttr",
" o@@@+@@@@%%&;-*;>4qasaiyyyyyyyyyttytttr55599589599r5rtrr5888989",
" o@@@@@@@@$%&*;;;>4qsssiyyytyyytyyyyttttr555555898rrr5r55r5r535r",
" o@@@@+@@@%%&**:;>4qssiiyyyyytyyytyyttttrr9544455555555555555>35",
" X@@@@@@@@%%**---:4wsiiyyytyyyyyytyytitirtr0<,,>1<<,,,<,<1,1,,,,",
"  o@@@@@@#%%*----:40saiyyyyyytyyyyyyttttrr084<<45095955r85855995",
"   O++@@@@%%&*--;>40siiryttyytytyyytttttrr8851<48rrrrrrrrrtrrrrr",
"    O@@@@@%%*-*;>>4qsiityyyyyyyyytyytttt5r0894,<45885r59955r55r5",
"   OO@@@@@%%=--;>>40sairyyyyyyyytttttttrr08881281155888888888888",
" .O@@@@@@#%%==-;>>30ssayyyyrtyytttittttr0q88813r4<45588888888858",
" o@@@@@@@#%%%--;>>4qsssiyyyyyyyyttttttrq0r08712q51<4588888888888",
" o@@@@@@@#%%%=-;>:4qasaiyyyyytyytttttt00r888813r944,455888888888",
" o@@@@@@@@$%%--;;,49sssiyyyyyyytitttttrr0888823r0554<25558888855",
" o@@@@@@@@%%&--:>>4qssaiyyyyyyyyttttttt00887613qr9952<<457588858",
" o@@@@@@@@%%%-:>>>4qssaiyyyyyryytttitr90r885,;2r888554,4554588rr",
" o@@@@@@@#%&&--;,;4rssaiyyyyyyyyttttr9rr9877,;3r9888852<24455589",
" .o+@+@@@@$%&--;,,40aaaiyyyyyytttttttttr7862;,3r98887741<2444455",
"  .@+@@@@#%%%--;;,49ssaiyyyyyyyttaatttr8884,>>1r987887542,444445",
" .++@@@@@@%%%-=;;,4qassiyyyytytittttrrrr8874,;4r0878877544,24544",
" o@@@@@@+@%%&-=;,;40ssaiyyytyyttttttrrrr8q974,4r8888887754<<<2<<",
" o@@@@@@@@$%%--;>>40asaiyyyytttttttttttr0r98812r988888887541;;,;",
" o@@@@@@@@%%&--;>>3rasaiyyyyittittttttttt888713r988888877751;;;;",
" o@@@@@@@@%%%--;>>3rtaaayyyytttttttttttttr08812r888887877551;;;;",
" o@@@@@@@@%%&=-;>:3rttaayyyyittttatttttttrq8813r988888877452;;;;"
};
