/* XPM */
static char *result[] = {
/* columns rows colors chars-per-pixel */
"64 64 36 1 ",
"  c #020101",
". c #090605",
"X c #0F0907",
"o c #0F0908",
"O c #140C0A",
"+ c #190F0C",
"@ c #1C110E",
"# c #2C1A15",
"$ c #39231B",
"% c #40271F",
"& c #41281F",
"* c #442A21",
"= c #492D24",
"- c #4E3026",
"; c #513227",
": c #543429",
"> c #59372B",
", c #5E3A2E",
"< c #613C2F",
"1 c #653E31",
"2 c #674032",
"3 c #6D4335",
"4 c #6F4639",
"5 c #704536",
"6 c #734738",
"7 c #764939",
"8 c #7B4C3D",
"9 c #7F5144",
"0 c #804F3F",
"q c #81503F",
"w c #835140",
"e c #865649",
"r c #885748",
"t c #87584A",
"y c #8B5B4D",
"u c #8D5D51",
/* pixels */
"                                                                ",
"                                      XXoooooXooXXO.            ",
"     ..   .      ...  .    . ..   .  .O+@@@@@@@@@@+O.. .  .    .",
"O  .++@+@@@O    o+++@@@@@@+@+@@@@@@+. .O@@@@@@@@@@@@+@@+@@@@@@+@",
"@OOO@@@@@@@@OOOO+@@@@@@@@@@@@@@@@@@@OOO+@@@@@@@@@@@@@@@@@@@@@@@@",
"@@@@@@@@@@@@@@@@@@@@@@@@@@@@@@@@@@@+@@@@@@@@@@@@@@@@@@@@@@@@@@@@",
"@@@@@@@@@@@@@@@@@@@@@@@@@@@@@@@@@@@@@@@@@@@@@@@@@@@@@@+@@@@@@@@@",
"@@@@@@@@@@@@@@@@@@@@@@@@@@@@@@@@@@@@@@@@@@@@@@@@@@@@@@@@@@@@@@@@",
"++++++@@@@+@@@@@@@@@@@@@@@@@@@@@@@@@+@@O@@@@@@@O@@@+@@@@@@@@@@@@",
"@+#++#@+@@@+@@@@@@@@@@@+@@@+@@@@@@@@++@#@@#@@+@#@@@+@@@+@@@@@@@@",
"########################################@#######################",
"################################################################",
"##################################################$#############",
"$$$$$$$$$$$$$$$$$$$$$$$$$$$$$$$$$$$$$$$$$$$$$$#$$$$$$$$$$$$$$$$$",
"$$$$$$$$$$$$$$$$$$$$$$$$$$$$$$$$$$$$$$$$$$$$$$$$$$$$$$$$$$$$$$$$",
"*$$$%%%%%%%%%%%$%%%%%%%%%%%%%%%%$*$***$*$*%%**%%%%$$%%*$*%%%*$*$",
"*$$**===========================*=======-*-*====================",
"===*====**=====*==**=*==**=====-=======&*-**====================",
"<<<>,>,,,<<<<<<,<,,,,,<<><,><1<1<<<<<<<<<<,,,,1,,,,,>,,<>,,,,,>,",
"7779797897707796967996979689919188787700000770qq7887978887979769",
"uuuuuuuuuuuuyyyyuyyytyuyuyuuyyuuyyuuuuuuwyuuuuuuuuyuuuuyuuuutuuu",
"uuuuuuuuuuuuyyyyytyytyuuuuuy98eueruuuuuuyuuuuuuutyytyyuuuuuuuuuu",
"uyyytetuyyyyrrrrrwrrwryyyyye111y9euyyuuuuyyyyyyrerwrryyyyyyyyuuu",
"rrree79errrrwqwqwwwwwwttrrrew<<71eyyryurrrrrrrrr0www0rrrrrretetu",
"wwwww0wwwwwwwwqwwwwwqwwwwwwww171yuuwwrrwwwwwwwwwqrqrqqrqwwwwwwrr",
"wwwwwwwwwwwwwwwwwwwwwwwwwwwww10wuywwwwrwwwwwwwwwqqqqqqqqwwwwwwww",
"wwwwwwwwwwwwwqqwwwwwwwwwwwwww0wuyrwwwwwwwwqwwwwwqwqqqrqqwwwwwwww",
"wwww0wwwwwwwwwwwwwwwww0wwwwwwyrqwwwwwwwwwwwwwwwwwwrqqqqqwwwwwww0",
"wwwwwwwwwwwww0qwwwww0wwwwwqwwrrq0wwwwwwwwwwwwwwwwwwwqqqrqqqqqwwq",
"wwqwwqw0wwwwwwwwwwwwww0wwwwwqqwwwwwwwwwwwwwwwwwwwqwwqqqqqqqrwwww",
"wwwwww070ww0w0wwwwwww0wwqwwwqwwqwww0w0wwwwqwwwqwwwwwrqqqqrwqqwww",
"wwwwwqwrwwwwwwwwwwwwwwwwwwqwwqwwwwwwwwwwwwwwwwwwwwwwqqqqqqwwwwwq",
"wwwwwqrrwwwwqqqqqqqqqqyqqqrqwwww0wwwwwwwqwwqwwwwwwwwqqqqqqqqqqqq",
"wwwwwqqqqwwwqqqqqrqrqqqqqqqqwqwwwwqwqwwqwwwwqwqwqwwqq0qqqqqqqrqq",
"wwwwwwqqwwwwqqqqwwqqrqqqqqqqqrwqwwwwqqwwqqwqwwqwwqww00q0qqqqqqrq",
"qwwwqwqqwwwwwwqqwwqrqqqqrqqqqqwww0wwq0000wwwwwwwwwqq0000qqrqqrqq",
"wwwwqqqqwwqq0qqqwqwwqqqqqqqqwwwwwwqwwww00qqwwqqqwqq07001700qrqwq",
"wwwwqqqqwwq000qqwwwwqqrqqqqqqwqq0wwwwqwyrqqwwwwqww01q1016660qqww",
"qqwwqqqq000000qqwwwwqqqqqqrqqq87000ww00wwqqqwq00wq00q7706566qqww",
"qqqw0000005000q0wwwwqqqqqqqqq887101000w000q0qq10qq01071q55670qqq",
"q000050000305000qw0000007077q67q000110w1070000710570555615606607",
"0q01333350353350qw00005687886555170110101710q10055565551:<565577",
"3030553012>,11>,6006505076775555711011111710070155655<>>->566667",
"1111111,1>*=<>**,1<1<11<2221222211111,=11111111111111;===>111111",
";;;=;;=;-===;=$$&-;=;=;-=;=;--==;**=;=>;,;;;;-,;;---;==---;;;---",
"33335333515551,;<5335535555531>=***=1111117111175515555516155515",
"0000000000000031000000000888871:%&;,1w00wqq0w00w0000070000700700",
"33511033553551300355155355555552=*;10110711010111555661555565565",
"311<<35555355555555553553555553<-==<1555665556156655555551510555",
"3010515555555555535555555355553<&&;<5555515551055115565567551655",
"03000035555535555555555553555532%&;<1655555555551155176750155551",
"1533555553555555555555355553552,%&;<5556555555557075555151655610",
"33555555555355353555555325555531%&;11516555501656771757601105101",
"10555555333533335533555126555533&&=<1111555516555555551630111001",
"35553355<<15123133<35553587355331;&->151151616615755551611011115",
"35111511<131311311311555577555321;%=<115115501605155555101111101",
"1111151111111111<<3<<153155155111;%&<<<1<<1171611111661122<3<12<",
"11515111<<<<1<<<<<<<<<52151151151=%-><<<<<<1111110111111<<<<<<<<",
"11111<11<111<1<;===><<<<<1<<<<<<-&%&<1<<>;<<1<<<111<111<<<<1<1<<",
"::::::::;;;;;;;**%*;>:::::::::::=%$%-;;;=&;;<::::::::>:>;>;;;;>;",
"*&**&&*&&&&&*&&*%$$%*=**&&=&&==&&%$$%&&&%$&==*=**=*******=****=*",
"$%$%%%%$%%%%&%%%$$$$$$$$%$$%$%$$%$$%$$%&$$$%$$$$$$$$$$$$$$$$$$$$",
"&&&&&*&&&&&&&&&&******&*&&&&&&&&&&&&&&&&&&=&&*&&&&**&*&%**%&*&**",
"=;-==----;-;;;;;---=;;;;;=-;=;-=====--&-=====;=-;=;;=-;;;;;;;;;;"
};
