/* XPM */
static char *result[] = {
/* columns rows colors chars-per-pixel */
"64 64 42 1 ",
"  c #010000",
". c #0C0403",
"X c #130705",
"o c #150906",
"O c #180A06",
"+ c #1D0D09",
"@ c #200E0A",
"# c #25120C",
"$ c #2A150E",
"% c #2B1510",
"& c #2E1811",
"* c #351D14",
"= c #381F15",
"- c #392016",
"; c #3E2219",
": c #42251B",
"> c #46291F",
", c #4C2C21",
"< c #502E23",
"1 c #553225",
"2 c #5E372A",
"3 c #5F382A",
"4 c #643B2C",
"5 c #683E2E",
"6 c #6A3F30",
"7 c #6E4232",
"8 c #724434",
"9 c #784736",
"0 c #794937",
"q c #744738",
"w c #764939",
"e c #7B4B3A",
"r c #7F5142",
"t c #824E3D",
"y c #84503E",
"u c #865444",
"i c #895646",
"p c #87564A",
"a c #89574A",
"s c #8D5B4E",
"d c #8F5E51",
"f c #905E52",
/* pixels */
"                                                                ",
"                                               .  .  .  .       ",
"                                            .  .. . .. ..       ",
"  . .. .XX  XXXXX   .XXXXXXXXXXXXX  X.. X  .     . .Xoooo.  .   ",
"  X..o.Xoo..ooooo...oooooooooooooo..X ..X.. .     . .ooo. ..o.. ",
"..ooooooooooooooooooooooooooooooooooX .ooo...     .. oooX..ooO. ",
".ooooooooooooooooooooooooooooooooooooXoooooX      oooooooooooX  ",
"oooooooooooooooooooooooooooooXoooooooooooooX    .o+O+@OoooooX   ",
"ooooooXoooooooooXooooooooooooooooooooooXXXO+.    .++@+OoXoooX.  ",
"oOOoOOOOOOOoOOoOOOOOOOOOOOOOOOOoOOOOOoOoOO+#+.   .o@@oXoooX.oX  ",
"#################@#####@###################$#.  .o#OXooooo. .   ",
"##$#####$##$##$##$##$##$#############$####$%$X  .o#+XoXXoo....  ",
"%%%%%%%%%%%%%%%%%%%%%$%$&%%%#%%%%$$%$$$$%%&*%X  .+#OooOOoo.. .  ",
"********************************************%X @###Ooo#+XX  .   ",
"==********************-*****-****-***-*******o %$##OO#OoX ..    ",
"==:=-**=;;;;;;;;;;;;;=**-*****-***;-***-**=**X #*&$#++..        ",
",,,=;&=:>>>>:,:,;,:,:;-**-*-*-----;;**-*=*=*$. @$&%#OX          ",
",,,,,,:,>>,>:,,,:,,,,:>>>>>>>>>>::,,>>>>>>:*$X X.               ",
"14242222424422442223222233442333333332222<>;*#+++oX....  .  .   ",
"wwwwwwqr999ewwwwwweerqqr009eww00weeee0eew4,:;-*$**&$@oO. .  .   ",
"ssssddssssssfsssdsssssdsssdssdsdddsssdsssw4;::=****$@O@+. .. .. ",
"rwrsddddffffffffddfsdsspasadddddddddffssaq42,::****$#@+OX.XX.   ",
"wq6uupdsssssssssssssspuuiuysssdsssdsssauwqqw4,>=***$##oXXoo..   ",
"dpqq6wssiiiiiiiiiiiiiuyuyyyuiiiiupppiiue7rdsw2>=***$$#OXXoo. .. ",
"su6iaaauyyyyyyyyyyyuyyyyyyyyyyyyyyyyyyyyuspw83>>=**%##OoXooXXX. ",
"ipudfaiuyyyyyyyyyyyyyyyyyyyyyyyyyyyyyyyyisp782>>:**%##OooooX... ",
"tussiuyyyyyyyyyyyyyyyyyyyyyyytyyyyyytyyyisu882>>==*$$#Ooooo. .  ",
"ttuuuyyyyyyyyyyyyyyytyyyytyyyyyyyyye9yyuisp982>>;**%$@OoXOoXXX. ",
"tyyyyyyyyyyyyyyyyyyyyyyyyyyyyyyyyy000tyyispq62>,;**&%@OoXoXXoo. ",
"yyyyyyyyyyyyyyyyyyyyyyyyyyyyytyytt00yyyyisaw94>>;****#OoXooXX.  ",
"yyyyyyyyyyyyyyyyyyyyyyyyyyyyyyyte9tyyyyyisda94>>:*=*&#OXXOooX   ",
"tyyyyyyyyyyyyyyyyyyyyyyyyyyyyyy970yyyyyyissu92>>=*=$$#OOXoooX   ",
"yyyyyyyyyyyyyyyyyyyyyyyyyytttt989tyyyyyyisae92>>;**$##OoXoooX   ",
"yyyyyyyyyyyyyyyyyyyyyyyyyyyttt48yyyyyyyyisaq82>>;**%##ooooooX   ",
"yyyyyyyyyyyyyyyyyyyyytyyyyt97470yyyyyyyyisss02>>;**%##OooooooX. ",
"yyyyyyyettyyyyyyyyyt0tt0tt97479tyyyyyyyyisfde2>>;**%$#OXoooooX. ",
"yyyyyyyttyyyttyyyytt9008097479tyyyyyyyyyisdsw2,,;**%$#OXXXXooo  ",
"yyyyyysdyyyyttyttyt8t08887470tyyyyyyyyyyusdsw3;:;***%#oooooooo. ",
"yyyyyyyyytyyt8tt9t0880077479tytyyyyyyyyypsdde3,,;**%$#OoXooooo  ",
"tyyetyttttttt00000087907479tyyyyyyyyyyyypsddw3:,;***$#OXXXXXoo. ",
"ttt80t80t8tt7t08t887877379tyyyyyyyyyyyyyisfde2>>-***&#OoooXooo  ",
"088788889t80t888877777470ttyyyyyyyyyyyyyisdse2>*-**&#@Oooooooo. ",
"871788888088987877475570tyyyyyyyyyyyyyyyiddde2>:-**%##Oooooooo  ",
"71,34555555545557313479tyyyyyyyyyyyyyyyyuidse2>:--*&##Oooooooo. ",
",>,,,,,,,,,,,,,,,,,<9tttyyyyyyyyyyyyyyyyyisd04>***&&##Oooooooo  ",
"78788787757877773<<4890ttyyyyyyyyyyyyyyyyuid02>*-**%##Ooooooo   ",
"t0t00t0tttttttt74<17780tttyyytyyyyyyyyyyyisde2>;-**###OooooX.   ",
"8887887888587752,,1770t7tyyyyyyyyyyyyyyyyyide2>>-**&##Ooooo.    ",
"88887878877875116118899ttttyyyyyyyyyyyyyyuspq2:,;***%#OXoooX.   ",
"8887888778775113t216689tttyyyyyyyyyyyyyyupddr2,:;--&%#ooooooX.  ",
"7887878788753>17t12889t8ttyyyyyyyyyyyyyupsddq2:,-**%$#Oooooooo. ",
"887878777751,349t216888t89tytyyyyyyyyyyyusddq3,,;**%##OooooooX. ",
"4578878755111579t1166869t9tyyyyyyyyyyyyyisdsw3,;;**%##OoooXXoo  ",
"7788857431<15778t2<469699tytyyyyyyyyyyyyisdsw3,,;-*$##ooooXooo. ",
"008843443,157789t1>,699t09ttyyyyyyyyyyyyisdsw3:,>:*%##oooooXoo  ",
"88444331<1578878t4>,5869t09tyyyyyyyyyyyyisfsq2,,:-*$$#Oooooooo. ",
"5543331114778880t4:>4469000tyyyyyyyyyyyyisfs04,:=**%##OXooooo.  ",
"533332,134787778t1>>>49689yyyyyyyyyyyyyyisdse2>>;**%$#Ooooooo   ",
"34331,2357778870t1>>46890tyyyyyyyyyyyyyyisfse2,>;**$##OoooooX.. ",
"1111113477777778t2,459e6eyyyyyyyyyyyyyyyisfsw2>>;**%##Oooooooo. ",
"::::134888877780t11779t8tyyyyyyyyyyyyyyyisdsw2,,;**%##Oo.ooXoo. ",
"==::135888888878t217888ttyyyyyyyyyyyyyyyusdsw2;:;**%$#oooooooo. ",
"::*:134787788770t11870eyyyyyyyyyyyyyyyyypsseq3,,;**%##Oooooooo  ",
"::=:134558878888t21780tyyyyyyyyyyyyyyyyyadpwq2:,;**%##OXooooXo. "
};
