/* XPM */
static char *result[] = {
/* columns rows colors chars-per-pixel */
"64 64 42 1 ",
"  c #020100",
". c #0C0403",
"X c #140705",
"o c #150906",
"O c #180A06",
"+ c #1E0D09",
"@ c #25120C",
"# c #2A150E",
"$ c #2B1610",
"% c #2D1810",
"& c #351D14",
"* c #381F15",
"= c #3A2017",
"- c #3E2219",
"; c #42251B",
": c #47291F",
"> c #4A2A1F",
", c #4C2C21",
"< c #502E23",
"1 c #543124",
"2 c #583427",
"3 c #5D3629",
"4 c #5F382A",
"5 c #633A2C",
"6 c #683E2E",
"7 c #6A3F30",
"8 c #6E4232",
"9 c #724434",
"0 c #784737",
"q c #794937",
"w c #7B4B39",
"e c #7F4F40",
"r c #7F5042",
"t c #814E3D",
"y c #84503E",
"u c #804F40",
"i c #855242",
"p c #895646",
"a c #875649",
"s c #895749",
"d c #8D5B4E",
"f c #8F5E51",
/* pixels */
":;*;158658999999t2<9tq9tyyyyyyyyyyyyyyyypdfdw3,;=&&$@@oooooooo. ",
":;*;145689898999t319ttttyyyyyyyyyyyyyyyypdfdw4,*&&&$@@OXXoXooO. ",
":;*;156899999999t218qtqtyyyyyywtyyyyyyyypdfdw4,-**%$$@ooooooX.  ",
":;=;<58889899999t518990ttyyyyy9qyyyyyyyypdffw4,--&&$@@OoooooX   ",
":;*;155698989889w318ttt9ttytpp9qyyyyyyyyasfde3,;-&&$@@OoooooXo  ",
":;*;156899999999t318900ttyyyttttyyyyyyyiadfd03;,-&&$@@OoXoooX   ",
">;*;,38989999999t318999qttyywqtyyyyyyyyyadfde2,;-&&$@@ooXoooX   ",
",;*;><8999899990t319tq99ttyyttyyyyyyyyyyadfde2;,-&&$@@ooXooo.   ",
">;=;<38979989799t2199qtt00yyyyyyyyyyyyyyypdd04,,-&&%%@oXXoO. .  ",
">;*;158999999990t2180qqtwwyyyyyyyyyyyyyyipdde3,**&&&%#++Oo.  .  ",
",;*;156899998999t319tq0tyyyyyyyyyyyyyyyypdfdw3,***&#%&#@@o  .   ",
">;*;<55897989999t2189qt9wyyysdyyyyyyyyyypdp072,*-;&&&@Ooooo.    ",
":;*;<56898989899w318900qyyyyypyyyyyyyyyypda84,**=&O@@.          ",
">;*;156899999999t328990tyyyyyyyyyyttttyyupe6,-&&%O ..           ",
",;*;155698999999t219wyt9qyyyyyyyyyyt9ttt007,-*&$X               ",
",-*=;<5568999999t319900qyyyyyyyyyyy03qtyuie4,-;*#+Oooo. ...     ",
",-*=;,5569989999t318009qtyyyyyyyyww95wyyafa92<::;*%###+OOo.     ",
",;=;,,8889899899t319wq99wyytwyyyw990yyyyafa992:,:;*&%@@@@X      ",
",-*;138998988890t3199qyt00t45999998qyyyyaddae2,;==&%#@+OX       ",
",-*;158898999989w3>58908436258989qqqqyyiadfde3;,-&&#@@oo. .     ",
",;*;158899888889w2;>585>>><89009qtyw9tyypddde2,;-=*#@@OXooX     ",
">;*;1589989999988>-:>>>>58880wyyyyyyyyyypdfde4;,=&&#@@OooO      ",
",-*;1588999899982;=::1549wwwwyyyyyyyyyyypdfd02;,-&&#@@oooo      ",
",;*;1589899989882;-:<500qyyyyyyyyyyyyyyypdffe2,;-=&@@@OoX.  .   ",
",;=;158999989890w2>,80wyq0tyyyyyyyyyyyyypdff03;,*&&$@@OoX ..    ",
",;=;<58989999889t3>89qyyttyyyyyyyyyyyyyypdfd04,;-&&$@@OoX.XX.   ",
",;=;155899899999t31889qyytqyyyyyyyyyyyyypdffw4,,-*&$@@OoXoooX.  ",
",-=;<54898999990w318990ttt9wyyyyyyyyyyyypdfsw4,;*&&$@@OXXoXoXX  ",
",;=;158889898989t3288qyyq99wyyyyyyyyyyyypda073-,;&&$$@XXoooooo  ",
"<;=;145899899990t2>480qyyywyyyyyyyyyyyyypddu02,,-*&$@@OXoooooo  ",
",;=;145688999899t2:>690tpsyyyyyyyyyyyyyyadffe3,;*&&$@@OoXoooXo. ",
"<;=-<55899988999t3:>60tyyyyyyyyyyyyyyyyyadff03,,-&&$@@Oooooooo  ",
"<;*;156898988990t3<589qtyyyyyyyyyyyyyyyysdfdw4,--&&$@@OoooXooo  ",
">;*;<56999999999t5190qqtyyyyyyyyyyyyyyyyidfdq4::-==@@@OoXoXooo  ",
">;*;155789999990q319ttyyyyyyyyyyyyyyyyyyadffq4,:==&$@@Oooooooo. ",
">;*;157889899899t3189qyyyyyyyyyyyyyyyyyyadfdq4,:=&=%%@OoooXooo  ",
";;*;158999899999t3<9qqqtyyyyyyyyyyyyyyyyadfdw3::-&&&@@OXXoXXoo  ",
">;*;<58989899889w3<9tq0yyyyyyyyyyyyyyyyyaffde3::==&#@@Oooooooo. ",
">;*;1589998qw689t3279qtyyyyyyyyyyyyyyywqaffd03::==&#@@ooXooooo  ",
":;=;1557889qt88qt31999qtyyyyyypyqtyyytttrdfdw3,::=&##@OXoooooX. ",
":;*;15588989w999w3<999qtyyyyyypyqtyyyyyipdfde2,;;-&$@@OoXXooXo  ",
":;*;158899999999t32790ttyyyyyyyyyyyyyyyypdfdw3;,-&&$$@ooXooooo  ",
":-*;155899999999w21999qtyyyyyyyyyyyyyyyypdfd03;,-&&#@@OooXXooo  ",
":;*;136897988989t31990wtyyyyyyyyyyyyyyyypdffe2,;=*&$@@Oooooooo. ",
":;=;<58889999999t3169qtyyyyyyyyyyyyyyyyypdfdw5;,-&&$@@Oooooooo  ",
":;=;154567999990w3>>60yyyyyyyyyyyyyyyyyypdfdw5,;-*&$@@Oooooooo  ",
":;&;135579998999t3,580wtyyyyyyyyyyyyyyyypdfdw4,,=&&$@@Ooooooo   ",
":-*;156699889999t219990tyyytyyyyyyyyyyyypdfd04,;-&&$@@Ooooooo   ",
":;&;158889989980w31880yyyyyyytyyyyyyyyyyrdfde3::-&&$#@oXoooooX  ",
":;=;145588988999t3>18qyyyyyyyyyyyyyyyyyyadfdq3::-*&$@@OXoooooo. ",
":;=;154458889990t2><6wyyyyyyyyyyyyyyyyyyadfde2::=&&$@@OXXooooo  ",
":;*;<55488889899t2:>60yyyyyyyyyyyyyyyyyyyiddq3::-&&$@@OoXXXooX. ",
":;=;<688899989898>=>8qyyytyyyyyyyyyyyyyyyidd03::-*&#@@OoX .ooo  ",
":;=;<558888899006:=>6wyyyyyyyyyyyyyyyyyyyadde3::=&&%$@OX. .ooo. ",
":;&;<5545889890q6>=>60yyyyyyyyyyyyyyyyyyypsd03:;-&&&%@XoooooXo  ",
":;&;>>8558999980w2:>80yyyyyyytyyyyyyyyyyyyddw3,,-*&$@@Oooooooo. ",
">;**;>4888989889y2<59yyyyyyyyyyyyyyyyyyyypddq5,;*&&&$@OooooXoo. ",
">;&&;>5588999980w329tyyyyyyyyyyyyyyyyyyyyiddw3;,-&&&%@OoXoooX.  ",
">;&&;>8558988990w319wyyyyyyyyyyyyyyyyyyyyasfw4,,-*&$@@OoooooX   ",
";;&;<45588999989t3189wyyyyyyyyyyyyyyyyyypsfdw3,-**&%@@OoooooX   ",
">;&;158898989980y2280wyyyyyyyyywyyyyyyyspdfdw3,,-&&&%@ooooooX.  ",
">;&;<58898999889w419wyyyyyyyyyyyyyyyyypdadfdw3-;-*&&%@OoooooXX  ",
">;&;158888898990y2289wyyyyyyyyyyyyyyyyyyadffw3,,=&&#@@+ooooooo  ",
">;*;158888889999w218qwwyyyyyyyyyyyyyyyyyadffw3;,-&&#@@oooooooX. "
};
