/* XPM */
static char *result[] = {
/* columns rows colors chars-per-pixel */
"64 64 42 1 ",
"  c #010000",
". c #0C0403",
"X c #130705",
"o c #150906",
"O c #180A06",
"+ c #1D0D09",
"@ c #200E0A",
"# c #25120C",
"$ c #2A150E",
"% c #2B1510",
"& c #2E1811",
"* c #351D14",
"= c #381F15",
"- c #392016",
"; c #3E2219",
": c #42251B",
"> c #46291F",
", c #4C2C21",
"< c #502E23",
"1 c #553225",
"2 c #5E372A",
"3 c #5F382A",
"4 c #643B2C",
"5 c #683E2E",
"6 c #6A3F30",
"7 c #6E4232",
"8 c #724434",
"9 c #784736",
"0 c #794937",
"q c #744738",
"w c #764939",
"e c #7B4B3A",
"r c #7F5142",
"t c #824E3D",
"y c #84503E",
"u c #865444",
"i c #895646",
"p c #87564A",
"a c #89574A",
"s c #8D5B4E",
"d c #8F5E51",
"f c #905E52",
/* pixels */
"  Oooooooo##$**:,:2qqpsiutyyyyyyyyyyyyyytte88<2t888888755421:*:>",
"  ooXXoooO##&**;:,2qrssityyyyyyyyyyyyyyyte98811t988787887441:*;:",
"  oooooooO##$**;,:3wpddiutyyyyyyyyyyyyyyt988712t878787878741:--*",
" .oooooXoO##$**;,,3eddppyyyyyyyyytyyyttt9e988<1t98878788544<>:::",
"  ooooooXO##$**;,,1wddsiyyyyyyytyyyyyyye89864<1t87788877441111<1",
"  XXoooooO##$**;;,2wsdsiyyyyyyyyyyytyyte7874>:2t8777877422>14422",
"   XoooooO##%**;:,30sdsiyytyyyyyyyyyyy98782,>>2t887877421>142444",
"  .oooooXo##%**;,,3wddsiuyyyyyyyyyyyt0098852,:1t0888854112424247",
" .ooOoooOO##%*-;:,2wddsiyyyyyyyyyyyyt9009885<>2t8888844<14444479",
"  ooXoooOO##%*;,:,2qddsuyyyyyyyyyyyyyt90t885>>2e887742>124447700",
"  ooooooXO##$*-;:,3eddspyyyyyytyyyyyyytt88854<2t88851<1447778877",
" .oooooXoO##%**;,,30sdduyyytyyyyyyyyyt009888811t9751114577787855",
" .oooooOoO##%**;>>40sdsiyyyyyyyyyyytyy99t888511t852>158587788887",
"  oooooooO##%**;>>20ddsiyyyyyyyyyyytyyy08t98812e51>4488878878778",
"  .XoooooO#%***;>>40ssiiyyyyyyyyyyyyyyyt0098712t2115587887788788",
"   .XoooXO#&***;>>20ssiyyyyyyyyyyyyyyyytt8888<181158878878887887",
"    .oooOo$#%*-->,3wdauyyyyyyyyyyyyyyytt8t9881><2488878888778888",
"   .Xooooo#$$**--;3edauyyyyyyyyyyyyyyyttt88881<490eete0tt0ttt00t",
"   XoooooO@$%***->2wssiyyyyyyyyyyyyyyyyyt9984,147888878877887877",
"  OOooooXo##%***-,2wsaiyyyyyyyyyyyyytyyyttt9<>>>><>><<>>,,>,,>,,",
"  oooooooO$#$*--:>3wsdsiyyyyyyyyyyyyyyyyt97421447545475555554>15",
"  oooooooo##$**-:>3esfsiyyyyyyyyyyyytyyt075555588880880887885458",
"  oooooooo#$%*-*->30sdsiyyyyyyyyyyyytyt974778888888t00t888888889",
" .oXoXoooo#%**-->>3esdsiyytyyyyyyyyytt974777888t80t80e8t08t08ttt",
" .ooXXXXoO#$&*-;>>30sfsiyyyyytyyyyyyt97770988000000etyetttytttyy",
"  ooXXXooO#$$**->>30sdsiyyyyyyyyyytt0744800880t0ye9tyyyiyyyyyyyy",
"  oooooooO#$*--;;,3esfsiyyyyyyyyytt97477880t80yyyytyyyyissyyyyyy",
"  oooXooXO#$%**;,,3esfsiiyyyyyyyyt0747098009ttyyyyyyyyyetyyyyyyy",
" .oooOooXO##$---,:2wddsiyyyyyyyyt87770tt0tt0tytyyyyyyyy00yyyytyy",
"  XooooooO##$--;:,2qpdsiyyyyyyyy07378tytyytyyyyyyyyyyyyyyyyyyyyy",
"   XoooooO##$&--,:2qwpdiyyyyyyyy87tttyyyyyyyyyyyyyyyyyyyyyyyyyyy",
"   XoooXoO##$-*-:,2qepspyyyyyyy988tyyyyyyyyyyyyyyyyyyyyyyyyyyyyy",
"   XoOXOoO@#$**;>>3qissiyyyyyte78tyyyyyyyyyyyyyyyyyyyyyyyyyyyyyy",
"   XoooXoO#****:>>3wadsiyyyyye9etyyyyyyyyyyyyyyyyyyyyyyyyyyyyyyy",
"  .XXooXoO#&***=>>3qessiyyyy00eyyyyyyyyyyyyyyyyyyyyyyyyyyyyyyyyy",
"  OOXooXoO$$***;>>378usiyyt00tyyyyyyyyyyyyyyyyyyyyyyyyyyyyyyyyyy",
" .oXXOXXoO##$**;,>378asiyyy9eyyyyyyyytyyyyyyyyyyyyyyyyyyyyyuyyyy",
"  X .oOooO##$**;>>388asiyyttyyyyyyyyyyyyyyyyyyyyyyyyyyyyyyuassyy",
" .X XXooXO##%**;>>288udiyyyyyyyyyyyyyyyyyyyyyyyyyyyyyyyyyiassuii",
"  XXXooXoO#$$**;:>380isyyyyyiyyyyyyyyyyyyyyyyyyyyyyyyyyyiassu8id",
"  . .oOXoO#$$***->4qadr6eiiiiiiiyyiiuyyyyyysppiiiiiiiiapaswqq8ud",
"   .XoOXoO##%***->,4ewqrupssssssdsddsyuuyiasssssssssssssdspueqwe",
"   .XX.XOO@#$****:>,24qassddsfffdddddsassssdddddddddddddddddprer",
"  . .. .O#O@$*****;:-2wddpddssssdsdddssssssdsdssssdsssssssssssss",
"   .  . .+o@$$**&*=-:,4wwwwrwee000000e000e00eeeeewwewerwrwwwwwwe",
"          ..XXo+++#*::<32233333244333332333333333333222222322233",
"                X X%*;,,,::,,,>>:>>>>>>>>>>>>>>>>>,,>>,>,;:,>,,,",
"          .O#&&%+ .$****-**=;;====*=-**--*;>>>>>>,,;>>:,;--;>:,:",
"         .++#&$*$ o*******-*=;******=***=*==;=;;--;;;;;;-**-;;;;",
"    .. XO+@OO##$$ o*******-**************==*=***-*--****-*******",
"   .  Xo+#OoO###@ X%****************************&*&-************",
"  .  XOoOOooO#+X  X%*&%%$$$$&$$$%&%%%&%%%%%%%%%%&%$$%%%%%%$$%%%%",
"  .  XooOXoXO#O   X$&$###$##$#####%##%##%%$#####$###$#########%#",
"   .  XoXooo+#O   .################@#@##@@###################@##",
"  XoXXoooXo@@O    .+#+OOoOOOoOOOOOOOOOOOOOoOOOOOoOOOoOOOooOoOOOo",
"  .XoooXOO++++.    .OOoXXXoooooooooOooooooooooOXoooooooooooooooo",
"   XooooXO#OO@o     XoooooOooooooooooooooooooooooooooooooooooooo",
" .XoooooooOooo      XoooooXooooooooooooooooooooooooooooooooooooo",
"  ooO. oooo. X       Xooo. ooooooooooooooooooOOooooooooooooooo..",
"  XXX  .ooo  .     .  XX.  o..oooooooooooooX...oooooX.ooX.o..X  ",
"   .  XoXXoX. ..    .  .  XX  XXXXXXoXXXXXX.   XXXXX  XX  X  .  ",
"       X. X. .  .  .                                            ",
"                                                                ",
"                                                                "
};
