/* XPM */
static char *result[] = {
/* columns rows colors chars-per-pixel */
"64 64 38 1 ",
"  c #010000",
". c #0C0403",
"X c #130705",
"o c #150906",
"O c #180A06",
"+ c #25120D",
"@ c #2B1510",
"# c #361D14",
"$ c #381F15",
"% c #3A2017",
"& c #3E2219",
"* c #42251B",
"= c #47291F",
"- c #492A1F",
"; c #4D2C21",
": c #512E23",
"> c #533124",
", c #593427",
"< c #5E372A",
"1 c #5F382A",
"2 c #643B2C",
"3 c #683E2E",
"4 c #693F30",
"5 c #6E4232",
"6 c #724333",
"7 c #784737",
"8 c #794937",
"9 c #774939",
"0 c #7C4B3A",
"q c #824E3D",
"w c #84503E",
"e c #865343",
"r c #895646",
"t c #87564A",
"y c #89574A",
"u c #8D5B4E",
"i c #8F5E51",
"p c #905E51",
/* pixels */
"-;-=;;;;;;;;;;;;-;;;;;;;;-;;-;;*--*--*--*;---;--;-;;-;;;;;;;;;;;",
"******&*********************************************************",
"$$#%#$$$$$$$$$$$####$$$$$$$$$$$$$$$$$$#$$$$$#$$$$$##$$$$$$$$$$$$",
"****;*********&;*##**************$$#&***$$**********************",
">>:>>>:>>>>>>>;;***;>>>>>>>>>>>>-&$&;>>>**>>>>>>>>>>>>>>>>>>>>>>",
"122222222<2<12<;---,111111113121;&$-,212>;121211,52,221121122221",
"223542342<<22<2<<<112253353353331-$-,121<<15335355,252252<112111",
"34323332224<422432321555353553335;$-,115315553535555555252152152",
"653235322242442522533565666665525;&-,325335565665566663255252353",
"6555565522453352551556656q8665551;-->252355666666665566555523555",
"66666565444555545555666336666565=--,2535566656655656666655555666",
"65655666666656565556556536556652$&;15535656566665865665655665566",
"5666665566656566656556656665665,$&;55556565666666q75666565666655",
"560qq756665666666666666565666552&&;15555566665655335556666656665",
"66666666566666556666656665656652=&;15555665565665356666665666566",
"6532245566656666655566665656555,;=>15555656666666665665665656666",
"566556566666666q8555666666666655-->33366638336366366555366366366",
"00q00qq0000q08657qq0q88qq88q865>**->6qqqqqqqqqqqqqqqqqqqqqqqqqqq",
"66556636666563,:26665655565663>****-3666366663665535566636556336",
";;;;--:------=%$*--;;;;;;;;;;;;-***-;------:-:--;;;;;-----;;;;;;",
"333333333:=-2,**>55555253333333332233,-23333133333333:-*-,333333",
"6866666662,<53<<586668558668656666666313663qq686666332,,-,666668",
"70866666666655668qw88q78q688666666666666666qq6qq66636665:166656q",
"q60wq68qq86q67qwqqwqqwq88q88q68q68q63qq663q86q36q6qq6666356q77q6",
"w0qww0qww0088qwwqwwwwwwqqqqqqq88q68q8qqqqqqqqq6qqqq6q66q7577qqq8",
"wwwwwwwwww060wwwwwwwwwwwqqqqwwq6qq8wwwqwwwwwqq8qqq6qq66q6537qqqq",
"wwwwwwwwwwq60wwwwwwwwwwwqwqqwwwqqqqwwqwrwwwwqwqwqq66q636637qwwqw",
"wwwwwwwwwwwqqwwwwwwwwwwwwwwwwwwwqqwwwqqqqwwwwwwwqqqq6qq3qqqqwwww",
"wwwwwwwwwwwwwwwwwwwwwqwwwwwwwwwwwwwwwwq8qqqwwwwwwwwqqqq8qwwwwwwq",
"wwwwwwwwwwwwwwwwwwwwwwwwwwwwwwwwwwwwwwwwwwwwwqwwwwwqwwqqwwwqwwww",
"wwwwwwwwwwwwwwwwwwwwwwwwwwwwwwwwwwwwwwwwwwwwwwwwwwwwwwwwwwwwwwww",
"qwwwwwwrwwwwwwwwwwwwwwwwwwwwwwwwwwwwwwwwwwwwwwwwwwwwwwwwwwwwwwww",
"qwwwwwerwwwwwwwwwwwwwwwwwwwwwwwwwwwwwwwwwwwwwwwwwwwwwwwwwwwwwwww",
"wwwwww07wwwwwwwwwwwwwwwwwwwwwwwwwwwwwwwwwwwwwwwwwwwwwwwwwwwwwwww",
"wwqwwwq0wwwwwwwwwwwwwwwwwwwwwwqwwwwwwwwwwwwwwwwwwwwwwwwwwwwwwwww",
"wwwwwwwwwwwwwwwwwwwwwwwwwwwwweeqwwwwwwwwwwwwwwwwwwwwwwwwwwwwwwww",
"wwwwwwwwwwwwwwwwwwwwwwwwwwwwettewwwwwwwwwwwwwwwwwwwwwwwwwwwwwwww",
"wwwwwwwwwwwwwwwwwwwwwwwwwwwwe9eypwwwwwqwwwwwwwwwwwwwwwwwwwwwwwww",
"wwwwwwwwwwwwwwwwwwwwwwwwwwwwe49epurwwwwwwwwwwwwwwwwwwwwwwwwwwwww",
"wwewwqqewwwwwwwwwwwwwwwewwwwe449rppwwwrwwwwweww0wwwwwwwwrwwwwwwy",
"rrrrr70rtttteqwwwwwwwwrrttteq,<48wurryitrrrrrrrrwwwwwettrrrrrwrp",
"uuuuuetiuuiteeeeeeereryuuuyt725e8ruuuuiuuuuuuuuyeeeeeuuiiiyiiuii",
"ppppiiiiiiiiuuyyrruyyuppiiiu90tiruppiiiiiiiiiiiiyuuuuuiiiiiipppp",
"uuiuiuuiiiiiuuuipuuppuuuuiiiiyyiuuuuuiiiuiuuiuuiuuuuuuiiiuuuuiuu",
"0999999999999999099907779999999900888800809090990800999900908889",
"<<<,1122<<11111,11<<22<2<,<<2<2,1111111111111111<<111,1111111111",
";;*;;**;===;;;*;;;;*&;;**;*;;;;*--==================*;;;========",
"&##$;;;*=;**;*;*;*&;;;*;;*;*;*;;--==================;;&&;=======",
"%##%%&&&&&$&&$&&$&&&&&$&&$&&$$*&$*$$&&$$*$&$&%&&%&&&%%%%*%$*$&&&",
"############$#$$##$#####$$#$##$#$#$#$$$#####$#$#######$$#$##$###",
"######$$###############$########################################",
"@@@@@@@@@@+@+@@@@@@@@@+@@@@@@@@@@@@@@@@@@@@@@@@@@@@+@@@@@@@@@@@@",
"++@+++++++++++++++++++++@+++++++@++++@++++++++++++++++++++++++++",
"++++++++++++++++++++++++++++++++++++++++++++++++++++++++++++++++",
"oooOooOOOOOOOoOOOOOOOOOOXOOOOOOOOOooOOOOOOoOOOOOOOOOOOOoOOOOOOXO",
"oooooooooooXooooooooooooXXOooooooooooooooooooooooooooooooooOXOXX",
"oooooooooooooooooooooooooooooooooooooooooooooooooooooooooooooooo",
"oooooooooooooooooooooooooooooooooooooooooooooooooooooooooooooooo",
"ooooooooooooXXooooooooooooooooooooooooooooooooooooooooooooooooOo",
"X...oooooooo...XXooooooooooooooooooo...ooooooooooooooooooooooooo",
".   XXXXXXXX     oXXXXXXXXXXXXXXXXXX   XoooooooooooXXXXXXXXXXXXX",
"                                      .ooooooooooooX            ",
"                                      .  ..  . .. .             ",
"                                                                "
};
