/* XPM */
static char *result[] = {
/* columns rows colors chars-per-pixel */
"64 64 42 1 ",
"  c #010000",
". c #0C0403",
"X c #130705",
"o c #150906",
"O c #180A06",
"+ c #1D0D09",
"@ c #200E0A",
"# c #25120C",
"$ c #2A150E",
"% c #2B1510",
"& c #2E1811",
"* c #351D14",
"= c #381F15",
"- c #392016",
"; c #3E2219",
": c #42251B",
"> c #46291F",
", c #4C2C21",
"< c #502E23",
"1 c #553225",
"2 c #5E372A",
"3 c #5F382A",
"4 c #643B2C",
"5 c #683E2E",
"6 c #6A3F30",
"7 c #6E4232",
"8 c #724434",
"9 c #784736",
"0 c #794937",
"q c #744738",
"w c #764939",
"e c #7B4B3A",
"r c #7F5142",
"t c #824E3D",
"y c #84503E",
"u c #865444",
"i c #895646",
"p c #87564A",
"a c #89574A",
"s c #8D5B4E",
"d c #8F5E51",
"f c #905E52",
/* pixels */
">:=:124578788788t1178ttttyyyyyyyyyyyyyyyisseq3>>;**$##oooooooo  ",
":;=:124787877879t21788tytyyyyyyyyyyyyyyyisaeq3>>;-*%$#OoooXooo  ",
"--=:147787887888t117779tyyyyyyytyyyyyyyyisdse3>>;**$##OooooXoo. ",
":::>144578878879t21789t8tyyyyyyyyyyyyyyyisdsw3>>;**$##Oooooooo  ",
"1111,14477787878t1<259980tyyyyyyyyyytyyyisds02>>;**%##OXoooooo  ",
"33431,2447778788t2>,4588ttytyyyyyyyyyyyyisds04>>;**%##OooooooX  ",
"434341,144778788t1>>,28788ttyyyyyyyyyyyyisdse3>>;-*%##ooooXoo   ",
"74344211<4778889t2>,15888t9tyyyyyyyyyyyyisdse3>>;**###ooooooo.  ",
"97554241<1577879t1:,77880t9tytyyyyyyyyyyyfff02>>:=*$##oooooooo  ",
"e07744441<257788t2><588t09tyyyyyyyyyyyyyyffd03>>>:*%$#Oooooooo  ",
"5687565541<14789t1<478880tyyyyyyyyyyyyyyysfs04,>;=*$##Oooooooo. ",
"5678888554111778t21887890tyyyyyyyyyyyyyyisfs03>>;**%##Oooooooo  ",
"887877877751>458t118878t99tyyyyyyyyyyyyyiffst3>>;=*%$#oooooooo. ",
"8878878887752>17t21579t80tytytyyyyyyyyyyysfd03>>;=*%##Oooooooo  ",
"7888888788877112t21788t0tyyyyyyyyyyyyyyyyifs03>>==*%%#OoooooX.  ",
"88787888877774118117888ttyyyyyyyyyyyyyyyyisd04>>;*=*&#oXoooX.   ",
"8658668878888871<>1770t8tttyyyyyyyyyyyyyyupdr2,,;=*%##Ooooo.    ",
"ttttttttttt0t0084117788ttyyyyyyyyyyyyyyyyuasq2:-==*%##OooooX.   ",
"686878587777877841<5890ytyyyyyyyyyyyyyyyyusdq2:****%##Ooooooo   ",
",,,,,,,,<><>>,<,>>><9ttyyyyyyyyyyyyyyyyyyisdw3,=***%##OoooooOo  ",
"42,45555744755555414478ytttyyyyyyyyyyyyuiasdw3,:==*%##Oooooooo  ",
"854588878988087875555570tttyyyyyyyyyyyyyisfsw2,-==*%#@Oooooooo. ",
"988777789t99t88887878547ttyyyytyyyyyyyyyisfsq2,*=**%##OooXoooo  ",
"ttt7tt7tt8ee8t08t978777470tyyyyyyyyyyyyyisfsr2::;***&#ooooXooo. ",
"tyyttytyytyte00e00077905579ttyyyyyyyyyyyisfs02:,;**&$#OX.oXooX  ",
"ttttyyyyyyyyt9et9tt87tt75579ttyyyyyyyyyyisfsw4,,;**$$#ooooooXX  ",
"yyyyyysiiyyyytyyttt7t08775479tttyytyyyyyisdd02,;;***&#Oooooooo. ",
"tyyyyyyteyyyyyyytttt80t8007470ttyyyyyyyyisds02,,;**&$#oooooooo. ",
"yyyytyyt0yyyyyyyyyytttt0tt07479tyyyyyyyyisfs02>>;=*$##Oooooooo  ",
"yyyyyyyyyyyyyyyyyyyyttyyyyt0747tyyyyyyyyisss04>>;**$##OooooooX. ",
"yyyyyyyyyyyyyyyyyyyytyyyyyyttt48yyyyyyyyifpq82>>;**%##ooooooo   ",
"yyyyyyyyyyyyyyyyyyyytyyyyyyttt880yyyyyyyisp092>>;**%##ooXoooo   ",
"yyyyyyyyyyyyyyyyyyyyyyyyyyyyyyy87ettyyyyissuq2>>;**&$#OoXOOoX   ",
"yyyyyyyyyyyyyyyyyytyyyyyyyyyyyyyt8tyyyyyisds02>>;-**&#OoXXOXo   ",
"yyyyyyyyyyyyyyyyyyyyyyyyyyyyyyyyte00yyyyisse83>>-***&#OoXooXo.  ",
"yyyyyyyyyyyyyyyyyyyyyyyyyyyyyyyyyye0tyyyisp883>>;*-&$#OoXOoXoO  ",
"yyyyyyyyyyyyyyyyyyyytyyyytyyyyyyyyyt8tyyisp882>>;**$##OoXooXoX  ",
"yussaiyyytyyyyyyyyyyyyyyyyyyyyyyyyyyttyyisp874>>;*=$##Ooooo. X  ",
"ipusssuyyyyyyyyyyyyyyyyyyyyyyyyyyyyyyyyyusu882>>;=*$##OooooX X. ",
"du8usaauyyyyyyuyyyyyyyyyyyyyyyuyyyyyyyyyuspw83>:-**$##OOXooooo  ",
"duq7qqsspiiiiiuiiiiiiuyyuytiiiiiiiiiiiue7rda04>-***$$#OoXXo. .  ",
"ew7rupdsdssssssssdsssiuuuuuassssssssssauewwe4>>*=*=%##OoXXXX.   ",
"ewrsdddddddddddddddddsssaasdddddddddddsapq33,>;-***$@@OOX.oX.   ",
"dsssdssdsssdsdsddsdsdsssdsddssdsssdssdsssr3;:;-****$@O#+X .. .  ",
"wwqrqwwwrqwwrqeqew09e800wwewwwwwee0eeewew3<>;*-%**$$#oO. .  .   ",
"42212244222322324224442422334422242223223<;;*#O+OXXoX       .   ",
",,;,,,>,>>,:,::,,,>>>>>>,:;,,:,:>>>>>>>>,;;-#. o                ",
",:,,====,>:,:,,:,:>>>;=*=====*==*=::==*-*---%X @$*$#O.          ",
"==;;=*=--;-;;-;;=:=:==****=****======********o $&&%#++.         ",
"***=*****=**====****==*****=*****==***=*==*=*O $&##O+@OOo ..    ",
"*******************=**********************=*$. +###OoO@@oo  .   ",
"%%%%%#%%%%%%%%%%%%%%%%%%%%%%%%%%%$%$$$%%%$%*%X  X@#OOOOXooX  .  ",
"@#%#%##%##%##%%#$###%#$###%$$@#%@##$$#$$###&$X   O#OXooooo..    ",
"#####@######@##@#@###@####@@##########@######X  .O#Ooooooo  X   ",
"OOOOOoOOOoOOOOOOOOOOoOOOOOOOOOOOOOoOXOOOOo+#+     o#+oooooX.oX  ",
"OXXXooXoooooXoooooooooooOoooooooooooooooooo+.    .O@++XOooooo.  ",
"oooooooooooooooooooooooooooooooooooooooooooX     o#OO@Xoooooo   ",
"oXoooooooooooooooooooooooooooooooooOoooooooX      oOOOoooooooX  ",
" .ooooooooooooooooooooooooooooooooooX..oooo       X .oooX .OoO. ",
"  o.Xo.Xoo.Xooooo...oooooooooooooo..X  .o.. .     .  oooX ..o.  ",
"  .  X  XX  XXXXX   .XXXXXXXXXXXXX  XX  .  .     X .oooooX  X   ",
"                                            .  .  .  o .X       ",
"                                                  .             ",
"                                                                "
};
