/* XPM */
static char *result[] = {
/* columns rows colors chars-per-pixel */
"64 64 42 1 ",
"  c #010100",
". c #0B0605",
"X c #0E0907",
"o c #0F0908",
"O c #130C0A",
"+ c #190F0C",
"@ c #1C110E",
"# c #21140F",
"$ c #231511",
"% c #2B1A15",
"& c #301D17",
"* c #321F18",
"= c #362119",
"- c #3A231B",
"; c #40271F",
": c #42281F",
"> c #442A21",
", c #492D24",
"< c #4F3026",
"1 c #503127",
"2 c #553429",
"3 c #5A372C",
"4 c #5D392D",
"5 c #613C2F",
"6 c #643E31",
"7 c #674032",
"8 c #6D4335",
"9 c #704536",
"0 c #744738",
"q c #754939",
"w c #7B4C3D",
"e c #7B4E41",
"r c #7F5042",
"t c #804F3E",
"y c #81503F",
"u c #835140",
"i c #885747",
"p c #86574A",
"a c #885748",
"s c #87584B",
"d c #8B5B4D",
"f c #8D5D51",
/* pixels */
" o@@@@@@@@%%%=--,,40ffdauuuuuuuuuuuuuuuut6tt644t6w6099966052:;::",
" o@@@@@@@@%%%=---,5efffauuuuuuuuuuuuuuuuttyy633tt66099966652:::<",
" .O++@@@@@%%%--->>5qfffpuuuuuuuuttuuuuuuttww633t0tt609990661:*:<",
"  .+@@@@@@%%&--:,,4edfdpuuuuuuuuw6uuuyuytt6wt33y060006999665:;:,",
" X+@@@@@+@%%%=-->>5qfffiuuuuuuuut6duuuut6uuu623t066000996652<-:<",
"  X@@@@@@@%%*--:,,5effdpuuuuuuuuutetuyyyttw6623t000006990652:;:,",
"   @@@@+@@%%%--:,,5qffdiuuuuuuuuuuwtyyyyt6t6w43u000009999651>::,",
"  .+@@@@@@%%&=-:,,5effdiuuuuuuuuuuyuuyytw6tu633tt6600999002,>*>1",
" .o.+@@+@@%&=---,,4eddpuuuyuuyuuuuuuuu6wttq6655t999999999651:-:,",
" .oX.O@#$$%==--->,5eddduuuuuuuuuuuuuuuttttwt634t999999999062:;>,",
"   +..@%%%=%&----,4esfdiuuuuuuyuuuuuuutuu6wtq33tq99999999962>:>2",
"    O@@@@#%*-->>->49qpfpuuuuyuuuuudiuuuwwtt6623t999989996652>*:,",
"    .....Xo%%@=--;<59pfaiyyiyuyuuuiuuuuttq06053tq99999990652>;:,",
"           ++ #=*-;,6uiuyyyyyyuuuuuuuuuuu6w6623tq99999999652,*>,",
"               @%--;<6qqyyy0ttyyuuuuuuuwwttt035t999999906652>;>1",
"    .OOOOO@@@@%%;>>,6ruyyy05quytuuuuuuuutq00653tq9999996652>;*>,",
"    .+@@@$%&&&*>,,140pdpuut50wwtuuuuuuytw9qq924y9999998775<:--:,",
"     .@$%%%*-*>>,,500pfpuuutq99ttttttuyw99ww923wq9999999981,,->1",
"       @@$%%&-->,,5qpffiuuttq600qq955tqqyyw9923y999999999851>-:,",
"    .Xo@@@$%&-->,,5qffdiuuttwww9999556457qq8413yq99998999852>-><",
"    o+@@@@%%&---,,4efffiuutqtytw99q9611,,585,:3w999899999861,-><",
"     X@@@@%%&-->,>4qfffiuuuuyyyyttyq9985,<<,<-<9999999899862>->,",
"   O .@@@#$%&*--><4effdiuuuuuuyuuuutwww9552,,-:2899999999862,-:,",
"   O..O@@@%%&--;>,4wffdiuuuuyuuuuuuuyytwqq51,:,4899999999862>->1",
"    OO +@@%%&*-;<,6qfffauuuuuyuuyuuuuyqwyuw6<,3wq99999999952>->1",
"   +++++@@%%%-->><4effdauuuuuuuuuuyuuuttuyw8713tq88999899852>->1",
"  o@@@@+@@$%%-=>,,4edffpuuuuuuuuuuuutttyywq8924yq89999998752>-><",
" O@+@@@@@@%%&=->,>5qdfdiuuuuyuuuuyuut9tyyq99824wq99999998552>->1",
" X@@@@@+@@%%%---,,49qsdpuuuuuuyuuuuuw09qyyw9924wq80899998852>->1",
" o@@@@@@@@$%%-=>>,50rddiuuuuuuuuuuuutwuuyw074<4y088099998752>->1",
" o+@@@@@@@%%&--;,,5qfffpuuuutuuuuuuuuuiiyq87<>4wq89999997552>->1",
" o@@@@@@@$%%&==;,,5efffpiuuuuuuuuuuuuuuuuyq7<<4wq08999997562>-><",
" O@@@@@@@+%%*--;,,5qffdauuuuyuuuuuuuuuuuyw96633t099999999652:;:<",
" O@@@+@+@+%%*-*;,,5effdauuyuuuuuuuuuuuuutwqq933t099999999652:;:<",
" o@@@@@@@#%%***>,,5qffdauuuuuuuyuuuuutuuyytt925t099999998552,-:,",
" o@+@@@@+@%*-*-;,,5wffdauuuyuuuuuuuuuuuuttw0653t099999999852:-:,",
" o@@++$@+$%%*--;,,3qffdauuuuuuyuuuuuuuuuytwq923t999999999952,->,",
" o@@@@+@$@%%&*-;,,5efffauuuuuuuuuutuuututqww924t099999999962:-:,",
" o@@@@@@@@%%%---,,4efffuwtuuyuttuuuuuuuuytq0923t966tq9999652,->,",
" o@@@@@@+@$%*-;,,<66fffutyuuyyywuauuuuuutw99923tq99tq9999652>->,",
" o@+#@@@@$%%&-;,,,5edffpuuuuuuytuduutuuutw99923t999w98999652:-:,",
" o@@+@@@@@$%%--;,,5udfdpuuuuuuuuuuuuuuuuutq9923t999909999652,->,",
" o@@@@+@+$$%&*-;,,56ffdpuuuuuuuuuuuuuuuutq99923tq99999999652>->,",
" o@@@@@@++%%%--;,,4efffiuuuuuuuuuuuuuuutywq9023t999999999652>->,",
" o@@@@@@@$%%***;>,4wfffiuuuuuuuuuuuuuuuuuuw9623tq99999999952>-:,",
" o@@@@@@@+%%*--;,,4wdffiuuuuuyuuuuutuuuuyut62,3tq99999965552,-:,",
"  X@@@@@+$%%**->,,4wffdiuuuuuuuuuuuuuuuuywq65<3t999999066552>-:,",
"  .+@@@+++%%*-*;,,4efffiuuuuyuuuuuuuutuuyw09923tq99999999552:;>,",
" X@@@@@@@#%%%=-;>,5wdfdpuuuuuuuuyyyyyyyyyyq9824wq99999999652,;:,",
" O@@@@@@+#%%&==;,,5qffdauuuuuuutyiyyyiyyyyw82,4y999999966652:-:,",
" o@@@@@@+@$%&--;,,5qfdduuuuuuuuuyyyyyyyyyyq7<:4wq99999965552,-:,",
" o@@@++@@#%%&-=;,>5wfdiuuuuuuuuuyyyiyyyiyyw7<,4tq99999956552>->,",
" o@@@O @@@%%&=-;,,5qfdiyuuuuuuuudyyyyyyyyyt7,;<9999999098862>->,",
" o@@++X+@#$&*=-;,,5wddyyuuuuuuuuyyyyyiyyiyw7<-:7qq9999066652>->,",
" o@@@@@+@@%&=-=;,,5tddiyuuuuuuuuyiyiyyyyyyw6<;,7ww9999966651>->,",
" o@@@@@@@#%%*=-;:,5yddiyuuuuuuuuyyyyyyyyyyw71:3w99999985661,>->,",
" o@@@@+@+@$&=-=;,,56ddiyuuuuuuuuyiiyyiyyyiyq713yq9999988861:;-:,",
" .O@@@@@@#%&=--;,,4tddiyuuuuuuuuyyyyyyuyuuyy923yq899998865,;--:,",
"  .+@@@@@@%%&-=>,,40ddiyyuuuuuuuyyyyuuuuyuyw924y08999996681;-->,",
"   +@@@@@@%%&==;,>5tffdiuuuuuuuuiyyiuuuuyyw0824wq89999889532;->,",
" .o+@@@@@#%%*--;,,50ffdiiiyyuuuuyuuuuyuuuuww024wq80889998662>->>",
" o@@@@@@@@%&=-=;,,4tffdidiuuuuuuuuuuuuuuuyyw924yq88099990862>->,",
" o@@@@@@@@%%&--;,,6ydfdiiuyyuuuuuuuuuuuuyyw0824wq89899988861>->,",
" o@@@@@@@@%%&=-;,,6yffdiyyuuuuuuuuuyyuuuywqq924w008099689863>->,"
};
