/* XPM */
static char * C:\Users\mathi\OneDrive\Desktop\dppr\tile1_xpm[] = {
"128 100 9 1",
" 	c None",
".	c #30221D",
"+	c #795041",
"@	c #54392F",
"#	c #422D25",
"$	c #B0735D",
"%	c #271B17",
"&	c #462F27",
"*	c #37251E",
"                                                                                                                                ",
"                                                                                                                                ",
"                                                                                                                                ",
"                                                                                                                                ",
"                                                                                                                                ",
"                                                                                                                                ",
"                                                                                                                                ",
"                                                                                                                                ",
"                                                                                                                                ",
"                                                                                                                                ",
"                                                                                                                                ",
"                                                                                                                                ",
"                                                                                                                                ",
"                                                                                                                                ",
"                                                                                                                                ",
"                                                                                                                                ",
"                                                                                                                                ",
"                                                                                                                                ",
"                                                                                                                                ",
"                                                                                                                                ",
"                                                                                                                                ",
"                                                                                                                                ",
"                                                                                                                                ",
"                                                                                                                                ",
"                                                                                                                                ",
"                                                                                                                                ",
"                                                                                                                                ",
"                                                                                                                                ",
"                                                                                                                                ",
"                                                                                                                                ",
"                                                                                                                                ",
"                                                                                                                                ",
"                                                                                                                                ",
"                                                                                                                                ",
"          ..............................................................................................................        ",
"       ...++@@@@@@@@@@@@@@@@@@@@@@@###@@@@@@@@@@@@@@@@@@@@@@@@@@@@@@@@@@@@@@@@@@@@@@@@@##@@@@@@@@@@@@@@@@@@@@@###@@@@@++..      ",
"       ...++@@@@@@@@@@@@@@@@@@@@@@@###@@@@@@@@@@@@@@@@@@@@@@@@@@@@@@@@@@@@@@@@@@@@@@@@@##@@@@@@@@@@@@@@@@@@@@@###@@@@@++..      ",
"       ...++$$$$$$$$$$$$$$$$$$$$$+++++@@++++++++++++$$$$$$$$$$$$$$$$$$$$$$$$$$$$$$$$$$$$$@@@$$$$$$$$$$$$$$$$$$$$$$$$$$++..      ",
"       ...@@++$$$$$$$$$$$$$$$$$$$$$$$$$$$$$$$$$$$$$$$$$$$$$$$$$$$$$$$$$$$$$$$$$$$$$$$$$$$+++$$$$$$$$$$$$$$$$$$$$$$$+++@@..      ",
"       ...@@++$$$$$$$$$$$$$$$$$$$$$$$$$$$$$$$$$$$$$$$$$$$$$$$$$$$$$$$$$$$$$$$$$$$$$$$$$$$+++$$$$$$$$$$$$$$$$$$$$$$$+++@@..      ",
"       ...##..+++$$$$$$$$$$$$$$$$$$$$$$$$$$$$$$$$$$$$$$$$$$$$$$$$$$$$$$$$$$$$$$$$$$$$$$@@$$$$$$$$$$$$$$$$$++$$$$$++...##..      ",
"          ..++$$$$$$$$$$$$$$$$$$$$$$$$$$$$$$$$$$$$$$$$$$$$$$$$$$$$$$$$$$$$$$$$$$$$###++++$$$$$$$$$$$$$$+++$$$$$$$++@@@..        ",
"          ..++$$$$$$$$$$$$$$$$$$$$$$$$$$$$$$$$$$$$$$$$$$$$$$$$$$$$$$$$$$$$$$$$$$$$###++++$$$$$$$$$$$$$$+++$$$$$$$++@@@..        ",
"          ..@@@@@+++++++++@@@@@@@+++++@@@@@@@@@@@@@@++++++++++++++++++++++++++@@@@@@@@@@@++++++++++++++++++++++++@@@@@..        ",
"          ..####################################################################.......###############################..        ",
"          ..####################################################################.......###############################..        ",
"            ..........................................................................................................          ",
"                 ..##############..%%%%%%%%%%%%%%%%%%%%%%%%%%%%%%%%%%%%%%%%%%%%%%%%%%%%%%%%%%%..##############...               ",
"                 ..##############..%%%%%%%%%%%%%%%%%%%%%%%%%%%%%%%%%%%%%%%%%%%%%%%%%%%%%%%%%%%..##############...               ",
"                 ..@@@@@@@@@#######...........................................................#######@@@@@@@@@...               ",
"                 ..@@+++++++@@@####...##########################..##########################..#####@@+++++++++...               ",
"                 ..@@+++++++@@@####...##########################..##########################..#####@@+++++++++...               ",
"                   ..++++++++++####...##########################..##########################..#####++++@@@@@@@...               ",
"                   ..@@@+++++++####...&&@@@@@@@@@@@@@@@@@@@@@@@@##@@@@@@@@@@@@@@@@@@@@@@@&&&..#####++@@+++++..                  ",
"                   ..@@@+++++++####...&&@@@@@@@@@@@@@@@@@@@@@@@@##@@@@@@@@@@@@@@@@@@@@@@@&&&..#####++@@+++++..                  ",
"                     ...+++++++@@#####..@@@@@@@@@@@@@@@@@@@@@@@@##@@@@@@@@@@@@@@@@@@@@@@@...####@@@@@+++++@@..                  ",
"                     ...@@++@@@++#####..@@@@@+++++++++++++++++++@@+++++++++++++++++++@@@@...####++++++++++..                    ",
"                     ...@@++@@@++#####..@@@@@+++++++++++++++++++@@+++++++++++++++++++@@@@...####++++++++++..                    ",
"                        ..++@@@++#####..&&++++++++++++++++++++++@@$$+++++++++++++++++++&&...####+++++++@@@..                    ",
"                        ..@@@@@++@@#####..@@@+++++++++++++++++++@@@@$$$$$++++++++++++@@..#####@@+++++++...                      ",
"                        ..@@@@@++@@#####..@@@+++++++++++++++++++@@@@$$$$$++++++++++++@@..#####@@+++++++...                      ",
"                          ..+++++++#####..&&&+++++++@@++++++++++@@++@@@@@$$++++++++++&&..#####+++++++@@...                      ",
"                          ..@@@++++@@@####...+++++++++++++++++++@@+++++++++++++++++++..#####@@+++++++..                         ",
"                          ..@@@++++@@@####...+++++++++++++++++++@@+++++++++++++++++++..#####@@+++++++..                         ",
"                            ...+++++++####...@@++++++++++++++$$$@@++++++++++++++++@@@..#####+++++++@@..                         ",
"                            ...@@+++++####...&&++++++++++++$$@@@@@++++++++++++++++&&&..#####+++++++..                           ",
"                            ...@@+++++####...&&++++++++++++$$@@@@@++++++++++++++++&&&..#####+++++++..                           ",
"                               ..+++++@@#####..++++++++++++@@@@@@@++++++++++++++++...####@@@++++@@@..                           ",
"                               ..+++++@@#####..++++++++++++@@@@@@@++++++++++++++++...####@@@++++@@@..                           ",
"                               ..@@+++++#####..@@+++++++++++++++@@+++++++$$+++++@@...####+++@@++...                             ",
"                                 ..+++++#####..&&+++++++++++++++@@+++++++@@+++++&&...####+++++@@...                             ",
"                                 ..+++++#####..&&+++++++++++++++@@+++++++@@+++++&&...####+++++@@...                             ",
"                                 ..@@@++@@#####..+++++++++++++++@@++++++++++++++..#####@@+++++..                                ",
"                                   ...++++#####..@@@++++++++++++@@++++++++++++@@..#####+++++@@..                                ",
"                                   ...++++#####..@@@++++++++++++@@++++++++++++@@..#####+++++@@..                                ",
"                                   ...@@++#####..&&&++++++++++++..++++++++++++&&..#####+++++..                                  ",
"                                      ..++@@@####...@@+++++++@@@..@@+++++++@@@..#####@@++@@@..                                  ",
"                                      ..++@@@####...@@+++++++@@@..@@+++++++@@@..#####@@++@@@..                                  ",
"                                      ..@@@@@####...**##########..#########***..#####@@@@...                                    ",
"                                      ......................................................                                    ",
"                                      ......................................................                                    ",
"                                        ..#####@@@@@@@@@@@@@@@@@@@@@@@@@@@@@@@@@@@#####..                                       ",
"                                        .................................................                                       ",
"                                        .................................................                                       ",
"                                                                                                                                ",
"                                                                                                                                ",
"                                                                                                                                ",
"                                                                                                                                ",
"                                                                                                                                ",
"                                                                                                                                ",
"                                                                                                                                ",
"                                                                                                                                ",
"                                                                                                                                ",
"                                                                                                                                ",
"                                                                                                                                ",
"                                                                                                                                ",
"                                                                                                                                ",
"                                                                                                                                ",
"                                                                                                                                ",
"                                                                                                                                "};
