/* XPM */
static char * C:\Users\mathi\OneDrive\Desktop\splash\tile5_xpm[] = {
"124 124 3 1",
" 	c None",
".	c #B9CFFC",
"+	c #080000",
"                                                                                                                            ",
"                                                                                                                            ",
"                                                                                                                            ",
"                                                                                                                            ",
"                                                                                                                            ",
"                                                    ....                                        ....                        ",
"                                                    ....                                        ....                        ",
"                                                    ....                                      ........                      ",
"                                                    ....                                      ........                      ",
"                                                      ....                                    ........                      ",
"                                                      ....                                    ........                      ",
"                                                      ....                                      ....                        ",
"                                                      ....                                      ....                        ",
"                                                      ....                                  ..                              ",
"                                                      ....                                  ..                              ",
"                                                      ....                                                                  ",
"                                                      ....                                                                  ",
"                                                        ..                                                                  ",
"                                                        ..                                                                  ",
"                                                        ..                                                                  ",
"                                                        ..                                                                  ",
"                                                        ..                                                                  ",
"                                                        ..                                                                  ",
"                      ....                              ..                                                                  ",
"                      ....                              ..                                                                  ",
"                      ....                              ..                                                                  ",
"                      ....                              ..                                                                  ",
"                                                                                                                            ",
"                                                                                                                            ",
"                                                                                                                            ",
"                                                                                                                            ",
"                                                                                                                            ",
"                                                                                                                            ",
"                                                                                                                            ",
"                                                                                                                            ",
"                                                                                                                            ",
"                                                                                                                            ",
"                                                                                                                            ",
"                                                                                                                            ",
"                                                                                                                            ",
"                                                                                                                            ",
"                                                                                                                            ",
"                                                                                                                            ",
"                                                                                                                            ",
"                                                                                                                            ",
"                                                  ................                                                          ",
"                                                  ................                                                          ",
"                                                ......................                                                      ",
"                                                ......................                                                      ",
"                                              ........................                                                      ",
"                                              ........................                                                      ",
"                                            ............................                                                    ",
"                                            ............................                                                    ",
"                                            ............................                                                    ",
"                                            ............................                                                    ",
"                                            ............................                                                    ",
"                                            ............................                                                    ",
"                                            ........    ................                                                    ",
"                                            ........    ................                                                    ",
"                                          ++++....        ............                                                      ",
"                                          ++++....        ............                                                      ",
"                                          ++++....            ....                                                          ",
"                                          ++++....            ....                                                          ",
"                      ..    ..            ++++++      ....              ..                                                  ",
"                      ..    ..            ++++++      ....              ..                                                  ",
"                    ....                  ++++++++  ........            ..                                                  ",
"                    ....                  ++++++++  ........            ..                                                  ",
"                    ....                    ++++++++........          ....                                                  ",
"                    ....                    ++++++++........          ....                                                  ",
"                                            ++++++++++++..          ......                                                  ",
"                                            ++++++++++++..          ......                                                  ",
"                                              ++++++++++++++      ......                                                    ",
"                                              ++++++++++++++      ......                                                    ",
"                                                ++++++++++++++  ........                                                    ",
"                                                ++++++++++++++  ........                                                    ",
"                                                  ++++++++  ..........                                                      ",
"                                                  ++++++++  ..........                                                      ",
"                                                          ..........                                                        ",
"                                                          ..........                                                        ",
"                                                                                                  ..                        ",
"                                                                                                  ..                        ",
"                                                                                                    ..                      ",
"                                                                                                    ..                      ",
"                                                                                                      ..                    ",
"                                                                                                      ..                    ",
"                                                                                                        ....                ",
"                                                                                                        ....                ",
"                                                                                                        ......              ",
"                                                                                                        ......              ",
"                                                                                                          ......            ",
"                                                                                                          ......            ",
"                                                                                                            ......          ",
"                                                                                                            ......          ",
"                                                                                                              ....          ",
"                                                                                                              ....          ",
"                          ..                                                                                                ",
"                          ..                                                                                                ",
"                                                                                    ..                                      ",
"                                                                                    ..                                      ",
"                      ....                                                                                                  ",
"                      ....                                                                                                  ",
"                    ....                                                                                                    ",
"                    ....                                                                                                    ",
"                  ....                                                                ....                                  ",
"                  ....                                                                ....                                  ",
"                ......                                                                ....                                  ",
"                ......                                                                ....                                  ",
"                ......                                                                                                      ",
"                ......                                                                                                      ",
"                ....                                                                                                        ",
"                ....                                                                                                        ",
"                                                                                                                            ",
"                                                                                                                            ",
"                                                                                                                            ",
"                                                                                                                            ",
"                                                                                                                            ",
"                                                                                                                            ",
"                                                                                                                            ",
"                                                                                                                            ",
"                                                                                                                            ",
"                                                                                                                            ",
"                                                                                                                            ",
"                                                                                                                            ",
"                                                                                                                            "};
