/* XPM */
static char * C:\Users\mathi\OneDrive\Desktop\splash\tile6_xpm[] = {
"124 124 2 1",
" 	c None",
".	c #B9CFFC",
"                                                                                                                            ",
"                                                                                                                            ",
"                                                 ....                                                                       ",
"                                                 ....                                                                       ",
"                                               ........                                                                     ",
"                                               ........                                                                     ",
"                                               ........                                              ....                   ",
"                                               ........                                              ....                   ",
"                                                 ....                                                ....                   ",
"                                                 ....                                                ....                   ",
"                                                                                                                            ",
"                                                                                                                            ",
"                                                   ....                                          ....                       ",
"                                                   ....                                          ....                       ",
"                                                   ....                                                                     ",
"                                                   ....                                                                     ",
"                                                                                                                            ",
"                                                                                                                            ",
"             ..                                                                                                             ",
"             ..                                                                                                             ",
"                                                                                                                            ",
"                                                                                                                            ",
"                                                                                                                            ",
"                                                                                                                            ",
"                                                                                                                            ",
"                                                                                                                            ",
"                                                                                                                            ",
"                                                                                                                            ",
"                                                                                                                            ",
"                                                                                                                            ",
"                                                                                                                            ",
"                                                                                                                            ",
"                                                                                                                            ",
"                                                                                                                            ",
"                                                                                                                            ",
"                                                                                                                            ",
"                                                                                                                            ",
"                                                                                                                            ",
"                                                                                                                            ",
"                                                                                                                            ",
"                                                                                                                            ",
"                                                                                                                            ",
"                                                                                                                            ",
"                                                                                                                            ",
"                                                                                                                            ",
"                                                                                                                            ",
"                                                     ............                                                           ",
"                                                     ............                                                           ",
"                                                 ..................                                                         ",
"                                                 ..................                                                         ",
"                                               ......................                                                       ",
"                                               ......................                                                       ",
"                                               ........................                                                     ",
"                                               ........................                                                     ",
"                                             ..........................                                                     ",
"                                             ..........................                                                     ",
"                                             ....      ................                                                     ",
"                                             ....      ................                                                     ",
"                                                         ..............                                                     ",
"                                                         ..............                                                     ",
"                                                         ..............                                                     ",
"                                                         ..............                                                     ",
"                                                           ..........                                                       ",
"                                                           ..........                                                       ",
"                                                 ....        ......                                                         ",
"                                                 ....        ......                                                         ",
"                                                 ....                  ..                                                   ",
"                                                 ....                  ..                                                   ",
"                 ..                                                ......                                                   ",
"                 ..                                                ......                                                   ",
"           ....                                                  ......                                                     ",
"           ....                                                  ......                                                     ",
"           ....                                          ....  ....                                                         ",
"           ....                                          ....  ....                                                         ",
"                                                                                                                            ",
"                                                                                                                            ",
"                                                                                                                            ",
"                                                                                                                            ",
"                                                                                                                            ",
"                                                                                                                            ",
"                                                                                                                            ",
"                                                                                                                            ",
"                                                                                                                            ",
"                                                                                                                            ",
"                                                                                                                            ",
"                                                                                                                            ",
"                                                                                                                            ",
"                                                                                                                            ",
"                                                                                                                            ",
"                                                                                                                            ",
"                                                                                                           ..               ",
"                                                                                                           ..               ",
"                                                                                                                            ",
"                                                                                                                            ",
"                                                                                                                 ....       ",
"                                                                                                                 ....       ",
"                                                                                                               ........     ",
"                                                                                                               ........     ",
"                                                                                                               ........     ",
"                                                                                                               ........     ",
"                                                                                                                 ....       ",
"                                                                                                                 ....       ",
"                                                                                                                            ",
"                                                                                                                            ",
"                 ....                                                                                                       ",
"                 ....                                                                                                       ",
"                 ....                                                                                                       ",
"                 ....                                                                                                       ",
"                                                                                                                            ",
"                                                                                                                            ",
"             ....                                                                                                           ",
"             ....                                                                                                           ",
"           ........                                                                      ..                                 ",
"           ........                                                                      ..                                 ",
"           ........                                                                                                         ",
"           ........                                                                                                         ",
"             ....                                                                                                           ",
"             ....                                                                                                           ",
"                                                                                                                            ",
"                                                                                                                            ",
"                                                                                                                            ",
"                                                                                                                            ",
"                                                                                                                            ",
"                                                                                                                            "};
