/* XPM */
static char * C:\Users\mathi\OneDrive\Desktop\splash\tile1_xpm[] = {
"124 124 5 1",
" 	c None",
".	c #080000",
"+	c #84ABF9",
"@	c #B9CFFC",
"#	c #FFFFFF",
"                                                                                                                            ",
"                                                                                                                            ",
"                                                                                                                            ",
"                                                                                                                            ",
"                                                                                                                            ",
"                                                                                                                            ",
"                                                                                                                            ",
"                                                                                                                            ",
"                                                                                                                            ",
"                                                                                                                            ",
"                                                                                                                            ",
"                                                                                                                            ",
"                                                                                                                            ",
"                                                                                                                            ",
"                                                                                                                            ",
"                                                                                                                            ",
"                                                                                                                            ",
"                                                                                                                            ",
"                                                                                                                            ",
"                                                                                                                            ",
"                                                                                                                            ",
"                                                                                                                            ",
"                                                                                                                            ",
"                                                                                                                            ",
"                                                                                                                            ",
"                                                                                                                            ",
"                                                                                                                            ",
"                                                                                                                            ",
"                                                                                                                            ",
"                                                                                                                            ",
"                                                                                                                            ",
"                                                                                                                            ",
"                                                                                                                            ",
"                                                                                                                            ",
"                                                                                                                            ",
"                                                                                                                            ",
"                                                                                                                            ",
"                                                                                                                            ",
"                                                                                                                            ",
"                                                                                                                            ",
"                                                                                                                            ",
"                                                                                                                            ",
"                                                                                                                            ",
"                                                                                                                            ",
"                                                                                                                            ",
"                                                                                                                            ",
"                                                                                                                            ",
"                                                                                                                            ",
"                                                        ..........                                                          ",
"                                                        ..........                                                          ",
"                                                      ..............                                                        ",
"                                                      ..............                                                        ",
"                                                    ....++++@@@@++....                                                      ",
"                                                    ....++++@@@@++....                                                      ",
"                                                  ....++####@@@@@@....@@@@                                                  ",
"                                                  ....++####@@@@@@....@@@@                                                  ",
"                                                  ....########@@@@......@@@@                                                ",
"                                                  ....########@@@@......@@@@                                                ",
"                                                  ....########@@@@++......@@                                                ",
"                                                  ....########@@@@++......@@                                                ",
"                                                ....++@@####@@@@@@@@++......                                                ",
"                                                ....++@@####@@@@@@@@++......                                                ",
"                                                ....@@@@@@@@@@@@@@@@@@@@++....                                              ",
"                                                ....@@@@@@@@@@@@@@@@@@@@++....                                              ",
"                                                ....++@@@@@@@@@@@@@@@@@@++....                                              ",
"                                                ....++@@@@@@@@@@@@@@@@@@++....                                              ",
"                                                ....++++++@@@@@@@@@@++++++....                                              ",
"                                                ....++++++@@@@@@@@@@++++++....                                              ",
"                                                  ....++++++++++++++++++....                                                ",
"                                                  ....++++++++++++++++++....                                                ",
"                                                  ....++++++++++++##++++....                                                ",
"                                                  ....++++++++++++##++++....                                                ",
"                                                    ....++++++++++++......                                                  ",
"                                                    ....++++++++++++......                                                  ",
"                                                      ..................                                                    ",
"                                                      ..................                                                    ",
"                                                        ............                                                        ",
"                                                        ............                                                        ",
"                                                                                                                            ",
"                                                                                                                            ",
"                                                                                                                            ",
"                                                                                                                            ",
"                                                                                                                            ",
"                                                                                                                            ",
"                                                                                                                            ",
"                                                                                                                            ",
"                                                                                                                            ",
"                                                                                                                            ",
"                                                                                                                            ",
"                                                                                                                            ",
"                                                                                                                            ",
"                                                                                                                            ",
"                                                                                                                            ",
"                                                                                                                            ",
"                                                                                                                            ",
"                                                                                                                            ",
"                                                                                                                            ",
"                                                                                                                            ",
"                                                                                                                            ",
"                                                                                                                            ",
"                                                                                                                            ",
"                                                                                                                            ",
"                                                                                                                            ",
"                                                                                                                            ",
"                                                                                                                            ",
"                                                                                                                            ",
"                                                                                                                            ",
"                                                                                                                            ",
"                                                                                                                            ",
"                                                                                                                            ",
"                                                                                                                            ",
"                                                                                                                            ",
"                                                                                                                            ",
"                                                                                                                            ",
"                                                                                                                            ",
"                                                                                                                            ",
"                                                                                                                            ",
"                                                                                                                            ",
"                                                                                                                            ",
"                                                                                                                            ",
"                                                                                                                            ",
"                                                                                                                            ",
"                                                                                                                            ",
"                                                                                                                            "};
