/* XPM */
static char * C:\Users\mathi\OneDrive\Desktop\splash\tile4_xpm[] = {
"124 124 4 1",
" 	c None",
".	c #B9CFFC",
"+	c #080000",
"@	c #84ABF9",
"                                                                                                                            ",
"                                                                                                                            ",
"                                                                                                                            ",
"                                                                                                                            ",
"                                                                                                                            ",
"                                                                                                                            ",
"                                                                                                                            ",
"                                                                                                                            ",
"                                                                                                                            ",
"                                                                                                                            ",
"                                                                                                                            ",
"                                                                                                   ....                     ",
"                                                                                                   ....                     ",
"                                                                                                 ......                     ",
"                                                                                                 ......                     ",
"                                                                                               ......                       ",
"                                                                                               ......                       ",
"                                                                                               ....                         ",
"                                                                                               ....                         ",
"                                                                                             ....                           ",
"                                                                                             ....                           ",
"                                                               ....                          ..                             ",
"                                                               ....                          ..                             ",
"                                                             ......                        ....                             ",
"                                                             ......                        ....                             ",
"                                                             ......                      ....                               ",
"                                                             ......                      ....                               ",
"                                   ....                        ....                      ..                                 ",
"                                   ....                        ....                      ..                                 ",
"                                   ....                        ....                    ..                                   ",
"                                   ....                        ....                    ..                                   ",
"                                                               ....                                                         ",
"                                                               ....                                                         ",
"                                         ..                      ..                                                         ",
"                                         ..                      ..                                                         ",
"                                                                 ..                                                         ",
"                                                                 ..                                                         ",
"                                                                 ..                                                         ",
"                                                                 ..                                                         ",
"                                                                 ..                                                         ",
"                                                                 ..                                                         ",
"                                                                         ..                                                 ",
"                                                                         ..                                                 ",
"                                                                                                                            ",
"                                                                                                                            ",
"                                                               ..........                                                   ",
"                                                               ..........                                                   ",
"                                                           ................                                                 ",
"                                                           ................                                                 ",
"                                               ++++      ..................                                                 ",
"                                               ++++      ..................                                                 ",
"                                             ++++++++    ..................                                                 ",
"                                             ++++++++    ..................                                                 ",
"                                             ++++@@++++....................                                                 ",
"                                             ++++@@++++....................                                                 ",
"                                             ++++..++++..................                                                   ",
"                                             ++++..++++..................                                                   ",
"                                             ++++..++++................                                                     ",
"                                             ++++..++++................                                                     ",
"                                     ....    ++++..@@++++..........                                                         ",
"                                     ....    ++++..@@++++..........                                                         ",
"                                   ........  ++++....++++........            ..                                             ",
"                                   ........  ++++....++++........            ..                                             ",
"                                   ........  ++++@@..@@++++......          ....                                             ",
"                                   ........  ++++@@..@@++++......          ....                                             ",
"                                     ....      ++++....@@++++......        ....                                             ",
"                                     ....      ++++....@@++++......        ....                                             ",
"                                               ++++@@....@@++++......    ......                                             ",
"                                               ++++@@....@@++++......    ......                                             ",
"                                                 ++++......@@++++..............          ..                                 ",
"                                                 ++++......@@++++..............          ..                                 ",
"                                                 ++++@@@@@@..@@++++..........                ....                           ",
"                                                 ++++@@@@@@..@@++++..........                ....                           ",
"                                                   ++++@@@@@@@@@@++++......                    ......                       ",
"                                                   ++++@@@@@@@@@@++++......                    ......                       ",
"                                                     ++++++@@@@@@@@++++..                        ........                   ",
"                                                     ++++++@@@@@@@@++++..                        ........                   ",
"                                                       ++++++++++++++++                              ......                 ",
"                                                       ++++++++++++++++                              ......                 ",
"                                                           ++++++++++                                  ....                 ",
"                                                           ++++++++++                                  ....                 ",
"                                               ..                                                                           ",
"                                               ..                                                                           ",
"                                             ..                                                                             ",
"                                             ..                                                                             ",
"                                         ....                                    ..                                         ",
"                                         ....                                    ..                                         ",
"                                       ....                                                                                 ",
"                                       ....                                                                                 ",
"                                     ....                                            ..                                     ",
"                                     ....                                            ..                                     ",
"                                   ....                                                                                     ",
"                                   ....                                                                                     ",
"                                 ......                                                  ....                               ",
"                                 ......                                                  ....                               ",
"                                 ....                                                    ....                               ",
"                                 ....                                                    ....                               ",
"                                                                                                                            ",
"                                                                                                                            ",
"                                                                                                                            ",
"                                                                                                                            ",
"                                                                                                                            ",
"                                                                                                                            ",
"                                                                                                                            ",
"                                                                                                                            ",
"                                                                                                                            ",
"                                                                                                                            ",
"                                                                                                                            ",
"                                                                                                                            ",
"                                                                                                                            ",
"                                                                                                                            ",
"                                                                                                                            ",
"                                                                                                                            ",
"                                                                                                                            ",
"                                                                                                                            ",
"                                                                                                                            ",
"                                                                                                                            ",
"                                                                                                                            ",
"                                                                                                                            ",
"                                                                                                                            ",
"                                                                                                                            ",
"                                                                                                                            ",
"                                                                                                                            ",
"                                                                                                                            "};
