/* XPM */
static char * C:\Users\mathi\OneDrive\Desktop\tears_xpm[] = {
"28 28 5 1",
" 	c None",
".	c #080000",
"+	c #84ABF9",
"@	c #B9CFFC",
"#	c #FFFFFF",
"                            ",
"           ......           ",
"           ......           ",
"       ..............       ",
"       ..............       ",
"     ......++@@++......     ",
"     ......++@@++......     ",
"   ....++####@@@@@@++....   ",
"   ....++####@@@@@@++....   ",
"   ....########@@@@@@....   ",
"   ....########@@@@@@....   ",
" ....++########@@@@@@++.... ",
" ....++########@@@@@@++.... ",
" ....@@@@####@@@@@@@@@@.... ",
" ....@@@@####@@@@@@@@@@.... ",
" ....++@@@@@@@@@@@@@@++.... ",
" ....++@@@@@@@@@@@@@@++.... ",
"   ....++++@@@@@@##++....   ",
"   ....++++@@@@@@##++....   ",
"   ....++++++++++++++....   ",
"   ....++++++++++++++....   ",
"     ......++++++......     ",
"     ......++++++......     ",
"       ..............       ",
"       ..............       ",
"           ......           ",
"           ......           ",
"                            "};
