/* XPM */
static char *result[] = {
/* columns rows colors chars-per-pixel */
"75 64 6 1 ",
"  c #080000",
". c #B97371",
"X c #CF9C9B",
"o c #E3C6C5",
"O c white",
"+ c None",
/* pixels */
"+++++++++++++++++++++++                ++++++++++++++++++++++++++++++++++++",
"+++++++++++++++++++++++                ++++++++++++++++++++++++++++++++++++",
"++++++++++++++++++++                       ++++++++++++++++++++++++++++++++",
"++++++++++++++++++++                       ++++++++++++++++++++++++++++++++",
"++++++++++++++++       XXXXXXXXXXXXXXXX        ++++++++++++++++++++++++++++",
"++++++++++++++++       XXXXXXXXXXXXXXXX        ++++++++++++++++++++++++++++",
"++++++++++++++      XXoooooooooooooooooooXX      ++++++++++++++++++++++++++",
"++++++++++++++      XXoooooooooooooooooooXX      ++++++++++++++++++++++++++",
"++++++++++++    XXoooooooooooooooooooooooooooXX    ++++++++++++++++++++++++",
"++++++++++++    XXoooooooooooooooooooooooooooXX    ++++++++++++++++++++++++",
"++++++++++    XXoooooooooooooooooooooooooooooooXX           +++++++++++++++",
"++++++++++    XXoooooooooooooooooooooooooooooooXX           +++++++++++++++",
"++++++++    XXoooooooooooooooooooooooooooooooooooXX           +++++++++++++",
"++++++++    XXoooooooooooooooooooooooooooooooooooXX           +++++++++++++",
"++++++++    ooooooooooooooooooooooooooooooooooooooo    XooXX    +++++++++++",
"++++++    XXooooooooooooooooooooooooooooooooooooooo    ooooo    +++++++++++",
"++++++    XXooooooooooooooooooooooooooooooooooooooo    ooooo    +++++++++++",
"++++++    ooooooooooooooooooooooooooooooooooooooooo  XXooooo    +++++++++++",
"++++++    ooooooooooooooooooooooooooooooooooooooooo  XXooooo    +++++++++++",
"++++    XXooooooooooooooooooooooooooooooooooooooooo  XXooooo    +++++++++++",
"++++    XXooooooooooooooooooooooooooooooooooooooooo  XXooooo    +++++++++++",
"++++    XXooXX        XooooooooooooooooXX        XX  XXoooXX    +++++++++++",
"++++    XXooXX        XooooooooooooooooXX        XX  XXoooXX    +++++++++++",
"++++    XXoo  OOOO     oooooooooooooooo  OOOO        XXX          +++++++++",
"++++    XXoo  OOOO     oooooooooooooooo  OOOO        XXX          +++++++++",
"++++    XXXX  OOOO     oooooooooooooooo  OOOO      ..XX             +++++++",
"++++    XXXX  OOOO     oooooooooooooooo  OOOO      ..XX             +++++++",
"++++    ..XX           oo            oo            XXXX XXooooXX    +++++++",
"++++    ..XX           oo            oo            XXXX XXooooXX    +++++++",
"++++++    XX..XXXXXXXX.oo  OOOOOOOO  oo..XXXXXX    XX  XooooooooXX    +++++",
"++++++    XX..XXXXXXXX.oo  OOOOOOOO  oo..XXXXXX    XX  XooooooooXX    +++++",
"++++++    ..XXooooooooooo            oooooooo    XXXX  ooooooooooo    +++++",
"++++++    ..XXooooooooooo            oooooooo    XXXX  ooooooooooo    +++++",
"++++++++    XXoooooooooooXX        XXoooooo      XXXX..ooooooooooo    +++++",
"++++++++    XXoooooooooooXX        XXoooooo      XXXX..ooooooooooo    +++++",
"++++++++    ..XXooooooooooooooooooooooooooo  ..  XXXXXXooooooooooo    +++++",
"++++++++    ..XXooooooooooooooooooooooooooo  ..  XXXXXXooooooooooo    +++++",
"++++++++++    ..XXooooooooooooooooooooooo    ooooXXXXXXXoooooooooo    +++++",
"++++++++++    ..XXooooooooooooooooooooooo    ooooXXXXXXXoooooooooo    +++++",
"++++++++++++    ..XXooooooooooooooooooooo  XXooooXXXXXXXoooooooooo    +++++",
"++++++++++++    ..XXooooooooooooooooooooo  XXooooXXXXXXXoooooooooo    +++++",
"++++++++++++++      ..XooooooooooooooooXX  XXXXoo  ..XXXXXXXXX..      +++++",
"++++++++++++++      ..XooooooooooooooooXX  XXXXoo  ..XXXXXXXXX..      +++++",
"++++++++++++++++       ..XXXXXXXXXXXX..    XXXXooXX    .XXXX..      +++++++",
"++++++++++++++++       ..XXXXXXXXXXXX..    XXXXooXX    .XXXX..      +++++++",
"++++++++++++++++++                         ....XXXX..             +++++++++",
"++++++++++++++++++    X                      ......             +++++++++++",
"++++++++++++++++++    X                      ......             +++++++++++",
"++++++++++++++++    XXoooXXXXXXXXXXXXXXXX              ++++++++++++++++++++",
"++++++++++++++++    XXoooXXXXXXXXXXXXXXXX              ++++++++++++++++++++",
"++++++++++++++++    XXo  XXooooooooooooXX            ++++++++++++++++++++++",
"++++++++++++++++    XXo  XXooooooooooooXX            ++++++++++++++++++++++",
"++++++++++++++++    XXo  oooooooooooooooo      ++++++++++++++++++++++++++++",
"++++++++++++++++    XXo  oooooooooooooooo      ++++++++++++++++++++++++++++",
"++++++++++++++++++       ooooXX    XXoooo    ++++++++++++++++++++++++++++++",
"++++++++++++++++++       ooooXX    XXoooo    ++++++++++++++++++++++++++++++",
"++++++++++++++++++++     oooooo    XXoooo    ++++++++++++++++++++++++++++++",
"++++++++++++++++++++     oooooo    XXoooo    ++++++++++++++++++++++++++++++",
"++++++++++++++++++++++     oooo    XXoo      ++++++++++++++++++++++++++++++",
"++++++++++++++++++++++     oooo    XXoo      ++++++++++++++++++++++++++++++",
"+++++++++++++++++++++++                    ++++++++++++++++++++++++++++++++",
"+++++++++++++++++++++++                    ++++++++++++++++++++++++++++++++",
"+++++++++++++++++++++++++      ++++      ++++++++++++++++++++++++++++++++++",
"+++++++++++++++++++++++++      ++++      ++++++++++++++++++++++++++++++++++"
};
