/* XPM */
static char *_652f25a8b564d7dc7f2158182c22097uk4ew1BDPvcGrAS1[] = {
/* columns rows colors chars-per-pixel */
"57 30 7 1 ",
"  c None",
". c #080000",
"X c #775422",
"o c #9E712E",
"O c #C68F3C",
"+ c gray75",
"@ c white",
/* pixels */
"                                                         ",
"                   ..........                            ",
"                   ..........                            ",
"             ......................                      ",
"             ......................                      ",
"           ........oOO..OOOOo........                    ",
"           ........oOO..OOOOo........                    ",
"          ...ooOOOOo......ooO++@@@@...                   ",
"        ...ooOOOOOO.ooOOOOOO+@@@@OOoo...                 ",
"        ...ooOOOOOO.ooOOOOOO+@@@@OOoo...                 ",
"        ...ooOOOOOOo......++@@@OOOOoo...                 ",
"        ...ooOOOOOOo......++@@@OOOOoo...                 ",
"        .....ooOOOOOoo..++@@@OOOOoo.....                 ",
"        .....ooOOOOOoo..++@@@OOOOoo.....                 ",
"        ...XX......ooo++@@@@o......XX...                 ",
"        ...XX......ooo++@@@@o......XX...                 ",
"          ...XXoooo..........ooooXX...                   ",
"           ........XooooooooX........                    ",
"           ........XooooooooX........                    ",
"             ......................                      ",
"             ......................                      ",
"                   ..........                            ",
"                   ..........                            ",
"                                                         ",
"                                                         ",
"                                                         ",
"                                                         ",
"                                                         ",
"                                                         ",
"                                                         "
};
