/* XPM */
static char *result[] = {
/* columns rows colors chars-per-pixel */
"70 70 6 1 ",
"  c #080000",
". c #B97371",
"X c #CF9C9B",
"o c #E3C6C5",
"O c white",
"+ c None",
/* pixels */
"++++++++++++++++++++++++++++++++++++++++++++++++++++++++++++++++++++++",
"++++++++++++++++++++++++++++++++++++++++++++++++++++++++++++++++++++++",
"++++++++++++++++++++++++++++++++++++++++++++++++++++++++++++++++++++++",
"++++++++++++++++++++++++++++++++++++++++++++++++++++++++++++++++++++++",
"++++++++++++++++++++++++++++++++++++++++++++++++++++++++++++++++++++++",
"+++++++++++++++++++++++++++                +++++++++++++++++++++++++++",
"+++++++++++++++++++++++++++                +++++++++++++++++++++++++++",
"+++++++++++++++++++++++                        +++++++++++++++++++++++",
"+++++++++++++++++++++++                        +++++++++++++++++++++++",
"+++++++++++++++++++        XXXXXXXXXXXXXXXX        +++++++++++++++++++",
"+++++++++++++++++++        XXXXXXXXXXXXXXXX        +++++++++++++++++++",
"+++++++++++++++++      XXooooooooooooooooooooXX      +++++++++++++++++",
"+++++++++++++++++      XXooooooooooooooooooooXX      +++++++++++++++++",
"+++++++++++++++    XXooooooooooooooooooooooooooooXX    +++++++++++++++",
"+++++++++++++++    XXooooooooooooooooooooooooooooXX    +++++++++++++++",
"+++++++++++++    XXooooooooooooooooooooooooooooooooXX    +++++++++++++",
"+++++++++++++    XXooooooooooooooooooooooooooooooooXX    +++++++++++++",
"+++++++++++    XXooooooooooooooooooooooooooooooooooooXX    +++++++++++",
"+++++++++++    XXooooooooooooooooooooooooooooooooooooXX    +++++++++++",
"+++++++++++    oooooooooooooooooooooooooooooooooooooooo    +++++++++++",
"+++++++++++    oooooooooooooooooooooooooooooooooooooooo    +++++++++++",
"+++++++++    XXooooooooooooooooooooooooooooooooooooooooXX    +++++++++",
"+++++++++    XXooooooooooooooooooooooooooooooooooooooooXX    +++++++++",
"+++++++++    oooooooooooooooooooooooooooooooooooooooooooo    +++++++++",
"+++++++++    oooooooooooooooooooooooooooooooooooooooooooo    +++++++++",
"+++++++    XXooooooooooooooooooooooooooooooooooooooooooooXX    +++++++",
"+++++++    XXooooooooooooooooooooooooooooooooooooooooooooXX    +++++++",
"+++++++    XXooXX        XXooooooooooooooooXX        XXooXX    +++++++",
"+++++++    XXooXX        XXooooooooooooooooXX        XXooXX    +++++++",
"+++++++    XXoo  OOOO      oooooooooooooooo  OOOO      ooXX    +++++++",
"+++++++    XXoo  OOOO      oooooooooooooooo  OOOO      ooXX    +++++++",
"+++++++    XXXX  OOOO      oooooooooooooooo  OOOO      XXXX    +++++++",
"+++++++    XXXX  OOOO      oooooooooooooooo  OOOO      XXXX    +++++++",
"+++++++    ..XX            oo            oo            XX..    +++++++",
"+++++++    ..XX            oo            oo            XX..    +++++++",
"+++++++++    XX..XXXXXXXX..oo  OOOOOOOO  oo..XXXXXXXX..XX    +++++++++",
"+++++++++    XX..XXXXXXXX..oo  OOOOOOOO  oo..XXXXXXXX..XX    +++++++++",
"+++++++      ..XXoooooooooooo            ooooooooooooXX..      +++++++",
"+++++++      ..XXoooooooooooo            ooooooooooooXX..      +++++++",
"+++++    XX    XXooooooooooooXX        XXooooooooooooXX    XX    +++++",
"+++++    XX    XXooooooooooooXX        XXooooooooooooXX    XX    +++++",
"+++++    oo    ..XXooooooooooooooooooooooooooooooooXX..    oo    +++++",
"+++++    oo    ..XXooooooooooooooooooooooooooooooooXX..    oo    +++++",
"+++++    ooXX    ..XXooooooooooooooooooooooooooooXX..    XXoo    +++++",
"+++++    ooXX    ..XXooooooooooooooooooooooooooooXX..    XXoo    +++++",
"+++++++    XXXXXX  ..XXooooooooooooooooooooooooXX..    XXXX    +++++++",
"+++++++    XXXXXX  ..XXooooooooooooooooooooooooXX..    XXXX    +++++++",
"+++++++++              ..XXooooooooooooooooXX..              +++++++++",
"+++++++++              ..XXooooooooooooooooXX..              +++++++++",
"+++++++++++      ++        ..XXXXXXXXXXXX..        ++      +++++++++++",
"+++++++++++      ++        ..XXXXXXXXXXXX..        ++      +++++++++++",
"+++++++++++++++++                                    +++++++++++++++++",
"+++++++++++++++++                                    +++++++++++++++++",
"+++++++++++++++++    XXoooo                ooooXX    +++++++++++++++++",
"+++++++++++++++++    XXoooo                ooooXX    +++++++++++++++++",
"+++++++++++++++++    XXoooooo          XXooooooXX    +++++++++++++++++",
"+++++++++++++++++    XXoooooo          XXooooooXX    +++++++++++++++++",
"+++++++++++++++++++    oooooo    ++++    XXoooo    +++++++++++++++++++",
"+++++++++++++++++++    oooooo    ++++    XXoooo    +++++++++++++++++++",
"+++++++++++++++++++++          ++++++++          +++++++++++++++++++++",
"+++++++++++++++++++++          ++++++++          +++++++++++++++++++++",
"+++++++++++++++++++++++      ++++++++++++      +++++++++++++++++++++++",
"+++++++++++++++++++++++      ++++++++++++      +++++++++++++++++++++++",
"++++++++++++++++++++++++++++++++++++++++++++++++++++++++++++++++++++++",
"++++++++++++++++++++++++++++++++++++++++++++++++++++++++++++++++++++++",
"++++++++++++++++++++++++++++++++++++++++++++++++++++++++++++++++++++++",
"++++++++++++++++++++++++++++++++++++++++++++++++++++++++++++++++++++++",
"++++++++++++++++++++++++++++++++++++++++++++++++++++++++++++++++++++++",
"++++++++++++++++++++++++++++++++++++++++++++++++++++++++++++++++++++++",
"++++++++++++++++++++++++++++++++++++++++++++++++++++++++++++++++++++++"
};
