/* XPM */
static char * C:\Users\mathi\OneDrive\Desktop\pick\tile6_xpm[] = {
"80 80 3 1",
" 	c None",
".	c #FFFF87",
"+	c #FFFFFF",
"                                                                                ",
"                                                                                ",
"                                                                                ",
"                                                                                ",
"                                                                                ",
"                                                                                ",
"                                                          ..          ..        ",
"                                                          ..          ..        ",
"                                                            ....  ....          ",
"                                                            ....  ....          ",
"        ++      ++                                          ..++..++..          ",
"        ++      ++                                          ..++..++..          ",
"          ++++++                                              ..++..            ",
"          ++++++                                              ..++..            ",
"          ++++++                                            ..++..++..          ",
"          ++++++                                            ..++..++..          ",
"          ++++++                                            ....  ....          ",
"          ++++++                                            ....  ....          ",
"        ++      ++                                        ..          ..        ",
"        ++      ++                                        ..          ..        ",
"                                                                                ",
"                                                                                ",
"                                                                                ",
"                                                                                ",
"                                                                                ",
"                                                                                ",
"                                          ++                                    ",
"                                          ++                                    ",
"                                      ++++++++++                                ",
"                                      ++++++++++                                ",
"                                          ++                                    ",
"                                          ++                                    ",
"                                                                                ",
"                                                                                ",
"                                                                                ",
"                                                                                ",
"                                                                                ",
"                                                                                ",
"                                                                                ",
"                                                                                ",
"                                                                ++      ++      ",
"                                                                ++      ++      ",
"                                                                  ++++++        ",
"                                                                  ++++++        ",
"                                                                  ++++++        ",
"                                                                  ++++++        ",
"                                                                  ++++++        ",
"                                                                  ++++++        ",
"                                                                ++      ++      ",
"                                                                ++      ++      ",
"                                                                                ",
"                                                                                ",
"                                                                                ",
"                                                                                ",
"                                                                                ",
"                                                                                ",
"                          ..          ..                                        ",
"                          ..          ..                                        ",
"                            ....  ....                                          ",
"                            ....  ....                                          ",
"                            ..++..++..                                          ",
"                            ..++..++..                                          ",
"                              ..++..                                            ",
"                              ..++..                                            ",
"                            ..++..++..                                          ",
"                            ..++..++..                                          ",
"                            ....  ....                                          ",
"                            ....  ....                                          ",
"                          ..          ..                                        ",
"                          ..          ..                                        ",
"                                                                                ",
"                                                                                ",
"                                                                                ",
"                                                                                ",
"                                                                                ",
"                                                                                ",
"                                                                                ",
"                                                                                ",
"                                                                                ",
"                                                                                "};
