/* XPM */
static char * C:\Users\mathi\OneDrive\Desktop\pick\tile0_xpm[] = {
"80 80 3 1",
" 	c None",
".	c #FFFF43",
"+	c #FFFFFF",
"                                                                                ",
"                                                                                ",
"                                                                                ",
"                                                                                ",
"                                                                                ",
"                                                                                ",
"                                                                                ",
"                                                                                ",
"                                                                                ",
"                                                                                ",
"                                                                                ",
"                                                                                ",
"                                                                                ",
"                                                                                ",
"                                                                                ",
"                                                                                ",
"                                                                                ",
"                                                                                ",
"                                                                                ",
"                                                                                ",
"                                                                                ",
"                                                                                ",
"                                                                                ",
"                                                                                ",
"                                                                                ",
"                                                                                ",
"                                 ............                                   ",
"                                 ............                                   ",
"                           ........................                             ",
"                           ........................                             ",
"                         ........++++..++++++........                           ",
"                         ........++++..++++++........                           ",
"                       ....++++++++......++++++++++....                         ",
"                       ....++++++++......++++++++++....                         ",
"                     ....++++++++..++++++++++++++++++....                       ",
"                     ....++++++++..++++++++++++++++++....                       ",
"                     ....++++++++++........++++++++++....                       ",
"                     ....++++++++++........++++++++++....                       ",
"                     ......++++++++++..++++++++++++......                       ",
"                     ......++++++++++..++++++++++++......                       ",
"                     ....++......++++++++++++......++....                       ",
"                     ....++......++++++++++++......++....                       ",
"                       ....++++++............++++++....                         ",
"                       ....++++++............++++++....                         ",
"                         ........++++++++++++........                           ",
"                         ........++++++++++++........                           ",
"                           ........................                             ",
"                           ........................                             ",
"                                 ............                                   ",
"                                 ............                                   ",
"                                                                                ",
"                                                                                ",
"                                                                                ",
"                                                                                ",
"                                                                                ",
"                                                                                ",
"                                                                                ",
"                                                                                ",
"                                                                                ",
"                                                                                ",
"                                                                                ",
"                                                                                ",
"                                                                                ",
"                                                                                ",
"                                                                                ",
"                                                                                ",
"                                                                                ",
"                                                                                ",
"                                                                                ",
"                                                                                ",
"                                                                                ",
"                                                                                ",
"                                                                                ",
"                                                                                ",
"                                                                                ",
"                                                                                ",
"                                                                                ",
"                                                                                ",
"                                                                                ",
"                                                                                "};
