/* XPM */
static char * C:\Users\mathi\OneDrive\Desktop\pick\tile3_xpm[] = {
"80 80 4 1",
" 	c None",
".	c #FFFF87",
"+	c #FFFFFF",
"@	c #FFFF43",
"                                                                                ",
"                                                                                ",
"                                                                                ",
"                                                                                ",
"                                                                                ",
"                                                                                ",
"                                                                                ",
"                                                                                ",
"                                                                                ",
"                                                                                ",
"                                                                                ",
"                                                                                ",
"                                                             ......             ",
"                                                             ......             ",
"                                                           ..++++++..           ",
"                                                           ..++++++..           ",
"                                                         ..++++++..             ",
"                                                         ..++++++..             ",
"                                                       ..++++....               ",
"                                                       ..++++....               ",
"           ......                      ++            ..++++..                   ",
"           ......                      ++            ..++++..                   ",
"           ..++++....                  ++          ..++....                     ",
"           ..++++....                  ++          ..++....                     ",
"             ....++++..                ++        ..++..                         ",
"             ....++++..                ++        ..++..                         ",
"                 ....++....            ++      ......                           ",
"                 ....++....            ++      ......                           ",
"                     ....++..        ++++++  ....                               ",
"                     ....++..        ++++++  ....                               ",
"                         ......      ++++++                                     ",
"                         ......      ++++++                                     ",
"                             ....  ++++++++++                                   ",
"                             ....  ++++++++++                                   ",
"                                   ++++++++++                                   ",
"                                   ++++++++++                                   ",
"                                   ++++++++++                                   ",
"                                   ++++++++++                                   ",
"                                     ++++++                                     ",
"                                     ++++++                                     ",
"                                     ++++++                                     ",
"                                     ++++++                                     ",
"                                       ++        ....                           ",
"                                       ++        ....                           ",
"                                       ++          ..........                   ",
"                                       ++          ..........                   ",
"                                   ..  ++              ....++@@..               ",
"                                   ..  ++              ....++@@..               ",
"                                   ..  ++                  ......               ",
"                                   ..  ++                  ......               ",
"                                 ....  ++                                       ",
"                                 ....  ++                                       ",
"                                 ....                                           ",
"                                 ....                                           ",
"                               ....                                             ",
"                               ....                                             ",
"                               ....                                             ",
"                               ....                                             ",
"                             ..++..                                             ",
"                             ..++..                                             ",
"                             ....                                               ",
"                             ....                                               ",
"                           ..++..                                               ",
"                           ..++..                                               ",
"                           ..++..                                               ",
"                           ..++..                                               ",
"                             ..                                                 ",
"                             ..                                                 ",
"                                                                                ",
"                                                                                ",
"                                                                                ",
"                                                                                ",
"                                                                                ",
"                                                                                ",
"                                                                                ",
"                                                                                ",
"                                                                                ",
"                                                                                ",
"                                                                                ",
"                                                                                "};
