/* XPM */
static char * C:\Users\mathi\OneDrive\Desktop\coin_xpm[] = {
"32 32 5 1",
" 	c None",
".	c #000000",
"+	c #906818",
"@	c #FFFFFF",
"#	c #CEC85A",
"                                ",
"                                ",
"                                ",
"            .......             ",
"            .......             ",
"         .............          ",
"         .............          ",
"         .............          ",
"       .....++@@@@@.....        ",
"       .....++@@@@@.....        ",
"    .....+++@@########....      ",
"    .....+++@@########....      ",
"    .....+++@@########....      ",
"    .....+++@@########....      ",
"    .....+++@@########....      ",
"    .....+++##########....      ",
"    .....+++##########....      ",
"    .....+++##########....      ",
"    .....+++@@########....      ",
"    .....+++@@########....      ",
"    .....+++##########....      ",
"    .....+++##########....      ",
"    .....+++##########....      ",
"       .....++#####.....        ",
"       .....++#####.....        ",
"         .............          ",
"         .............          ",
"            .......             ",
"            .......             ",
"            .......             ",
"                                ",
"                                "};
