/* XPM */
static char *result[] = {
/* columns rows colors chars-per-pixel */
"140 60 2 1 ",
"  c white",
". c None",
/* pixels */
"............................................................................................................................................",
"............................................................................................................................................",
"............................................................................................................................................",
"............................................................................................................................................",
"............................................................................................................................................",
"............................................................................................................................................",
"............................................................................................................................................",
"................          ..................................................................................................................",
"................          ..................................................................................................................",
"..............                ..............................................................................................................",
"..............                ..............................................................................................................",
"............                    ............................................................................................................",
"............                    ............................................................................................................",
"............      ........      ............................................................................................................",
"............      ........      ............................................................................................................",
"............      ..........    ............................................................................................................",
"............      ..........    ............................................................................................................",
"............        ........................................................................................................................",
"............        ........................................................................................................................",
"............                ..............        ..........................................................................................",
"............                ..............        ..........................................................................................",
"..............                ........      ..    ..........            ...........................        ........      ...................",
"..............                ........      ..    ..........            ...........................        ........      ...................",
"........................        ....    ..................                ...              ....              ......        .................",
"........................        ....    ..................                ...              ....              ......        .................",
"..........    ............        ..    ................      ........    . .      ....      ..      ..............      ...................",
"..........    ............        ..    ................      ........    . .      ....      ..      ..............      ...................",
"........      ..............      ..    ................    ............    .    ....        ..          ...................................",
"........      ..............      ..    ................    ............    .    ....        ..          ...................................",
"........        ............      ..    ................    ............    .              ....        .....................................",
"........        ............      ..    ................    ............    .              ....        .....................................",
"..........      ..........        ..      ......            ............    .            ......    ................      ...................",
"..........      ..........        ..      ......            ............    .            ......    ................      ...................",
"..........          ....        ....                  ..      ........      .    ..          ..                  ..        .................",
"..........          ....        ....                  ..      ........      .    ..          ..                  ..        .................",
"..........                    ........              ......                  ...  ......        ..                ..      ...................",
"..........                    ........              ......                  ...  ......        ..                ..      ...................",
"..............              ..............    ............                .....  ........      ....        .................................",
"..............              ..............    ............                .....  ........      ....        .................................",
"............................................................................................................................................",
"............................................................................................................................................",
"............................................................................................................................................",
"............................................................................................................................................",
"............................................................................................................................................",
"............................................................................................................................................",
"............................................................................................................................................",
"............................................................................................................................................",
"............................................................................................................................................",
"............................................................................................................................................",
"............................................................................................................................................",
"............................................................................................................................................",
"............................................................................................................................................",
"............................................................................................................................................",
"............................................................................................................................................",
"............................................................................................................................................",
"............................................................................................................................................",
"............................................................................................................................................",
"............................................................................................................................................",
"............................................................................................................................................",
"............................................................................................................................................"
};
